<svg xmlns="http://www.w3.org/2000/svg" width="100" height="100" viewBox="0 0 0 0 100 0 100"><defs><linearGradient id="a" gradientUnits="userSpaceOnUse" x1="109.988" y1="129.047" x2="109.988" y2="153.461" gradientTransform="scale(.455)"><stop offset="0" stop-color="#28283C"/><stop offset="1" stop-color="#0A0A1E"/></linearGradient><linearGradient id="b" gradientUnits="userSpaceOnUse" x1="90.132" y1="130.826" x2="105.921" y2="130.826" gradientTransform="scale(.455)"><stop offset="0" stop-color="#DCAF91"/><stop offset="1" stop-color="#BE9173"/></linearGradient><linearGradient id="c" gradientUnits="userSpaceOnUse" x1="115.643" y1="138.678" x2="115.643" y2="132.102" gradientTransform="scale(.455)"><stop offset="0" stop-color="#F0C3A5"/><stop offset="1" stop-color="#DCAF91"/></linearGradient><linearGradient id="d" gradientUnits="userSpaceOnUse" x1="88.989" y1="98.866" x2="88.989" y2="106.111" gradientTransform="scale(.455)"><stop offset="0" stop-color="#FFE6C8"/><stop offset="1" stop-color="#E6B99B"/></linearGradient><linearGradient id="e" gradientUnits="userSpaceOnUse" x1="89.256" y1="108.753" x2="89.256" y2="99.867" gradientTransform="scale(.455)"><stop offset="0" stop-color="#EBD2B4"/><stop offset="1" stop-color="#96694B"/></linearGradient><linearGradient id="f" gradientUnits="userSpaceOnUse" x1="87.202" y1="99.019" x2="87.202" y2="109.315" gradientTransform="scale(.455)"><stop offset="0" stop-color="#FFE6C8"/><stop offset="1" stop-color="#E6B99B"/></linearGradient><linearGradient id="g" gradientUnits="userSpaceOnUse" x1="88.944" y1="111.523" x2="88.944" y2="99.781" gradientTransform="scale(.455)"><stop offset="0" stop-color="#F0C3A5"/><stop offset="1" stop-color="#DCAF91"/></linearGradient><linearGradient id="h" gradientUnits="userSpaceOnUse" x1="130.28" y1="111.523" x2="130.28" y2="99.781" gradientTransform="scale(.455)"><stop offset="0" stop-color="#F0C3A5"/><stop offset="1" stop-color="#DCAF91"/></linearGradient><linearGradient id="i" gradientUnits="userSpaceOnUse" x1="129.967" y1="108.753" x2="129.967" y2="99.867" gradientTransform="scale(.455)"><stop offset="0" stop-color="#EBD2B4"/><stop offset="1" stop-color="#96694B"/></linearGradient><linearGradient id="j" gradientUnits="userSpaceOnUse" x1="130.235" y1="98.866" x2="130.235" y2="106.111" gradientTransform="scale(.455)"><stop offset="0" stop-color="#FFE6C8"/><stop offset="1" stop-color="#E6B99B"/></linearGradient><linearGradient id="k" gradientUnits="userSpaceOnUse" x1="132.022" y1="99.019" x2="132.022" y2="109.315" gradientTransform="scale(.455)"><stop offset="0" stop-color="#FFE6C8"/><stop offset="1" stop-color="#E6B99B"/></linearGradient><linearGradient id="l" gradientUnits="userSpaceOnUse" x1="128.593" y1="72.248" x2="128.593" y2="87.643" gradientTransform="scale(.455)"><stop offset="0" stop-color="#505064"/><stop offset="1" stop-color="#323246"/></linearGradient><linearGradient id="m" gradientUnits="userSpaceOnUse" x1="128.792" y1="64.342" x2="128.792" y2="85.049" gradientTransform="scale(.455)"><stop offset="0" stop-color="#505064"/><stop offset="1" stop-color="#323246"/></linearGradient><linearGradient id="n" gradientUnits="userSpaceOnUse" x1="109.791" y1="73.424" x2="109.791" y2="122.45" gradientTransform="scale(.455)"><stop offset="0" stop-color="#FFE6C8"/><stop offset="1" stop-color="#E6B99B"/></linearGradient><linearGradient id="o" gradientUnits="userSpaceOnUse" x1="125.904" y1="70.79" x2="88.237" y2="85.259" gradientTransform="scale(.455)"><stop offset="0" stop-color="#3C3C50"/><stop offset="1" stop-color="#1E1E32"/></linearGradient><linearGradient id="p" gradientUnits="userSpaceOnUse" x1="125.299" y1="69.274" x2="87.106" y2="83.945" gradientTransform="scale(.455)"><stop offset="0" stop-color="#3C3C50"/><stop offset="1" stop-color="#1E1E32"/></linearGradient><linearGradient id="q" gradientUnits="userSpaceOnUse" x1="108.093" y1="121.109" x2="108.093" y2="131.631" gradientTransform="scale(.455)"><stop offset="0" stop-color="#F0C3A5"/><stop offset="1" stop-color="#DCAF91"/></linearGradient><linearGradient id="r" gradientUnits="userSpaceOnUse" x1="110.019" y1="121.264" x2="110.019" y2="96.412" gradientTransform="scale(.455)"><stop offset="0" stop-color="#DCAF91"/><stop offset="1" stop-color="#A04646"/></linearGradient><linearGradient id="s" gradientUnits="userSpaceOnUse" x1="118.86" y1="113.639" x2="113.448" y2="108.975" gradientTransform="scale(.455)"><stop offset="0" stop-color="#F0C3A5"/><stop offset="1" stop-color="#D2A587"/></linearGradient><linearGradient id="t" gradientUnits="userSpaceOnUse" x1="109.736" y1="116.728" x2="109.736" y2="123.407" gradientTransform="scale(.455)"><stop offset="0" stop-color="#DCAF91"/><stop offset="1" stop-color="#A04646"/></linearGradient><linearGradient id="u" gradientUnits="userSpaceOnUse" x1="114.069" y1="120.728" x2="114.069" y2="120.886" gradientTransform="scale(.455)"><stop offset="0" stop-color="#DCAF91"/><stop offset="1" stop-color="#BE9173"/></linearGradient><linearGradient id="v" gradientUnits="userSpaceOnUse" x1="110.025" y1="103.698" x2="110.025" y2="112.182" gradientTransform="scale(.455)"><stop offset="0" stop-color="#F0C3A5"/><stop offset="1" stop-color="#D2A587"/></linearGradient><linearGradient id="w" gradientUnits="userSpaceOnUse" x1="109.652" y1="114.523" x2="109.652" y2="112.444" gradientTransform="scale(.455)"><stop offset="0" stop-color="#F0C3A5"/><stop offset="1" stop-color="#D2A587"/></linearGradient><linearGradient id="x" gradientUnits="userSpaceOnUse" x1="101.892" y1="114.885" x2="105.642" y2="111.152" gradientTransform="scale(.455)"><stop offset="0" stop-color="#F0C3A5"/><stop offset="1" stop-color="#D2A587"/></linearGradient><linearGradient id="y" gradientUnits="userSpaceOnUse" x1="93.421" y1="74.555" x2="93.421" y2="94.076" gradientTransform="scale(.455)"><stop offset="0" stop-color="#F0C3A5"/><stop offset="1" stop-color="#D2A587"/></linearGradient><linearGradient id="z" gradientUnits="userSpaceOnUse" x1="126.127" y1="76.284" x2="89.799" y2="90.238" gradientTransform="scale(.455)"><stop offset="0" stop-color="#3C3C50"/><stop offset="1" stop-color="#1E1E32"/></linearGradient><linearGradient id="A" gradientUnits="userSpaceOnUse" x1="92.264" y1="97.82" x2="89.168" y2="99.009" gradientTransform="scale(.455)"><stop offset="0" stop-color="#3C3C50"/><stop offset="1" stop-color="#1E1E32"/></linearGradient><linearGradient id="B" gradientUnits="userSpaceOnUse" x1="109.717" y1="84.774" x2="109.717" y2="126.444" gradientTransform="scale(.455)"><stop offset="0" stop-color="#F0C3A5"/><stop offset="1" stop-color="#DCAF91"/></linearGradient><linearGradient id="C" gradientUnits="userSpaceOnUse" x1="468.286" y1="97.728" x2="475.285" y2="97.728" gradientTransform="matrix(-.455 0 0 .455 270.322 0)"><stop offset="0" stop-color="#EBD2B4"/><stop offset="1" stop-color="#96694B"/></linearGradient><linearGradient id="D" gradientUnits="userSpaceOnUse" x1="92.881" y1="96.929" x2="100.674" y2="96.929" gradientTransform="scale(.455)"><stop offset="0" stop-color="#EBD2B4"/><stop offset="1" stop-color="#96694B"/></linearGradient><linearGradient id="E" gradientUnits="userSpaceOnUse" x1="99.675" y1="90.635" x2="99.675" y2="97.027" gradientTransform="scale(.455)"><stop offset="0" stop-color="#505064"/><stop offset="1" stop-color="#323246"/></linearGradient><linearGradient id="F" gradientUnits="userSpaceOnUse" x1="74.548" y1="115.917" x2="74.548" y2="119.848" gradientTransform="rotate(5.37 133.091 181.512) scale(.455)"><stop offset="0" stop-color="#E6E6E6"/><stop offset="1" stop-color="#FAFAFA"/></linearGradient><linearGradient id="G" gradientUnits="userSpaceOnUse" x1="73.824" y1="123.225" x2="78.505" y2="115.954" gradientTransform="rotate(5.37 133.091 181.512) scale(.455)"><stop offset="0" stop-color="#DCAF91"/><stop offset="1" stop-color="#BE9173"/></linearGradient><linearGradient id="H" gradientUnits="userSpaceOnUse" x1="84.98" y1="104.838" x2="90.722" y2="104.838" gradientTransform="matrix(.454 .016 -.016 .454 6.438 -4.43)"><stop offset="0" stop-color="#EBD2B4"/><stop offset="1" stop-color="#96694B"/></linearGradient><linearGradient id="I" gradientUnits="userSpaceOnUse" x1="69.272" y1="116.274" x2="80.17" y2="116.274" gradientTransform="rotate(5.37 133.091 181.512) scale(.455)"><stop offset="0" stop-color="#DCAF91"/><stop offset="1" stop-color="#BE9173"/></linearGradient><radialGradient id="J" gradientUnits="userSpaceOnUse" cx="100.797" cy="99.601" r="1.971" gradientTransform="scale(.455)"><stop offset="0" stop-color="#505064"/><stop offset="1" stop-color="#141428"/></radialGradient><linearGradient id="K" gradientUnits="userSpaceOnUse" x1="512.377" y1="-9.291" x2="512.377" y2="-5.36" gradientTransform="rotate(174.63 141.718 .783) scale(.455)"><stop offset="0" stop-color="#E6E6E6"/><stop offset="1" stop-color="#FAFAFA"/></linearGradient><linearGradient id="L" gradientUnits="userSpaceOnUse" x1="511.653" y1="-1.985" x2="516.333" y2="-9.255" gradientTransform="rotate(174.63 141.718 .783) scale(.455)"><stop offset="0" stop-color="#DCAF91"/><stop offset="1" stop-color="#BE9173"/></linearGradient><linearGradient id="M" gradientUnits="userSpaceOnUse" x1="523.9" y1="-10.586" x2="529.648" y2="-10.586" gradientTransform="matrix(-.454 .016 -.016 -.454 292.98 -4.428)"><stop offset="0" stop-color="#EBD2B4"/><stop offset="1" stop-color="#96694B"/></linearGradient><linearGradient id="N" gradientUnits="userSpaceOnUse" x1="507.101" y1="-8.92" x2="517.998" y2="-8.92" gradientTransform="rotate(174.63 141.718 .783) scale(.455)"><stop offset="0" stop-color="#DCAF91"/><stop offset="1" stop-color="#BE9173"/></linearGradient><radialGradient id="O" gradientUnits="userSpaceOnUse" cx="118.633" cy="99.601" r="1.971" gradientTransform="scale(.455)"><stop offset="0" stop-color="#505064"/><stop offset="1" stop-color="#141428"/></radialGradient><linearGradient id="P" gradientUnits="userSpaceOnUse" x1="114.005" y1="93.124" x2="127.92" y2="99.915" gradientTransform="scale(.455)"><stop offset="0" stop-color="#505064"/><stop offset="1" stop-color="#1E1E32"/></linearGradient></defs><path d="M50 87.5c-20.711 0-37.5-16.789-37.5-37.5S29.289 12.5 50 12.5 87.5 29.289 87.5 50 70.711 87.5 50 87.5z" fill="#047"/><path d="M41.736 58.76c1.023-.509 1.944-1.323 1.944-1.323h.04c-.04.203-.102.448-.143.712-.184 1.1 1.759 4.358 5.237 4.989.388.081.777.102 1.206.102 4.235 0 6.219-3.543 6.341-4.683a4.889 4.889 0 0 0-.02-1.1c.143.122.982.835 1.923 1.303 1.022.509 7.772 3.767 9 4.724 1.227.957 2.761 2.138 3.027 2.851.266.713.511 3.461.511 3.461H29.198s.245-2.748.511-3.461c.266-.713 1.8-1.873 3.027-2.851 1.228-.977 7.978-4.215 9-4.724z" fill="url(#a)"/><path d="M51.555 55.808l.143 4.133s-2.496.652-2.823.916c-.245.204-.123 1.731-.082 2.281-3.477-.631-5.42-3.889-5.236-4.989.041-.264.082-.488.143-.712.123-.57.245-.917.245-.917l7.61-.712z" fill="url(#b)"/><path d="M56.341 57.457c.041.387.082.672.02 1.1-.122 1.14-2.106 4.683-6.341 4.683-.409 0-.818-.041-1.206-.102-.062-.57-.184-2.077.081-2.281.307-.244 2.823-.916 2.823-.916l-.143-4.133 4.602-.428c.021 1.059.103 1.629.164 2.077z" fill="url(#c)"/><path d="M50.02 63.342c-.409 0-.818-.041-1.206-.102-3.457-.631-5.523-3.91-5.339-5.091.041-.244.082-.488.143-.712.123-.57.225-.917.246-.937l.02-.061 12.375-1.181v.102c.041.997.102 1.568.164 1.995l.02.102c.041.387.082.692.021 1.12-.123.998-2.005 4.765-6.444 4.765zm-5.993-6.72a13.73 13.73 0 0 0-.225.855c-.041.224-.102.469-.143.693-.164.977 1.636 4.235 5.155 4.866.368.061.777.102 1.186.102 4.295 0 6.136-3.624 6.239-4.602.041-.407.02-.692-.021-1.079l-.02-.081c-.062-.408-.123-.957-.164-1.894l-12.007 1.14z"/><path d="M70.782 70H29.198a.182.182 0 0 1-.143-.061.232.232 0 0 1-.062-.163c.021-.122.266-2.79.532-3.502.266-.713 1.575-1.751 2.843-2.749l.246-.183c1.084-.856 6.402-3.462 8.406-4.439.287-.143.512-.245.635-.306.981-.488 1.881-1.283 1.902-1.303.082-.081.204-.061.286.02.082.082.062.204-.02.286-.041.04-.962.834-1.984 1.343-.123.062-.348.163-.634.306-1.985.977-7.282 3.563-8.325 4.398l-.246.183c-1.104.876-2.495 1.955-2.72 2.566-.205.57-.409 2.525-.471 3.197h41.114c-.062-.672-.266-2.627-.471-3.197-.225-.611-1.595-1.69-2.72-2.566l-.246-.183c-1.063-.835-6.34-3.421-8.325-4.398-.286-.143-.511-.244-.634-.306a9.753 9.753 0 0 1-1.963-1.343c-.082-.082-.103-.204-.021-.286.082-.081.205-.101.287-.02.102.082.941.815 1.881 1.283.123.061.348.163.635.305 2.004.978 7.322 3.584 8.406 4.439l.246.184c1.268.997 2.577 2.036 2.843 2.748.266.733.511 3.401.532 3.503a.232.232 0 0 1-.062.163c-.04.04-.102.081-.163.081z"/><path d="M56.341 57.498c-.021 0-.021 0-.041-.021l-.02-.02c-.021-.02-.021-.041 0-.061.02-.02.04-.02.061 0l.02.02c.021.021.021.041 0 .082h-.02z"/><path d="M41 48.6c-.082-.245-.655-1.833-.9-2.749a1.29 1.29 0 0 0-.205-.448c-.02-.245-.02-.428-.02-.53.43.285.573.978.573.978L41 48.6z" fill="url(#d)"/><path d="M40.1 45.851c.245.916.818 2.484.9 2.749v.02l.225 1.161c-.818-.184-.716-1.772-.9-2.301a8.212 8.212 0 0 1-.43-2.057c.082.102.164.244.205.428z" fill="url(#e)"/><path d="M39.895 44.894c0 .101 0 .285.021.529-.205-.305-.45-.407-.532-.428.021-.142.082-.203.225-.203.102 0 .205.041.286.102z" fill="url(#f)"/><path d="M40.264 49.19c-.266-1.812-1.003-3.624-.9-4.215.081.02.347.122.531.428.041.488.144 1.242.43 2.056.184.53.082 2.138.9 2.301l.266 1.324c-.675.407-1.064-.774-1.227-1.894z" fill="url(#g)"/><path d="M41.225 51.267c-.082 0-.143-.02-.225-.041-.511-.244-.757-1.364-.839-2.016-.122-.875-.368-1.771-.572-2.504-.205-.794-.389-1.425-.328-1.751.041-.265.225-.285.328-.285.122.02.245.061.347.122.471.305.614 1.018.634 1.038l.532 2.729-.204.041-.532-2.729s-.143-.672-.532-.916c-.082-.041-.164-.082-.266-.082-.041 0-.082 0-.102.122-.041.286.123.917.327 1.65.205.733.45 1.629.573 2.525.143 1.018.429 1.71.736 1.873a.35.35 0 0 0 .287 0l-.471-2.403.205-.04.491 2.545-.062.041a.65.65 0 0 1-.327.081z"/><path d="M40.734 47.968c-.02 0-.041-.02-.041-.04 0-.021-.368-1.304-.634-2.057-.266-.733-.736-.855-.736-.855-.021 0-.041-.041-.041-.061 0-.021.041-.041.061-.041.021 0 .512.143.798.916.286.754.634 2.057.634 2.057.02.041 0 .081-.041.081.021 0 0 0 0 0z"/><path d="M40.53 48.661c-.021 0-.021-.021-.021-.021-.02-.264-.123-.957-.204-1.16-.491-1.426-.471-1.996-.471-2.016 0-.021.021-.021.021-.021.02 0 .02.021.02.021s-.02.59.45 1.995c.082.224.184.896.205 1.181.02 0 .02.021 0 .021z"/><path d="M59.327 47.459c-.184.53-.082 2.138-.9 2.301l-.266 1.324c.675.407 1.064-.774 1.228-1.894.266-1.812.981-3.624.9-4.215-.103.02-.348.122-.532.428a8.152 8.152 0 0 1-.43 2.056z" fill="url(#h)"/><path d="M59.327 47.459a8.152 8.152 0 0 0 .43-2.056 1.838 1.838 0 0 0-.205.448c-.245.916-.818 2.484-.9 2.749v.02l-.225 1.161c.798-.184.696-1.792.9-2.322z" fill="url(#i)"/><path d="M59.757 44.894c-.43.285-.573.977-.573.977l-.532 2.729c.103-.245.655-1.833.9-2.749a1.29 1.29 0 0 1 .205-.448v-.509z" fill="url(#j)"/><path d="M59.757 44.894c0 .101 0 .285-.021.529.205-.305.45-.407.532-.428-.02-.142-.082-.203-.225-.203a.49.49 0 0 0-.286.102z" fill="url(#k)"/><path d="M58.407 51.267c-.102 0-.205-.041-.327-.102l-.062-.041.491-2.545.205.041-.471 2.403c.102.04.184.04.287 0 .306-.143.593-.835.736-1.874.123-.896.368-1.792.573-2.525.204-.733.368-1.384.327-1.649-.021-.122-.061-.122-.102-.102a.666.666 0 0 0-.266.082c-.389.244-.532.916-.532.916l-.532 2.729-.204-.041.531-2.729c0-.04.164-.753.634-1.038.103-.061.225-.102.348-.122.102 0 .287.02.327.285.041.326-.122.957-.327 1.751a23.22 23.22 0 0 0-.573 2.504c-.102.652-.327 1.772-.838 2.016-.062.041-.143.041-.225.041z"/><path d="M58.734 48.64l-.204-.061.204.041zm.184-.672c-.02 0-.02 0 0 0-.041 0-.061-.04-.041-.061 0-.02.368-1.303.634-2.056.287-.774.778-.917.798-.917.021 0 .061 0 .061.041 0 .02 0 .061-.04.061 0 0-.471.143-.737.855-.286.754-.634 2.037-.634 2.057 0 0-.02.02-.041.02z"/><path d="M59.123 48.661c-.021 0-.021-.021-.021-.021.021-.285.123-.957.205-1.181.491-1.405.45-1.995.45-1.995 0-.021 0-.021.02-.021.021 0 .021 0 .021.021 0 .02.041.611-.471 2.016-.082.224-.184.896-.204 1.16.02 0 .02.021 0 .021z"/><path d="M60.043 37.584c.205 2.85.164 5.457-.041 6.129-.102.346-.552.794-.777.997v-.509c.02-3.563.082-6.638-1.391-8.796a5.774 5.774 0 0 0-1.125-1.222c.532-.509.88-1.018 1.064-1.283a1.27 1.27 0 0 1-.123.347s2.189 1.629 2.393 4.337z" fill="url(#l)"/><path d="M58.775 43.59c0-.02 0-.04-.02-.04-.246-.876-.164-3.849-.164-4.521 0-.834.143-1.975-.757-3.624 1.452 2.158 1.391 5.233 1.391 8.796v.509c0 .204-.02.428-.02.632a38.743 38.743 0 0 0-.43-1.752z" fill="url(#m)"/><path d="M48.466 49.353a91.866 91.866 0 0 1-2.107 2.993c.082-.081 1.207-1.201 2.189-1.649.163.183.409.305.654.366-.02.184-.082.509-.163.794 0 0 .756.652 1.534.041 0 0-.062-.448-.082-.774.736-.101 1.064-.366 1.145-.672a8.672 8.672 0 0 0 2.046 1.141c-1.33-1.1-2.291-2.79-2.557-3.258-.041-.143-.061-.265-.102-.387-.164-.367-.266-.611-.266-.611.02 2.199.491 2.281.409 2.851-.041.305-.818.326-1.186.326-1.064 0-1.228-.815-1.228-.815s-.245.509-.429.143c.041-.123.082-.285.143-.489zm4.725 4.439a11.541 11.541 0 0 1-1.002-.143c-.512-.122-.839-.305-1.228-.305-.368-.02-.613.081-.981.081-.369 0-.778-.163-.941-.163-.164 0-.594.163-1.269.347-.654.183-1.206.244-1.206.244v.041c.041 0 .081 0 .122.02v.02s.614.143.982.469c.307.264.409.488.9.611 1.002.224 2.148.142 3.048-.021-.43.102-.961.183-1.575.204-1.125 0-2.823-.489-2.823-.489-.47.102-1.35 1.059-1.657.957-1.37-.448-.675-5.416-1.391-6.373-1.125-1.527-2.475-1.833-3.047-3.095-.328-.692-.348-1.487-.184-2.444h.02s1.35-2.158 1.248-3.889c-.102-1.731-.225-3.4 1.718-5.701a9.918 9.918 0 0 1 1.043-.652 5.657 5.657 0 0 1 1.064-.081c2.25 0 7.2 1.16 8.345 1.486 1.125.326 2.23-.631 2.291-.672l.021-.02c.45.366.818.774 1.125 1.222.9 1.629.756 2.769.756 3.624 0 .672-.102 3.645.164 4.52 0 .021 0 .021.021.041.061.57.204 1.487.184 2.179-.041 1.079-.328 1.995-.675 2.179-1.575.875-1.882 1.527-2.455 4.5-.593 3.034-.859 3.278-1.473 3.258-.613-.041-1.309-1.344-1.309-1.344s-.347.244-.961.448c.532-.245.695-.774 1.268-1.039-.02-.02-.061-.02-.143-.02z" fill="url(#n)"/><path d="M41.491 36.973c-.798 1.812-.921 4.174-.982 7.432v.224c-.123-.204-.266-.468-.286-.631 0 0-.368-2.423-.103-5.457.225-2.525 1.432-3.93 1.432-3.93s.184-1.385 1.228-2.301c1.227-1.079 4.029-2.24 5.584-2.647 1.575-.407 5.113-.143 5.788.142.675.265 3.478 1.976 3.621 2.444.061.224.041.468-.021.672a6.395 6.395 0 0 1-1.063 1.283c-.778-.632-1.821-1.141-3.15-1.487-4.234-1.079-6.259-.611-8.571.774-.327.204-.675.428-1.043.652-1.145.773-1.923 1.69-2.434 2.83z" fill="url(#o)"/><path d="M56.709 34.183c-.061.041-1.145 1.018-2.291.672-1.166-.346-6.095-1.486-8.345-1.486-.389 0-.757.041-1.064.081 2.291-1.384 4.316-1.853 8.571-.774 1.35.347 2.372.835 3.15 1.487 0 .02-.021.041-.021.02z" fill="url(#p)"/><path d="M53.273 58.109c.491.081 1.288.203 2.086-.224-.675.753-1.391 1.282-2.066 1.71-1.513.977-4.684.713-5.993.204a8.61 8.61 0 0 1-4.377-3.808c.695.794 2.454 2.627 3.825 2.138.92-.346 1.186-1.303 2.413-1.527.675-.122 1.678-.265 2.414-.102.695.143 1.411 1.548 1.698 1.609z" fill="url(#q)"/><path d="M53.314 53.792c-.573.265-.737.794-1.269 1.038a8.37 8.37 0 0 1-.409.122c-.9.163-2.045.245-3.047.021-.491-.102-.614-.346-.9-.611-.389-.346-.982-.468-.982-.468v-.021c.409.041 1.391.163 3.191.306 1.636.142 2.72-.163 3.293-.387h.123z" fill="url(#r)"/><path d="M53.723 51.593a8.256 8.256 0 0 1-2.046-1.141c.062-.223.021-.468-.082-.712a10.587 10.587 0 0 1-.429-1.385c.245.469 1.207 2.138 2.557 3.238z" fill="url(#s)"/><path d="M52.189 53.649c.409.082.797.122 1.002.143-.573.224-1.657.529-3.293.387-1.8-.143-2.803-.265-3.191-.306-.041 0-.102-.02-.123-.02v-.041s.552-.041 1.207-.244c.654-.183 1.084-.346 1.268-.346.164 0 .573.163.941.163s.614-.102.982-.082c.368.041.695.224 1.207.346z" fill="url(#t)"/><path d="M52.066 54.83a1.508 1.508 0 0 1-.327.102c-.021 0-.062 0-.082.02.143-.04.266-.081.409-.122z" fill="url(#u)"/><path d="M49.223 51.063c-.246-.081-.491-.183-.655-.366-.184-.183-.266-.448-.225-.815.205.347.43-.142.43-.142s.163.814 1.227.814c.368 0 1.145-.02 1.186-.325.082-.571-.368-.652-.409-2.851 0 0 .103.265.266.611.021.122.062.244.102.387.103.427.246.916.43 1.384.082.245.143.489.082.713-.082.305-.409.57-1.146.672-.122.02-.266.02-.429.041-.225-.021-.552-.041-.859-.123z" fill="url(#v)"/><path d="M50.511 51.124c.021.347.082.774.082.774-.777.591-1.534-.041-1.534-.041.082-.285.123-.61.164-.794.307.082.634.102.859.102.163-.02.307-.02.429-.041z" fill="url(#w)"/><path d="M48.343 49.862c-.041.367.062.631.225.814-1.002.448-2.127 1.589-2.188 1.65a61.299 61.299 0 0 0 2.106-2.993 2.683 2.683 0 0 0-.143.529z" fill="url(#x)"/><path d="M41.02 43.468c.144-.651.021-3.095.021-3.706 0-.712.204-2.056.47-2.789.512-1.14 1.269-2.057 2.475-2.851-1.943 2.301-1.82 3.971-1.718 5.702.102 1.73-1.248 3.889-1.248 3.889H41c-.02-.082 0-.163.02-.245z" fill="url(#y)"/><path d="M41.491 36.973c-.266.733-.471 2.077-.471 2.789 0 .611.123 3.055-.04 3.706-.103.428-.225.978-.328 1.385-.02-.041-.082-.122-.143-.224v-.224c.061-3.258.184-5.62.982-7.432z" fill="url(#z)"/><path d="M40.53 44.629c.061.102.122.183.143.224a7.38 7.38 0 0 0-.123.529c-.02-.264-.02-.529-.02-.753z" fill="url(#A)"/><path d="M40.673 44.853c.102-.407.225-.957.327-1.385h.02c-.02.082-.04.163-.04.245-.185.957-.062 1.792.265 2.484.594 1.262 1.882 1.466 3.007 2.993.696.957.062 5.905 1.432 6.353.307.102 1.125-.774 1.596-.876 0 0 1.697.489 2.822.489a5.76 5.76 0 0 0 1.575-.204c.021 0 .062 0 .082-.02a1.49 1.49 0 0 0 .327-.102c.634-.203.962-.448.962-.448s.695 1.222 1.329 1.263c.614.041.818-.163 1.391-3.197.573-2.993.88-3.665 2.455-4.541.327-.183.654-1.059.675-2.138.02-.692-.062-1.608-.103-2.158.164.611.389 1.527.43 1.751a29.777 29.777 0 0 1-1.882 9.143c-.552 1.506-1.248 2.585-1.984 3.38-.777.427-1.575.305-2.086.224-.266-.041-1.003-1.466-1.718-1.629-.716-.163-1.739-.021-2.414.101-1.227.224-1.473 1.181-2.414 1.528-1.37.509-3.129-1.324-3.825-2.138a8.967 8.967 0 0 1-.45-.876c-1.227-2.769-1.841-6.943-1.943-9.713.021 0 .082-.224.164-.529z" fill="url(#B)"/><path d="M41.593 37.014l-.184-.082c.532-1.181 1.33-2.118 2.496-2.891l.122.163c-1.166.773-1.922 1.669-2.434 2.81z"/><path d="M44.027 34.204l-.122-.163c.409-.265.736-.489 1.043-.672l.102.183a19.47 19.47 0 0 0-1.023.652zm13.746 1.262a5.16 5.16 0 0 0-1.105-1.201l.123-.163c.45.366.818.774 1.145 1.242l-.163.122zm-7.466 24.862c-1.227 0-2.414-.224-3.048-.468-1.309-.509-3.129-1.589-4.439-3.849-.163-.285-.306-.57-.45-.875-1.206-2.708-1.84-6.842-1.943-9.754h.205c.102 2.892.736 6.985 1.923 9.672.143.306.286.591.429.856 1.268 2.219 3.048 3.278 4.336 3.766 1.228.489 4.398.774 5.891-.203a10.354 10.354 0 0 0 2.046-1.69c.818-.896 1.452-1.996 1.963-3.36a29.342 29.342 0 0 0 1.862-9.102h.204a30.508 30.508 0 0 1-1.881 9.184c-.512 1.364-1.166 2.484-2.005 3.42-.736.815-1.493 1.344-2.086 1.731-.737.509-1.882.672-3.007.672z"/><path d="M40.509 44.995s-.02-.02-.02-.04c-.021-.041-.082-.122-.144-.224-.265-.469-.306-.631-.306-.693 0-.02-.369-2.484-.103-5.518.205-2.341 1.228-3.726 1.432-4.011.041-.285.307-1.507 1.289-2.382 1.268-1.12 4.111-2.281 5.666-2.688 1.575-.407 5.175-.143 5.932.142.593.224 3.559 1.955 3.743 2.586.082.285.041.571-.021.774a.683.683 0 0 1-.082.245c.491.407 2.169 1.975 2.353 4.398.204 2.728.163 5.457-.062 6.21-.122.387-.572.855-.818 1.1l-.102.101L59 44.69l.102-.102c.389-.346.655-.692.716-.916.184-.611.246-3.095.041-6.068-.184-2.586-2.291-4.174-2.311-4.194l-.143-.102.081-.163s.062-.122.103-.306c.041-.142.061-.366.02-.57-.102-.264-2.414-1.873-3.498-2.301-.613-.244-4.111-.529-5.666-.122-1.493.387-4.295 1.527-5.502 2.606-.982.876-1.166 2.159-1.166 2.179v.061l-.041.041c-.02.02-1.166 1.405-1.391 3.828-.265 2.993.103 5.396.103 5.416 0 .041.041.184.266.55.061.102.102.183.143.224l.02.02-.368.224z"/><path d="M54.909 35.038c-.164 0-.348-.02-.511-.081-1.187-.346-6.096-1.486-8.325-1.486-.368 0-.716.02-1.043.081l-.041-.204a6.323 6.323 0 0 1 1.084-.081c2.25 0 7.2 1.14 8.386 1.507 1.064.305 2.148-.611 2.189-.652l.143.143c-.061.04-.9.773-1.882.773zm-13.316 1.976l-.184-.062c.021-.061.041-.122.082-.183l.184.082c-.041.04-.061.101-.082.163zm-.491 6.475l-.204-.041c.122-.489.082-2.036.041-2.973 0-.305-.021-.55-.021-.692 0-.733.205-2.077.471-2.831l.184.062c-.266.712-.45 2.036-.45 2.748 0 .143 0 .387.02.693.041 1.018.082 2.525-.041 3.034z"/><path d="M40.909 43.431l.198.048-.461 1.921-.198-.047zm17.764.18l-.021-.041c-.204-.753-.184-2.891-.163-4.052v-.774c.02-.814.041-1.853-.757-3.278l.184-.102c.818 1.487.798 2.586.777 3.38v.794c-.02 1.059-.041 3.279.164 3.991l.02.041-.204.041z"/><path d="M59.102 45.362c0-.02-.245-1.059-.429-1.731l.204-.061c.184.672.43 1.731.43 1.751l-.205.041zm-9.122 5.905c-.185 0-.491-.02-.778-.102-.307-.081-.552-.224-.716-.407a1.132 1.132 0 0 1-.266-.896c.021-.163.062-.346.144-.529.041-.102.081-.224.163-.347.021-.04.082-.061.143-.04.041.02.062.081.041.142-.061.122-.102.224-.143.326a2.91 2.91 0 0 0-.123.489c-.04.305.041.549.205.733.143.142.348.264.614.346.327.102.654.102.818.102.143 0 .286-.021.429-.041.614-.081.962-.285 1.064-.591.041-.183.02-.386-.082-.651a14.06 14.06 0 0 1-.429-1.405c-.041-.143-.062-.265-.103-.387a12.1 12.1 0 0 1-.266-1.547c0-.062.041-.102.082-.123.062 0 .103.041.123.082 0 0 .061.651.266 1.527.02.122.061.244.082.387.122.468.266.936.429 1.384.123.306.143.571.082.795-.123.407-.532.651-1.227.733-.143.02-.287.02-.45.04-.021-.02-.062-.02-.102-.02zm.715 3.054c-.245 0-.511 0-.797-.04a125.934 125.934 0 0 1-3.212-.306l-.225-.02c-.061 0-.102-.061-.081-.122 0-.062.061-.102.122-.082l.225.02c.328.041 1.33.163 3.191.306 1.637.142 2.741-.183 3.232-.387.286-.122.43-.204.43-.204.04-.04.102-.02.143.021.041.041.02.102-.021.142 0 0-.163.102-.47.224-.532.224-1.371.448-2.537.448z"/><path d="M50.102 50.575h-.143c-.757-.021-.941-.326-.941-.346l-.204-.306.041-.02s.102.183.204.305c0 0 .184.306.9.326.736.02 1.166-.102 1.207-.326.041-.224-.061-.631-.184-.916-.327-.794-.368-1.568-.307-2.79h.041c-.061 1.222-.021 1.975.307 2.769.102.224.245.672.184.937-.041.224-.43.367-1.105.367z"/><path d="M51.027 50.376l.052.031-.421.698-.052-.031zm-.444.122l.052.031-.421.699-.052-.031zm-.352.038l.052.032-.42.698-.053-.031zm-.402-.026l.052.032-.379.628-.053-.031zm-.354-.04l.052.032-.378.628-.053-.031zm-.307-.123l.053.031-.347.576-.053-.031zm-.262-.304l.052.032-.347.576-.053-.031zm2.7-.188l.054.031-.685 1.182-.053-.031zm-1.688 5.321c-.982 0-1.841-.285-1.861-.285-.021 0-.041-.04-.041-.061 0-.02.041-.04.061-.04.021 0 1.043.346 2.148.264 1.084-.081 1.636-.102 2.414-.549.02-.021.061 0 .061.02.02.02 0 .061-.02.061-.798.468-1.35.489-2.455.57-.082.02-.205.02-.307.02zm2.455 1.833c-.021 0-.021 0-.041-.02-.102-.082-.184-.184-.287-.245l-.102-.081c-.388-.346-2.148-.367-2.782-.265-.02 0-.061-.02-.061-.041 0-.02.02-.061.041-.061.634-.101 2.454-.101 2.864.285l.102.082c.082.081.184.163.266.244.02.021.02.041 0 .082.02 0 .02.02 0 .02z"/><path d="M51.902 56.541c-.02 0-.02 0 0 0-1.247-.794-1.922-.448-1.943-.428h-.041v-.041c.021-.02.716-.386 1.984.428.021 0 .021.02 0 .041z"/><path d="M52.005 56.643c-.021 0-.021 0 0 0-1.391-.795-2.721-.571-2.741-.571-.021 0-.021 0-.021-.02s0-.02.021-.02c.02 0 1.37-.245 2.761.57.02 0 .02.02 0 .041 0-.021-.02 0-.02 0zm-1.698-1.467c-.777 0-1.596-.183-1.596-.183-.02 0-.02-.02-.02-.041 0-.02.02-.02.041-.02.02 0 1.513.346 2.332.102.838-.244 1.391-.428 1.411-.428.02 0 .02 0 .041.021 0 .02 0 .02-.021.04 0 0-.572.184-1.411.428a4.315 4.315 0 0 1-.777.081zm-4.377-.814c-.021 0-.021 0-.041-.02a.061.061 0 0 1 0-.082c.184-.183.491-.387.961-.387.184 0 .839.061 1.534.122.798.082 1.718.163 1.964.163.961-.02 2.802-.468 3.129-.549.389-.102.512.04.859.549.021.021 0 .061-.02.061-.021.021-.061 0-.061-.02-.348-.529-.43-.611-.737-.509-.327.102-2.188.529-3.15.57-.245 0-1.125-.081-1.963-.163-.696-.061-1.35-.122-1.535-.122-.45 0-.715.183-.879.346-.041.041-.041.041-.061.041z"/><path d="M50.532 54.179c-.941 0-2.925-.184-3.58-.285-.654-.102-.716-.204-.736-.224 0-.021 0-.021.02-.041h.041s.082.102.696.183c.695.102 2.884.306 3.722.285.86-.02 2.66-.488 2.823-.549.184-.082.43-.204.43-.204.02 0 .02 0 .041.02 0 .021 0 .021-.021.041 0 0-.266.122-.429.204-.164.081-1.984.529-2.844.57h-.163zm-9.307-12.197c-.02 0-.02-.02-.02-.02s-.041-.957.04-2.81c.103-1.853 1.535-4.073 1.555-4.093 0-.021.02-.021.041 0 .02.02.02.02 0 .041-.021.02-1.452 2.239-1.555 4.072-.102 1.853-.061 2.79-.041 2.79 0 .02 0 .02-.02.02z"/><path d="M40.939 40.353c-.021-.02-.021-.041-.021-.041l.921-.977c0-.021.02-.021.041 0 .02 0 .02.02 0 .041l-.941.977c.02 0 .02 0 0 0zm9.163 10.262a1.795 1.795 0 0 1-1.084-.366l.062-.082s.572.448 1.329.306c.327-.061.573-.122.675-.306.123-.183.082-.529-.102-1.181-.348-1.201-.246-3.217-.246-3.237h.103c0 .02-.123 2.016.225 3.217.204.692.225 1.039.081 1.263-.122.203-.368.285-.736.346-.102.02-.204.04-.307.04zm-8.591-3.828c-.634-.936-.716-2.239-.716-2.26h.041c0 .021.082 1.303.716 2.22l-.041.04z"/><path d="M49.448 60.104c-.45 0-.859-.02-1.146-.102-1.022-.264-3.825-1.832-4.561-2.932-.777-1.181-1.616-3.522-2.005-4.785-.409-1.385-1.084-7.269-1.104-7.33 0-.021 0-.021.02-.021.021 0 .021 0 .021.021 0 .061.695 5.945 1.104 7.33.45 1.527 1.309 3.726 1.984 4.785.737 1.1 3.519 2.647 4.541 2.912.982.265 3.314-.041 4.091-.122 1.043-.122 1.882-1.018 2.537-1.751.265-.285.49-.53.695-.693.511-.407 1.555-3.156 2.127-4.622.143-.366.246-.651.328-.814.265-.632.552-3.014.756-4.602.062-.55.123-.998.164-1.202.123-.753.061-1.384.041-1.384 0-.021 0-.021.02-.021.021 0 .021 0 .021.021 0 0 .082.651-.062 1.405-.04.203-.081.631-.163 1.201-.205 1.588-.491 3.971-.757 4.622-.061.163-.184.448-.327.815-.573 1.486-1.616 4.235-2.148 4.642-.205.163-.43.408-.695.693-.675.733-1.514 1.629-2.578 1.751-.491.02-1.82.183-2.904.183z"/><path d="M50.614 59.778c-1.473 0-2.639-.203-2.639-.203-.02 0-.041-.041-.041-.061 0-.021.041-.041.061-.041.021 0 2.066.366 4.214.122 2.291-.265 3.13-2.24 3.13-2.26.02-.021.041-.041.061-.021.02.021.041.041.02.062 0 .02-.859 2.056-3.211 2.321-.552.041-1.084.081-1.595.081zm-7.753-5.273s-.02 0-.02-.021c-.9-2.179-1.759-4.357-1.78-4.378 0-.02 0-.02.021-.04.02 0 .02 0 .041.02 0 .02.859 2.199 1.779 4.378-.02.02-.02.041-.041.041zm14.216-1.263c-.02-.02-.02-.02-.02-.041.757-1.303 1.923-5.558 1.943-5.599 0-.021.02-.021.041-.021.02 0 .02.021.02.041-.02.041-1.186 4.297-1.943 5.6-.02.02-.041.02-.041.02z"/><path d="M40.959 43.55s.205-1.364.941-2.138c0 0-.491.122-1.064.896" fill="#1E1E32"/><path d="M41 42.756s.205-1.365.941-2.138c0 0-.491.122-1.064.896" fill="#1E1E32"/><path d="M40.898 41.982s.204-1.364.941-2.138c0 0-.491.122-1.064.896" fill="#1E1E32"/><path d="M40.939 42.41s.204-1.365.941-2.139c0 0-.491.123-1.064.896" fill="#1E1E32"/><path d="M40.898 41.493s.204-1.364.941-2.138c0 0-.491.122-1.064.896" fill="#1E1E32"/><path d="M40.611 41.33s.205-1.364.941-2.138c0 0-.491.122-1.063.896m.531 3.075s.205-1.364.941-2.138c0 0-.491.122-1.063.896" fill="#1E1E32"/><path d="M58.877 43.55s-.204-1.364-.941-2.138c0 0 .491.122 1.064.896" fill="#323246"/><path d="M58.836 42.756s-.204-1.365-.941-2.138c0 0 .491.122 1.064.896" fill="#323246"/><path d="M58.877 41.982s-.204-1.364-.941-2.138c0 0 .491.122 1.064.896" fill="#323246"/><path d="M58.877 42.41s-.204-1.365-.941-2.139c0 0 .491.123 1.064.896" fill="#323246"/><path d="M58.877 41.473s-.204-1.364-.941-2.138c0 0 .491.122 1.064.896" fill="#323246"/><path d="M59.041 41.249s-.205-1.364-.941-2.138c0 0 .491.122 1.064.896m-.348 3.156s-.205-1.364-.941-2.138c0 0 .491.122 1.064.896" fill="#323246"/><path d="M56.259 43.102s1.105-.082 1.493 1.14c.43 1.324-1.391 1.548-1.391 1.548s-.429-.978-1.841-1.283c-1.575-.326-2.454.244-2.556.346-.103.102-.328.224-.512.57 0 0-.122-.652.041-.855 1.391-1.833 4.766-1.466 4.766-1.466z" fill="url(#C)" opacity=".3"/><path d="M43.107 42.348s-.818.102-1.227 1.304c-.43 1.323 1.615 2.138 1.615 2.138s.43-.978 1.841-1.283c1.575-.326 2.455.244 2.557.346.102.102.205.224.45.387 0 0 .737-1.12.614-2.036-.123-.937-5.85-.856-5.85-.856z" fill="url(#D)"/><path d="M48.18 42.063c1.227.57.409 2.057.409 2.057-4.623-2.668-6.73-1.385-6.812-1.344.021-.061.409-.998 1.453-1.262 1.452-.408 3.763-.021 4.95.549z" fill="url(#E)"/><path d="M41.839 42.837l-.144-.142zm6.77 1.405l-.082-.061c-4.541-2.606-6.607-1.385-6.709-1.344l-.266.163.103-.285c0-.02.409-1.039 1.513-1.324 1.432-.386 3.805-.02 5.012.571.347.162.572.407.675.712.225.672-.205 1.446-.225 1.466l-.021.102zm-5.175-1.934h.041c1.452.02 3.15.57 5.052 1.649.103-.224.307-.753.164-1.222a.93.93 0 0 0-.552-.59c-1.187-.55-3.478-.916-4.869-.55a2.112 2.112 0 0 0-1.247.957c.245-.102.736-.244 1.411-.244z"/><path d="M45.03 42.674s-.225-.57-.9-.692l.02-.102c.716.143.961.733.961.753l-.081.041z"/><path d="M44.641 42.593s-.307-.509-.982-.591l.021-.102c.715.082 1.043.611 1.063.632l-.102.061zm-.552-.102s-.45-.387-.982-.407v-.102c.552.02 1.023.407 1.043.428l-.061.081zm-.737-.041s-.327-.305-.757-.203l-.02-.102c.47-.102.839.224.859.224l-.082.081zm5.441 1.792l-.082-.061s.328-.448.369-1.1h.102c-.041.693-.389 1.141-.389 1.161zm-.307-.183l-.102-.041c0-.02.409-1.079.082-2.138l.102-.02c.348 1.099-.082 2.199-.082 2.199z"/><path d="M48.2 43.957l-.102-.041s.368-1.038.143-2.036l.102-.02c.225 1.018-.143 2.077-.143 2.097zm-.266-.183l-.102-.041s.266-.57.163-1.385l.103-.02c.102.855-.164 1.425-.164 1.446zm-.245-.184l-.082-.04s.245-.509.123-1.242l.102-.021c.123.774-.143 1.283-.143 1.303zm-.266-.142l-.082-.041s.164-.285.082-.835l.102-.02c.082.57-.082.876-.102.896zm-.287-.143l-.102-.02s.123-.428.041-.733l.102-.02c.103.305-.041.753-.041.773zm-.266-.122l-.102-.02s.102-.346-.082-.611l.082-.061c.205.285.102.672.102.692zm1.637.998c-.021-.02-2.966-1.507-4.541-1.507h-.061c-1.555.041-1.923.306-1.923.306l-.041-.041c.02-.02.368-.265 1.964-.306.818-.02 2.045.387 2.925.754.94.387 1.697.774 1.718.774l-.041.02z"/><path d="M41.859 43.692l-.041-.02c.266-.794.716-1.079 1.043-1.201.369-.123.655-.041.675-.041l-.02.041s-.286-.061-.634.04c-.471.163-.818.57-1.023 1.181z"/><path d="M43.925 45.199s.184.896 1.432 1.018c1.268.122 1.698.021 2.127-.59.409-.611-.102-1.018-.511-1.161-.43-.142-2.578-.428-3.048.733z" fill="url(#F)"/><path d="M46.625 44.242s1.677.306 1.636.998c-.02.305-.47.774-.47.774s-.818.977-2.393 1.71c0 0 .082-.265.654-.794.348-.326 1.596-.855 1.637-1.588.02-.652-1.064-1.1-1.064-1.1z" fill="url(#G)" opacity=".5"/><path d="M46.461 43.428s-.941-.489-2.884.468c-.961.468-.204 1.833-.204 1.833s.245-1.039 1.616-1.243c1.554-.244 2.536.306 2.638.408.348.407.287.835.103 1.12 0 0 .593-.143.634-1.12 0-.978-1.903-1.466-1.903-1.466z" fill="url(#H)" opacity=".4"/><path d="M48.261 45.403c.144-.306.062-.754.062-.754s-.634-1.221-2.741-1.303c-2.332-.081-2.271 2.281-2.271 2.281 2.046-2.159 4.275-.937 4.664-.652.02 0 .205.224.286.428z" fill="url(#I)" opacity=".8"/><path d="M45.786 46.176a.839.839 0 0 1-.634-.285.96.96 0 0 1-.245-.651.884.884 0 0 1 .9-.855h.041c.245 0 .47.101.634.285a.96.96 0 0 1 .245.651.884.884 0 0 1-.9.855h-.041z" fill="url(#J)"/><path d="M45.807 44.486h.02c.205 0 .409.102.553.245a.758.758 0 0 1 .204.57.806.806 0 0 1-.798.774h-.02a.81.81 0 0 1-.552-.245.758.758 0 0 1-.205-.57.793.793 0 0 1 .798-.774m0-.203c-.532 0-.982.427-1.002.957a1 1 0 0 0 .961 1.038h.041c.532 0 .982-.427 1.002-.957a1 1 0 0 0-.961-1.038h-.041z"/><path d="M43.414 45.79c-.021 0-.041 0-.062-.021-.082-.04-.102-.122-.061-.203.02-.041.654-1.202 2.352-1.304 2.148-.142 2.639.978 2.659 1.019.041.081 0 .162-.082.203-.081.041-.163 0-.204-.081-.021-.041-.45-.957-2.352-.835-1.534.102-2.107 1.14-2.107 1.14-.021.061-.082.082-.143.082z"/><path d="M46.236 45.281a.408.408 0 1 1-.817-.003.408.408 0 0 1 .817.003z"/><path d="M46.257 45.036a.204.204 0 0 1-.409 0 .204.204 0 1 1 .409 0z" fill="#FFF"/><path d="M48.261 45.342c-.02 0-.02-.021-.02-.041.123-.407 0-.774-.061-.815 0 0-.471-.549-1.289-.875-.757-.306-2.005-.468-3.58.448h-.041v-.041c1.596-.916 2.864-.753 3.641-.448.839.326 1.309.876 1.309.876.103.081.205.468.062.875 0 0 0 .021-.021.021z"/><path d="M43.209 45.525h-.041c-.041-.02-.061-.061-.041-.102.532-1.018 1.657-1.323 1.984-1.385 1.596-.305 2.946.835 3.007.876.041.02.041.081 0 .102-.02.041-.082.041-.102 0-.021-.021-1.35-1.14-2.864-.855-.307.061-1.37.346-1.882 1.303-.02.041-.04.061-.061.061zm4.998-.059l.04.045-.94.847-.041-.044z"/><path d="M48.485 44.108l.074.071-.792.824-.074-.071zm-.16-.152l.075.069-.709.762-.075-.069zm-.241-.091l.076.068-.683.757-.076-.067zm-.357.155l.044.042-.495.515-.044-.042zm-.195-.121l.045.042-.447.475-.045-.041zm-.208-.132l.03.028-.485.524-.03-.028zm-.232-.117l.028.029-.508.501-.029-.029zm-.288-.13l.027.03-.672.596-.027-.031zm-.456-.122l.042.044-.699.658-.042-.044zm-.368-.06l.042.045-.856.788-.042-.045zm-.472-.011l.027.03-1.05.91-.027-.031z"/><path d="M47.689 46.156l-.062-.081s.634-.448.593-.815c-.04-.366-.634-.509-.654-.529l.02-.102c.021 0 .675.183.716.611.062.448-.593.896-.613.916z"/><path d="M45.95 46.421h-.041c-1.309-.041-1.677-.407-1.677-.407a.099.099 0 0 1 0-.143.099.099 0 0 1 .143 0s.327.326 1.534.346c.614.021 1.227-.326 1.452-.59.164-.204.225-.387.184-.55-.102-.306-.654-.489-.859-.529-.061-.021-.081-.062-.081-.123.02-.061.061-.081.122-.081.041 0 .839.183 1.003.672.081.224 0 .489-.205.753-.266.306-.941.652-1.575.652z"/><path d="M45.807 46.645c-.471 0-.798-.122-.818-.122l.041-.102c.02 0 1.165.387 2.147-.306.348-.244.532-.509.573-.773.041-.326-.143-.571-.143-.571l.082-.061c0 .021.225.285.163.652-.041.305-.245.59-.613.855-.491.346-1.003.428-1.432.428z"/><path d="M47.136 46.034c-.041 0-.061-.02-.081-.041-.041-.041-.021-.102.02-.142.205-.143.327-.346.327-.53 0-.163-.082-.326-.266-.448-.613-.427-1.718-.366-1.718-.366-.061 0-.102-.041-.102-.102 0-.061.041-.102.102-.102.041 0 1.187-.081 1.862.387.225.163.347.387.347.611 0 .265-.163.529-.409.692-.041.041-.061.041-.082.041z"/><g><path d="M55.83 45.199s-.185.896-1.432 1.018c-1.268.122-1.698.021-2.128-.59-.409-.611.103-1.018.512-1.161.429-.142 2.577-.428 3.048.733z" fill="url(#K)"/><path d="M53.13 44.242s-1.678.306-1.637.998c.021.305.471.774.471.774s.818.977 2.393 1.71c0 0-.082-.265-.655-.794-.347-.326-1.595-.855-1.636-1.588-.041-.652 1.064-1.1 1.064-1.1z" fill="url(#L)" opacity=".5"/><path d="M53.273 43.428s.941-.489 2.884.468c.961.468.204 1.833.204 1.833s-.245-1.039-1.616-1.243c-1.554-.244-2.536.306-2.638.408-.348.407-.287.835-.102 1.12 0 0-.675-.306-.635-1.12.082-.978 1.903-1.466 1.903-1.466z" fill="url(#M)" opacity=".4"/><path d="M51.473 45.403c-.143-.306-.062-.754-.062-.754s.634-1.221 2.741-1.303c2.332-.081 2.271 2.281 2.271 2.281-2.046-2.159-4.275-.937-4.664-.652 0 0-.184.224-.286.428z" fill="url(#N)" opacity=".8"/><path d="M53.927 46.176a.898.898 0 0 1-.9-.855c0-.244.082-.468.246-.651a.836.836 0 0 1 .634-.285h.041c.491 0 .879.386.9.855a.955.955 0 0 1-.246.651.836.836 0 0 1-.634.285h-.041z" fill="url(#O)"/><path d="M53.927 44.486c.43 0 .778.347.798.774a.847.847 0 0 1-.205.57.73.73 0 0 1-.552.245h-.02a.806.806 0 0 1-.798-.774.784.784 0 0 1 .777-.815m0-.203h-.041c-.552.02-.981.488-.961 1.038.02.53.47.957 1.002.957h.041c.552-.02.982-.488.962-1.038a.994.994 0 0 0-1.003-.957z"/><path d="M56.32 45.79c-.061 0-.102-.021-.143-.082-.02-.041-.572-1.038-2.107-1.14-1.922-.122-2.352.814-2.352.835-.041.081-.123.122-.204.081-.082-.041-.123-.122-.082-.203.02-.041.511-1.161 2.659-1.019 1.718.102 2.332 1.263 2.352 1.304.041.081 0 .163-.061.203-.021.021-.041.021-.062.021z"/><path d="M54.336 45.281a.408.408 0 1 1-.817-.003.408.408 0 0 1 .817.003z"/><path d="M54.357 45.036a.204.204 0 0 1-.409 0 .204.204 0 1 1 .409 0z" fill="#FFF"/><path d="M51.473 45.505c-.021 0-.041-.021-.041-.041-.205-.448-.021-.876.123-1.059.02-.02 1.84-2.199 4.929-.428.021.021.041.041.021.061-.021.021-.041.041-.062.021-1.575-.896-2.802-.733-3.538-.448-.819.326-1.248.855-1.248.855a.97.97 0 0 0-.102.957.164.164 0 0 1-.082.082c.02 0 .02 0 0 0z"/><path d="M56.525 45.464c-.02 0-.041 0-.041-.021-.45-.712-1.166-1.14-2.086-1.262-1.841-.224-2.68.814-2.7.814-.021.021-.041.021-.082 0-.021-.02-.021-.04 0-.081 0-.02.879-1.079 2.782-.855.961.122 1.697.57 2.168 1.303.02.02 0 .061-.021.061 0 .02 0 .041-.02.041z"/><path d="M52.97 43.563l.031.026-1.523 1.812-.031-.026z"/><path d="M52.086 46.156h-.02c-.021-.02-.716-.468-.675-.896.041-.427.736-.611.757-.611.02 0 .061 0 .061.041 0 .02 0 .061-.041.061 0 0-.654.163-.695.53-.041.366.634.794.634.794.02.02.02.04.02.061-.02.02-.02.02-.041.02z"/><path d="M53.784 46.421c-.634 0-1.309-.346-1.575-.652-.225-.264-.286-.529-.204-.753.163-.489.961-.652 1.002-.672.061-.02.102.02.123.081.02.061-.021.102-.082.123-.205.04-.737.223-.859.529-.062.163 0 .346.184.55.204.244.818.59 1.452.59 1.207-.02 1.534-.346 1.534-.346a.099.099 0 0 1 .143 0 .099.099 0 0 1 0 .143c-.02.02-.368.386-1.677.407h-.041z"/><path d="M53.927 46.645c-.409 0-.941-.082-1.432-.428-.368-.244-.572-.529-.613-.855-.062-.387.163-.652.163-.652l.082.061s-.184.245-.143.591c.041.285.225.55.573.774.982.692 2.148.305 2.148.305l.04.102c-.02 0-.347.102-.818.102z"/><path d="M52.618 46.034c-.02 0-.041 0-.061-.02-.266-.184-.409-.448-.409-.693 0-.244.122-.448.347-.611.655-.468 1.8-.407 1.862-.386.061 0 .102.061.102.101 0 .061-.041.102-.102.102-.021 0-1.125-.061-1.718.367-.164.122-.266.285-.266.448 0 .203.122.387.327.529.041.041.061.102.02.143-.04.02-.081.02-.102.02zm-.395-2.253l.031.026-.825.959-.031-.026zm.41-.177l.047.039-1.243 1.461-.047-.04z"/><path d="M53.367 43.52l.048.038-1.763 2.194-.048-.038zm.355.036l.048.039-.805 1.002-.048-.038zm.437-.061l.048.038-.805 1.001-.048-.038zm.465-.045l.048.038-.806 1.002-.048-.038zm-.01.505l.048.038-.37.461-.049-.038zm.285.076l.048.038-.371.461-.048-.038z"/></g><path d="M58.407 38.968h-.102c.04-.753 0-1.445-.123-2.036-.307-1.486-1.637-2.606-1.657-2.627l.061-.081c.021.02 1.391 1.14 1.698 2.667.123.611.164 1.304.123 2.077z"/><path d="M54.786 35.161a3.11 3.11 0 0 1-1.206-.245c-1.35-.611-8.203-1.486-8.264-1.486l.02-.102c.287.041 6.934.896 8.305 1.507 1.37.611 2.925-.082 3.293-.53.348-.427.696-1.649.491-1.975-.205-.325-2.455-1.934-3.252-2.219-.778-.265-3.253-.489-3.293-.489v-.102c.102 0 2.515.204 3.313.489.777.265 3.048 1.873 3.293 2.26.246.367-.143 1.67-.491 2.098-.327.366-1.227.794-2.209.794z"/><path d="M55.155 34.876c-.389 0-.819-.102-1.228-.306-1.145-.529-7.752-1.283-7.834-1.283l.021-.101c.266.02 6.709.753 7.854 1.303 1.105.509 2.168.325 2.782-.509.368-.509.695-1.1.286-1.65-.491-.631-3.538-2.952-6.729-2.687v-.102c3.232-.285 6.32 2.097 6.811 2.708.471.59.123 1.222-.286 1.771a1.998 1.998 0 0 1-1.677.856zm4.929 4.316c0-.02-.245-1.099-1.043-2.28-.961-1.426-1.861-2.22-1.882-2.22l.143-.163s.921.815 1.903 2.261c.818 1.201 1.063 2.3 1.063 2.341l-.184.061z"/><path d="M60.289 38.948h-.103s.021-.713-1.084-2.627c-.92-1.588-2.25-2.301-2.27-2.301l.041-.081c.02 0 1.37.713 2.311 2.342 1.146 1.934 1.125 2.626 1.105 2.667zm-.266.896a7.293 7.293 0 0 0-1.453-2.281l.082-.081s.941.937 1.473 2.321l-.102.041zm-.205-3.36c-.368-1.425-2.577-2.912-2.598-2.932l.062-.081c.102.061 2.27 1.527 2.638 2.972l-.102.041zm.287 4.439c-.573-1.466-1.514-2.138-1.514-2.158l.061-.082s.982.713 1.555 2.199l-.102.041zm0 2.016c-.185-2.321-1.555-3.543-1.575-3.563l.061-.082c.02.02 1.432 1.263 1.595 3.625l-.081.02z"/><path d="M60.023 43.102c-.655-1.792-1.514-2.362-1.514-2.362l.061-.082c.041.021.9.591 1.555 2.423l-.102.021zm-3.007-9.367l-.102-.04c.184-.469.163-.937-.082-1.365-.614-1.059-2.557-1.893-5.339-2.301-3.375-.509-6.136 1.466-6.157 1.487l-.061-.082c.02-.02 2.843-2.015 6.239-1.506 2.802.407 4.786 1.282 5.4 2.362.286.448.306.936.102 1.445z"/><path d="M56.402 34.407l-.082-.061c.328-.57.41-1.059.205-1.547-.389-.917-1.8-1.711-4.234-2.342-4.275-1.1-6.955 1.975-6.996 1.995l-.081-.061c.02-.04 2.761-3.156 7.097-2.036 2.455.631 3.907 1.446 4.296 2.403.225.509.143 1.059-.205 1.649z"/><path d="M54.827 35.038v-.203c.45 0 1.35-.591 1.493-1.202.144-.61-.163-1.771-3.743-2.83-3.538-1.038-7.322 1.853-7.363 1.873l-.123-.162c.041-.021 3.907-2.994 7.548-1.914 3.743 1.099 4.05 2.402 3.886 3.074-.143.672-1.125 1.364-1.698 1.364z"/><path d="M55.318 34.713c-.879 0-2.025-.346-3.579-.835l-.328-.102c-2.802-.855-6.259-.265-6.3-.265l-.041-.203c.041 0 3.539-.611 6.382.264l.328.102c2.597.794 4.029 1.242 4.909.245l.163.142c-.388.468-.879.652-1.534.652zm-13.663.061l-.185-.082c.021-.04.491-1.12 1.248-1.954 1.125-1.263 2.455-1.589 2.516-1.589l.041.204c-.02 0-1.309.305-2.393 1.527-.757.815-1.227 1.873-1.227 1.894z"/><path d="M42.064 34.896h-.103c0-.02 0-.733.819-1.894.818-1.16 2.331-1.344 2.352-1.344l.02.102c-.02 0-1.493.183-2.291 1.303-.797 1.12-.797 1.833-.797 1.833z"/><path d="M42.166 34.977l-.102-.02c0-.02.306-2.118 2.25-2.728l.041.101c-1.903.611-2.189 2.627-2.189 2.647z"/><path d="M40.182 37.726l-.102-.04c.981-2.973 4.336-3.93 4.356-3.93l.021.101c-.021.021-3.314.957-4.275 3.869z"/><path d="M40.182 37.869l-.102-.041c.777-1.894 3.006-3.034 3.027-3.054l.041.081c-.021.041-2.189 1.161-2.966 3.014z"/><path d="M40.1 39.029l-.102-.04c.654-1.813 1.82-2.729 1.82-2.729l.062.082s-1.146.896-1.78 2.687zm-.082 1.039l-.102-.041c.409-.896 1.166-1.67 1.166-1.67l.082.062s-.737.773-1.146 1.649zm.082.468l-.082-.061c.532-.875.982-1.12 1.002-1.12l.041.082c.021.02-.429.244-.961 1.099zm.041 3.095l-.102-.02c.266-1.201 1.002-2.159 1.022-2.159l.082.062c0 .02-.736.936-1.002 2.117zm-.123-.733l-.102-.041c.348-.834.961-1.751.982-1.751l.082.061s-.614.896-.962 1.731zm8.723 1.26l.073.071-1.022 1.028-.072-.072zm.026.249l.044.042-1.033 1.046-.043-.043zm-.057.316l.043.043-1.235 1.189-.043-.043zm-.06.393l.043.042-.943.934-.043-.043zm.225 18.103c-.02 0-.041-.02-.041-.04-.245-.631-.204-2.077-.123-2.322.082-.264 1.453-.59 1.719-.651.02 0 .061.02.061.041 0 .02-.021.061-.041.061-.777.163-1.616.427-1.657.57-.061.224-.102 1.649.123 2.26.02.041 0 .061-.041.081z"/><path d="M48.282 60.919c-.021 0-.041-.021-.041-.041 0-.021.02-.061.041-.061 1.554-.204 1.841-.285 2.536-.489.184-.061.368-.122.634-.183.021 0 .062 0 .062.041 0 .02 0 .061-.041.061-.246.081-.45.142-.634.183-.675.203-.982.285-2.557.489z"/><path d="M47.361 60.837c-.02 0-.041-.02-.041-.041 0-.02.021-.061.041-.061 1.944-.102 4.95-.835 4.971-.835.02 0 .061 0 .061.041 0 .021 0 .061-.041.061-.02.021-3.027.754-4.991.835z"/><path d="M49.243 60.43c-1.125 0-1.759-.285-3.007-.896-1.738-.855-3.068-2.993-3.068-3.014-.02-.02 0-.061.021-.061.02-.02.061 0 .061.021.02.02 1.33 2.158 3.027 2.993 1.739.855 2.291 1.059 4.705.733 2.516-.346 3.62-1.242 4.663-2.668.021-.02.041-.02.062-.02.02.02.02.041.02.061-1.063 1.466-2.188 2.362-4.745 2.729-.696.081-1.268.122-1.739.122zm-2.925-13.826l-.02-.102c1.636-.346 1.779-1.303 1.779-1.323l.103.02c0 .041-.144 1.059-1.862 1.405z"/><g><path d="M56.975 42.857c1.411 1.243 1.309 2.362 1.309 2.362s-.777-1.405-2.802-1.669c-2.025-.285-4.418.529-4.418.529s-.45-1.303.736-1.873c1.084-.55 3.764-.611 5.175.651z" fill="url(#P)"/><path d="M58.345 45.545l-.163-.285c0-.02-.777-1.344-2.721-1.629-1.984-.264-4.356.53-4.377.53l-.102.04-.041-.101c0-.021-.471-1.385.777-1.996 1.166-.57 3.866-.59 5.298.672s1.35 2.403 1.35 2.443l-.021.326zm-3.763-2.158c.307 0 .613.02.9.061 1.473.204 2.291.957 2.659 1.405-.082-.407-.368-1.14-1.248-1.914-1.309-1.161-3.948-1.181-5.073-.631-.92.448-.777 1.364-.695 1.649.409-.143 1.923-.57 3.457-.57z"/><path d="M55.809 43.652l-.061-.082c.02-.02.429-.244 1.309-.041l-.021.102c-.838-.203-1.227.021-1.227.021zm1.575.264c-.491-.183-.839-.081-.839-.081l-.02-.102c.02 0 .389-.102.9.081l-.041.102zm.307.326c-.389-.204-.696-.142-.696-.142l-.02-.102c.02 0 .348-.061.757.163l-.041.081zm-6.525-.224c0-.02-.123-.55.02-.957l.103.041c-.123.387-.021.896-.021.896l-.102.02zm.204-.122c0-.02-.143-.631.185-1.446 0-.02.02-.061.081-.061.021 0 .041 0 .041.041.082-.163.184-.367.287-.55l.081.061c-.225.346-.409.835-.409.835l-.102-.02c-.204.651-.102 1.099-.082 1.12l-.082.02zm.287 0s-.041-1.018.613-2.057l.082.061c-.634 1.019-.593 1.996-.593 2.016l-.102-.02zm.368-.102h-.102s.061-.916.634-2.056l.082.04c-.553 1.1-.614 1.996-.614 2.016zm.307-.102h-.102s.081-.977.675-2.077l.081.041c-.572 1.079-.654 2.036-.654 2.036zm.348-.061h-.103c0-.02.021-.488.409-1.405l.103.041c-.369.896-.409 1.364-.409 1.364z"/><path d="M51.002 44.059c0-.021-.225-.672.021-1.527l.102.02c-.225.835-.02 1.466-.02 1.466l-.103.041zm-.163.142c0-.02-.205-.468-.123-1.079l.102.021c-.061.59.123 1.018.123 1.038l-.102.02zm3.15-.672l-.041-.081c.041-.02.838-.468 2.025-.387v.102c-1.166-.102-1.964.346-1.984.366zm4.009 1.874s-.103-.53-1.309-1.242c-.859-.509-2.25-.509-3.294-.428-1.125.081-2.045.305-2.065.305l-.021-.04s.941-.204 2.066-.306c1.882-.142 2.843.163 3.314.448 1.227.733 1.329 1.242 1.329 1.283l-.02-.02z"/></g></svg>