<svg height="512" viewBox="0 0 512 512" width="512" xmlns="http://www.w3.org/2000/svg" xmlns:xlink="http://www.w3.org/1999/xlink"><linearGradient id="a" gradientUnits="userSpaceOnUse" x1="256.195" x2="256.195" y1="383.079" y2="510.041"><stop offset="0" stop-color="#28283c"/><stop offset="1" stop-color="#0a0a1e"/></linearGradient><linearGradient id="b"><stop offset="0" stop-color="#dcaf91"/><stop offset="1" stop-color="#be9173"/></linearGradient><linearGradient id="c" gradientUnits="userSpaceOnUse" x1="153.403" x2="235.145" xlink:href="#b" y1="392.328" y2="392.328"/><linearGradient id="d"><stop offset="0" stop-color="#f0c3a5"/><stop offset="1" stop-color="#dcaf91"/></linearGradient><linearGradient id="e" gradientUnits="userSpaceOnUse" x1="285.473" x2="285.473" xlink:href="#d" y1="433.165" y2="398.964"/><linearGradient id="f"><stop offset="0" stop-color="#ffe6c8"/><stop offset="1" stop-color="#e6b99b"/></linearGradient><linearGradient id="g" gradientUnits="userSpaceOnUse" x1="147.486" x2="147.486" xlink:href="#f" y1="226.126" y2="263.802"/><linearGradient id="h"><stop offset="0" stop-color="#ebd2b4"/><stop offset="1" stop-color="#96694b"/></linearGradient><linearGradient id="i" gradientUnits="userSpaceOnUse" x1="148.871" x2="148.871" xlink:href="#h" y1="277.54" y2="231.33"/><linearGradient id="j" gradientUnits="userSpaceOnUse" x1="138.237" x2="138.237" xlink:href="#f" y1="226.921" y2="280.464"/><linearGradient id="k" gradientUnits="userSpaceOnUse" x1="147.255" x2="147.255" xlink:href="#d" y1="291.948" y2="230.883"/><linearGradient id="l" gradientUnits="userSpaceOnUse" x1="361.247" x2="361.247" xlink:href="#d" y1="291.948" y2="230.883"/><linearGradient id="m" gradientUnits="userSpaceOnUse" x1="359.628" x2="359.628" xlink:href="#h" y1="277.54" y2="231.33"/><linearGradient id="n" gradientUnits="userSpaceOnUse" x1="361.015" x2="361.015" xlink:href="#f" y1="226.126" y2="263.802"/><linearGradient id="o" gradientUnits="userSpaceOnUse" x1="370.263" x2="370.263" xlink:href="#f" y1="226.921" y2="280.464"/><linearGradient id="p"><stop offset="0" stop-color="#505064"/><stop offset="1" stop-color="#323246"/></linearGradient><linearGradient id="q" gradientUnits="userSpaceOnUse" x1="352.512" x2="352.512" xlink:href="#p" y1="87.698" y2="167.759"/><linearGradient id="r" gradientUnits="userSpaceOnUse" x1="353.544" x2="353.544" xlink:href="#p" y1="46.586" y2="154.268"/><linearGradient id="s" gradientUnits="userSpaceOnUse" x1="255.179" x2="255.179" xlink:href="#f" y1="93.815" y2="348.774"/><linearGradient id="t"><stop offset="0" stop-color="#3c3c50"/><stop offset="1" stop-color="#1e1e32"/></linearGradient><linearGradient id="u" gradientUnits="userSpaceOnUse" x1="338.592" x2="143.595" xlink:href="#t" y1="80.117" y2="155.36"/><linearGradient id="v" gradientUnits="userSpaceOnUse" x1="335.461" x2="137.738" xlink:href="#t" y1="72.234" y2="148.528"/><linearGradient id="w" gradientUnits="userSpaceOnUse" x1="246.388" x2="246.388" xlink:href="#d" y1="341.799" y2="396.516"/><linearGradient id="x"><stop offset="0" stop-color="#dcaf91"/><stop offset="1" stop-color="#a04646"/></linearGradient><linearGradient id="y" gradientUnits="userSpaceOnUse" x1="256.358" x2="256.358" xlink:href="#x" y1="342.602" y2="213.365"/><linearGradient id="z"><stop offset="0" stop-color="#f0c3a5"/><stop offset="1" stop-color="#d2a587"/></linearGradient><linearGradient id="A" gradientUnits="userSpaceOnUse" x1="302.127" x2="274.11" xlink:href="#z" y1="302.951" y2="278.698"/><linearGradient id="B" gradientUnits="userSpaceOnUse" x1="254.891" x2="254.891" xlink:href="#x" y1="319.016" y2="353.747"/><linearGradient id="C" gradientUnits="userSpaceOnUse" x1="277.324" x2="277.324" xlink:href="#b" y1="339.816" y2="340.639"/><linearGradient id="D" gradientUnits="userSpaceOnUse" x1="256.388" x2="256.388" xlink:href="#z" y1="251.251" y2="295.375"/><linearGradient id="E" gradientUnits="userSpaceOnUse" x1="254.46" x2="254.46" xlink:href="#z" y1="307.55" y2="296.736"/><linearGradient id="F" gradientUnits="userSpaceOnUse" x1="214.286" x2="233.701" xlink:href="#z" y1="309.432" y2="290.017"/><linearGradient id="G" gradientUnits="userSpaceOnUse" x1="170.432" x2="170.432" xlink:href="#z" y1="99.698" y2="201.213"/><linearGradient id="H" gradientUnits="userSpaceOnUse" x1="339.748" x2="151.681" xlink:href="#t" y1="108.69" y2="181.256"/><linearGradient id="I" gradientUnits="userSpaceOnUse" x1="164.44" x2="148.413" xlink:href="#t" y1="220.684" y2="226.869"/><linearGradient id="J" gradientUnits="userSpaceOnUse" x1="254.795" x2="254.795" xlink:href="#d" y1="152.837" y2="369.539"/><linearGradient id="K" gradientTransform="matrix(-.455 0 0 .455 270.322 0)" gradientUnits="userSpaceOnUse" x1="-155.278" x2="-75.648" xlink:href="#h" y1="483.97" y2="483.97"/><linearGradient id="L" gradientUnits="userSpaceOnUse" x1="167.634" x2="207.978" xlink:href="#h" y1="216.051" y2="216.051"/><linearGradient id="M" gradientUnits="userSpaceOnUse" x1="202.806" x2="202.806" xlink:href="#p" y1="183.318" y2="216.561"/><linearGradient id="N"><stop offset="0" stop-color="#e6e6e6"/><stop offset="1" stop-color="#fafafa"/></linearGradient><linearGradient id="O" gradientTransform="matrix(.453 .041 -.041 .453 16.941 -11.195)" gradientUnits="userSpaceOnUse" x1="468.843" x2="468.843" xlink:href="#N" y1="465.818" y2="510.74"/><linearGradient id="P" gradientTransform="matrix(.453 .041 -.041 .453 16.941 -11.195)" gradientUnits="userSpaceOnUse" x1="460.63" x2="513.862" xlink:href="#b" y1="549.335" y2="466.248"/><linearGradient id="Q" gradientTransform="matrix(.454 .016 -.016 .454 6.438 -4.43)" gradientUnits="userSpaceOnUse" x1="400.402" x2="465.733" xlink:href="#h" y1="483.07" y2="483.07"/><linearGradient id="R" gradientTransform="matrix(.453 .041 -.041 .453 16.941 -11.195)" gradientUnits="userSpaceOnUse" x1="408.816" x2="532.806" xlink:href="#b" y1="469.883" y2="469.883"/><linearGradient id="S"><stop offset="0" stop-color="#505064"/><stop offset="1" stop-color="#141428"/></linearGradient><radialGradient id="T" cx="208.618" cy="229.947" gradientUnits="userSpaceOnUse" r="10.25" xlink:href="#S"/><linearGradient id="U" gradientTransform="matrix(-.453 .04 -.04 -.453 282.882 -10.896)" gradientUnits="userSpaceOnUse" x1="5.167" x2="5.167" xlink:href="#N" y1="268.177" y2="313.105"/><linearGradient id="V" gradientTransform="matrix(-.453 .04 -.04 -.453 282.882 -10.896)" gradientUnits="userSpaceOnUse" x1="-3.04" x2="50.192" xlink:href="#b" y1="351.694" y2="268.607"/><linearGradient id="W" gradientTransform="matrix(-.454 .016 -.016 -.454 292.98 -4.428)" gradientUnits="userSpaceOnUse" x1="-61.623" x2="3.784" xlink:href="#h" y1="402.893" y2="402.893"/><linearGradient id="X" gradientTransform="matrix(-.453 .04 -.04 -.453 282.882 -10.896)" gradientUnits="userSpaceOnUse" x1="-54.859" x2="69.13" xlink:href="#b" y1="272.247" y2="272.247"/><radialGradient id="Y" cx="300.951" cy="229.947" gradientUnits="userSpaceOnUse" r="10.25" xlink:href="#S"/><linearGradient id="Z" gradientUnits="userSpaceOnUse" x1="276.994" x2="349.031" y1="196.266" y2="231.577"><stop offset="0" stop-color="#505064"/><stop offset="1" stop-color="#1e1e32"/></linearGradient><path d="m0 0h512v512h-512z" fill="none"/><path d="m0 512h512v-512h-512z" fill="#1377c2"/><path d="m161.978 383.862c11.637-5.818 22.109-15.127 22.109-15.127h.466c-.466 2.327-1.164 5.12-1.629 8.145-2.095 12.567 20.014 49.804 59.578 57.018 4.422.931 8.843 1.164 13.731 1.164 48.174 0 70.749-40.495 72.145-53.527.466-4.888.233-8.146-.233-12.568 1.63 1.397 11.171 9.542 21.877 14.895 11.636 5.818 88.436 43.054 102.4 53.993 13.963 10.938 31.418 24.436 34.443 32.581 3.026 8.146 5.819 39.564 5.819 39.564h-473.368s2.793-31.418 5.819-39.564c3.025-8.145 20.48-21.411 34.443-32.581 13.964-11.171 90.764-48.175 102.4-53.993z" fill="url(#a)"/><path d="m273.687 350.116 1.629 47.244s-28.392 7.447-32.116 10.473c-2.793 2.327-1.396 19.782-.931 26.065-39.564-7.214-61.673-44.451-59.578-57.018.465-3.025.931-5.585 1.629-8.145 1.396-6.517 2.793-10.473 2.793-10.473z" fill="url(#c)"/><path d="m328.145 368.967c.466 4.422.931 7.68.233 12.568-1.396 13.032-23.971 53.527-72.145 53.527-4.655 0-9.309-.466-13.731-1.164-.698-6.516-2.095-23.738.931-26.065 3.491-2.793 32.116-10.473 32.116-10.473l-1.629-47.244 52.364-4.887c.232 12.102 1.163 18.618 1.861 23.738z" fill="url(#e)"/><path d="m256.233 436.225c-4.655 0-9.309-.465-13.731-1.163-39.331-7.215-62.837-44.684-60.742-58.182.465-2.793.931-5.585 1.629-8.145 1.396-6.517 2.56-10.473 2.793-10.706l.233-.698 140.8-13.498v1.163c.465 11.404 1.163 17.92 1.861 22.808l.233 1.163c.466 4.422.931 7.913.233 12.8-1.397 11.404-22.807 54.458-73.309 54.458zm-68.189-76.8c-.466 1.397-1.397 4.888-2.56 9.775-.466 2.56-1.164 5.353-1.629 7.913-1.862 11.171 18.618 48.407 58.647 55.622 4.189.698 8.843 1.163 13.498 1.163 48.873 0 69.818-41.425 70.982-52.596.465-4.655.233-7.913-.233-12.335l-.233-.931c-.698-4.654-1.396-10.938-1.861-21.643z"/><path d="m492.451 512.327h-473.135c-.698 0-1.163-.232-1.629-.698-.465-.465-.698-1.164-.698-1.862.233-1.396 3.026-31.883 6.051-40.029 3.025-8.145 17.92-20.014 32.349-31.418l2.793-2.095c12.334-9.774 72.843-39.563 95.651-50.734 3.258-1.629 5.818-2.793 7.214-3.491 11.171-5.585 21.411-14.662 21.644-14.895.931-.93 2.327-.698 3.258.233s.698 2.327-.233 3.258c-.465.466-10.938 9.542-22.574 15.36-1.397.699-3.957 1.862-7.215 3.491-22.574 11.171-82.851 40.728-94.72 50.269l-2.792 2.095c-12.568 10.007-28.393 22.342-30.953 29.324-2.327 6.516-4.655 28.858-5.353 36.538h467.782c-.698-7.68-3.026-30.022-5.353-36.538-2.56-6.982-18.153-19.317-30.953-29.324l-2.792-2.095c-12.102-9.541-72.146-39.098-94.72-50.269-3.258-1.629-5.818-2.792-7.215-3.491-11.171-5.585-21.178-14.196-22.342-15.36-.931-.931-1.163-2.327-.232-3.258s2.327-1.163 3.258-.233c1.163.931 10.705 9.31 21.411 14.662 1.396.698 3.956 1.862 7.214 3.491 22.808 11.171 83.317 40.96 95.651 50.735l2.793 2.094c14.429 11.404 29.324 23.273 32.349 31.418 3.025 8.379 5.818 38.866 6.051 40.03 0 .698-.233 1.396-.698 1.861-.466.466-1.164.931-1.862.931z"/><path d="m328.145 369.433c-.232 0-.232 0-.465-.233l-.233-.233c-.232-.232-.232-.465 0-.698.233-.233.466-.233.698 0l.233.233c.233.233.233.465 0 .931z"/><path d="m153.6 267.731c-.931-2.793-7.447-20.946-10.24-31.418-.465-2.095-1.396-3.724-2.327-5.12-.233-2.793-.233-4.888-.233-6.051 4.887 3.258 6.516 11.171 6.516 11.171z" fill="url(#g)"/><path d="m143.36 236.313c2.793 10.472 9.309 28.392 10.24 31.418v.233l2.56 13.265c-9.309-2.094-8.145-20.247-10.24-26.298-3.258-9.309-4.422-17.687-4.887-23.506.931 1.164 1.862 2.793 2.327 4.888z" fill="url(#i)"/><path d="m141.033 225.375c0 1.163 0 3.258.232 6.05-2.327-3.49-5.12-4.654-6.05-4.887.232-1.629.93-2.327 2.56-2.327 1.163 0 2.327.465 3.258 1.164z" fill="url(#j)"/><path d="m145.222 274.48c-3.026-20.713-11.404-41.425-10.24-48.175.931.233 3.956 1.397 6.051 4.888.465 5.585 1.629 14.196 4.887 23.505 2.095 6.051.931 24.437 10.24 26.298l3.025 15.128c-7.68 4.654-12.101-8.844-13.963-21.644z" fill="url(#k)"/><path d="m156.16 298.218c-.931 0-1.629-.233-2.56-.465-5.818-2.793-8.611-15.593-9.542-23.04-1.396-10.008-4.189-20.248-6.516-28.626-2.327-9.076-4.422-16.291-3.724-20.014.466-3.026 2.56-3.258 3.724-3.258 1.396.232 2.793.698 3.956 1.396 5.353 3.491 6.982 11.636 7.215 11.869l6.051 31.185-2.328.466-6.051-31.186s-1.629-7.68-6.05-10.472c-.931-.466-1.862-.931-3.026-.931-.465 0-.931 0-1.164 1.396-.465 3.258 1.397 10.473 3.724 18.851s5.12 18.618 6.516 28.858c1.63 11.637 4.888 19.549 8.379 21.411.931.466 2.094.466 3.258 0l-5.353-27.462 2.327-.465 5.586 29.091-.698.465c-1.164.698-2.56.931-3.724.931z"/><path d="m150.575 260.516c-.233 0-.466-.232-.466-.465s-4.189-14.895-7.214-23.506c-3.026-8.378-8.379-9.774-8.379-9.774-.232 0-.465-.466-.465-.698 0-.233.465-.466.698-.466s5.818 1.629 9.076 10.473c3.259 8.611 7.215 23.505 7.215 23.505.233.466 0 .931-.465.931z"/><path d="m148.247 268.429c-.232 0-.232-.233-.232-.233-.233-3.025-1.397-10.938-2.328-13.265-5.585-16.291-5.352-22.807-5.352-23.04s.232-.233.232-.233c.233 0 .233.233.233.233s-.233 6.749 5.12 22.807c.931 2.56 2.095 10.24 2.327 13.498.233 0 .233.233 0 .233z"/><path d="m362.124 254.698c-2.095 6.051-.931 24.437-10.24 26.298l-3.026 15.128c7.68 4.654 12.102-8.844 13.964-21.644 3.025-20.713 11.171-41.425 10.24-48.175-1.164.233-3.957 1.397-6.051 4.888-.466 5.818-1.629 14.196-4.887 23.505z" fill="url(#l)"/><path d="m362.124 254.698c3.258-9.309 4.421-17.687 4.887-23.505-.931 1.396-1.629 3.025-2.327 5.12-2.793 10.472-9.309 28.392-10.24 31.418v.233l-2.56 13.265c9.076-2.094 7.912-20.48 10.24-26.531z" fill="url(#m)"/><path d="m367.011 225.375c-4.887 3.258-6.516 11.17-6.516 11.17l-6.051 31.186c1.163-2.793 7.447-20.946 10.24-31.418.465-2.095 1.396-3.724 2.327-5.12z" fill="url(#n)"/><path d="m367.011 225.375c0 1.163 0 3.258-.233 6.05 2.327-3.49 5.12-4.654 6.051-4.887-.233-1.629-.931-2.327-2.56-2.327-1.164 0-2.327.465-3.258 1.164z" fill="url(#o)"/><path d="m351.651 298.218c-1.164 0-2.327-.465-3.724-1.163l-.698-.466 5.586-29.091 2.327.466-5.353 27.461c1.164.466 2.095.466 3.258 0 3.491-1.629 6.749-9.541 8.378-21.41 1.397-10.24 4.19-20.48 6.517-28.859 2.327-8.378 4.189-15.825 3.723-18.851-.232-1.396-.698-1.396-1.163-1.163-.931 0-2.095.465-3.026.931-4.421 2.792-6.051 10.472-6.051 10.472l-6.05 31.186-2.328-.466 6.051-31.185c0-.465 1.862-8.611 7.215-11.869 1.163-.698 2.56-1.164 3.956-1.396 1.164 0 3.258.232 3.724 3.258.465 3.723-1.397 10.938-3.724 20.014-2.327 8.146-4.887 18.618-6.516 28.626-1.164 7.447-3.724 20.247-9.542 23.04-.698.465-1.629.465-2.56.465z"/><path d="m355.375 268.196-2.328-.698 2.328.466zm2.094-7.68c-.233 0-.233 0 0 0-.465 0-.698-.465-.465-.698 0-.233 4.189-14.894 7.214-23.505 3.258-8.844 8.844-10.473 9.077-10.473.232 0 .698 0 .698.465 0 .233 0 .699-.466.699 0 0-5.352 1.629-8.378 9.774-3.258 8.611-7.214 23.273-7.214 23.506 0 0-.233.232-.466.232z"/><path d="m359.796 268.429c-.232 0-.232-.233-.232-.233.232-3.258 1.396-10.938 2.327-13.498 5.585-16.058 5.12-22.807 5.12-22.807 0-.233 0-.233.233-.233.232 0 .232 0 .232.233s.466 6.982-5.352 23.04c-.931 2.56-2.095 10.24-2.328 13.265.233 0 .233.233 0 .233z"/><path d="m370.269 141.825c2.327 32.582 1.862 62.371-.465 70.051-1.164 3.957-6.284 9.077-8.844 11.404v-5.818c.233-40.727.931-75.869-15.825-100.538-3.491-5.12-7.68-9.775-12.8-13.964 6.05-5.818 10.007-11.636 12.101-14.662-.465 2.327-1.396 3.957-1.396 3.957s24.902 18.618 27.229 49.57z" fill="url(#q)"/><path d="m355.84 210.48c0-.233 0-.465-.233-.465-2.792-10.008-1.862-43.986-1.862-51.666 0-9.542 1.63-22.574-8.61-41.425 16.523 24.669 15.825 59.811 15.825 100.538v5.818c0 2.327-.233 4.887-.233 7.215-.465-2.56-3.025-13.033-4.887-20.015z" fill="url(#r)"/><path d="m238.545 276.342c-5.352 7.913-14.196 20.945-23.97 34.211.93-.931 13.73-13.731 24.901-18.851 1.862 2.094 4.655 3.491 7.448 4.189-.233 2.094-.931 5.818-1.862 9.076 0 0 8.611 7.448 17.454.466 0 0-.698-5.12-.931-8.844 8.379-1.164 12.102-4.189 13.033-7.68 11.404 8.611 22.575 12.8 23.273 13.033-15.127-12.567-26.066-31.884-29.091-37.237-.465-1.629-.698-3.025-1.164-4.421-1.861-4.189-3.025-6.982-3.025-6.982.233 25.134 5.585 26.065 4.654 32.582-.465 3.491-9.309 3.723-13.498 3.723-12.102 0-13.963-9.309-13.963-9.309s-2.793 5.818-4.888 1.629c.466-1.396.931-3.258 1.629-5.585zm53.76 50.734c-2.327-.232-6.516-.698-11.403-1.629-5.818-1.396-9.542-3.491-13.964-3.491-4.189-.232-6.982.931-11.171.931s-8.843-1.862-10.705-1.862-6.749 1.862-14.429 3.957c-7.448 2.094-13.731 2.793-13.731 2.793v.465c.465 0 .931 0 1.396.233v.232s6.982 1.63 11.171 5.353c3.491 3.026 4.655 5.586 10.24 6.982 11.404 2.56 24.436 1.629 34.676-.233-4.887 1.164-10.938 2.095-17.92 2.328-12.8 0-32.116-5.586-32.116-5.586-5.353 1.164-15.36 12.102-18.851 10.938-15.593-5.12-7.68-61.905-15.825-72.843-12.8-17.455-28.16-20.946-34.677-35.375-3.723-7.913-3.956-16.989-2.094-27.927h.233s15.36-24.669 14.196-44.451-2.56-38.866 19.549-65.164c3.956-2.792 7.913-5.352 11.869-7.447 3.491-.698 7.68-.931 12.102-.931 25.6 0 81.92 13.266 94.953 16.989 12.8 3.724 25.367-7.214 26.065-7.68l.233-.233c5.12 4.19 9.309 8.844 12.8 13.964 10.24 18.618 8.611 31.651 8.611 41.426 0 7.68-1.164 41.658 1.862 51.665 0 .233 0 .233.232.465.698 6.517 2.328 16.99 2.095 24.902-.466 12.335-3.724 22.808-7.68 24.902-17.92 10.007-21.411 17.455-27.927 51.433-6.75 34.676-9.775 37.469-16.757 37.236-6.982-.465-14.894-15.36-14.894-15.36s-3.957 2.793-10.939 5.12c6.051-2.793 7.913-8.843 14.43-11.869-.233-.233-.699-.233-1.63-.233z" fill="url(#s)"/><path d="m159.185 134.844c-9.076 20.712-10.472 47.709-11.17 84.945v2.56c-1.397-2.327-3.026-5.353-3.259-7.214 0 0-4.189-27.695-1.163-62.371 2.56-28.859 16.291-44.917 16.291-44.917s2.094-15.825 13.963-26.298c13.964-12.334 45.848-25.6 63.535-30.254 17.92-4.655 58.182-1.63 65.862 1.629 7.68 3.025 39.563 22.574 41.192 27.927.699 2.56.466 5.353-.232 7.68-1.862 3.025-6.051 9.076-12.102 14.662-8.844-7.215-20.713-13.033-35.84-16.989-48.175-12.335-71.215-6.982-97.513 8.843-3.724 2.328-7.68 4.888-11.869 7.448-13.033 8.843-21.876 19.316-27.695 32.349z" fill="url(#u)"/><path d="m332.335 102.96c-.699.465-13.033 11.636-26.066 7.68-13.265-3.956-69.353-16.989-94.953-16.989-4.421 0-8.611.465-12.101.931 26.065-15.826 49.105-21.178 97.512-8.844 15.36 3.957 26.997 9.542 35.84 16.989 0 .233-.232.466-.232.233z" fill="url(#v)"/><path d="m293.236 376.415c5.586.93 14.662 2.327 23.739-2.56-7.68 8.61-15.826 14.661-23.506 19.549-17.222 11.171-53.294 8.145-68.189 2.327-13.265-5.12-34.909-17.222-49.804-43.52 7.913 9.076 27.928 30.022 43.52 24.436 10.473-3.956 13.499-14.894 27.462-17.454 7.68-1.397 19.084-3.026 27.462-1.164 7.913 1.629 16.058 17.687 19.316 18.386z" fill="url(#w)"/><path d="m293.702 327.076c-6.517 3.026-8.378 9.077-14.429 11.869-1.397.466-3.026.931-4.655 1.397-10.24 1.862-23.273 2.793-34.676.233-5.586-1.164-6.982-3.957-10.24-6.982-4.422-3.957-11.171-5.353-11.171-5.353v-.233c4.654.466 15.825 1.862 36.305 3.491 18.619 1.629 30.953-1.862 37.469-4.422z" fill="url(#y)"/><path d="m298.356 301.942c-.698-.233-12.101-4.422-23.272-13.033.698-2.56.232-5.353-.931-8.145-2.095-5.353-3.724-10.939-4.888-15.826 2.793 5.353 13.731 24.437 29.091 37.004z" fill="url(#A)"/><path d="m280.902 325.447c4.654.931 9.076 1.397 11.403 1.629-6.516 2.56-18.85 6.051-37.469 4.422-20.48-1.629-31.883-3.025-36.305-3.491-.466 0-1.164-.232-1.396-.232v-.466s6.283-.465 13.73-2.793c7.448-2.094 12.335-3.956 14.43-3.956 1.861 0 6.516 1.862 10.705 1.862s6.982-1.164 11.171-.931c4.189.465 7.913 2.56 13.731 3.956z" fill="url(#B)"/><path d="m279.505 338.945c-1.163.466-2.327.931-3.723 1.164-.233 0-.698 0-.931.233 1.629-.466 3.025-.931 4.654-1.397z" fill="url(#C)"/><path d="m247.156 295.891c-2.792-.931-5.585-2.095-7.447-4.189-2.094-2.095-3.025-5.12-2.56-9.309 2.327 3.956 4.887-1.629 4.887-1.629s1.862 9.309 13.964 9.309c4.189 0 13.033-.233 13.498-3.724.931-6.516-4.189-7.447-4.654-32.582 0 0 1.163 3.026 3.025 6.982.233 1.396.698 2.793 1.164 4.422 1.163 4.887 2.792 10.473 4.887 15.825.931 2.793 1.629 5.586.931 8.146-.931 3.491-4.655 6.516-13.033 7.68-1.396.233-3.025.233-4.887.465-2.56-.232-6.284-.465-9.775-1.396z" fill="url(#D)"/><path d="m261.818 296.589c.233 3.956.931 8.844.931 8.844-8.844 6.749-17.454-.466-17.454-.466.93-3.258 1.396-6.982 1.861-9.076 3.491.931 7.215 1.164 9.775 1.164 1.862-.233 3.491-.233 4.887-.466z" fill="url(#E)"/><path d="m237.149 282.16c-.465 4.189.698 7.215 2.56 9.309-11.404 5.12-24.204 18.153-24.902 18.851 9.775-13.033 18.618-26.065 23.971-34.211-.931 2.56-1.396 4.422-1.629 6.051z" fill="url(#F)"/><path d="m153.833 209.084c1.629-7.448.232-35.375.232-42.357 0-8.145 2.328-23.505 5.353-31.883 5.818-13.033 14.429-23.506 28.16-32.582-22.109 26.298-20.713 45.382-19.549 65.163 1.164 19.782-14.196 44.451-14.196 44.451h-.233c-.233-.931 0-1.861.233-2.792z" fill="url(#G)"/><path d="m159.185 134.844c-3.025 8.378-5.352 23.738-5.352 31.883 0 6.982 1.396 34.909-.466 42.357-1.163 4.887-2.56 11.171-3.723 15.825-.233-.465-.931-1.396-1.629-2.56v-2.56c.698-37.236 2.094-64.233 11.17-84.945z" fill="url(#H)"/><path d="m148.247 222.349c.698 1.164 1.397 2.095 1.629 2.56-.931 3.491-1.396 6.051-1.396 6.051-.233-3.025-.233-6.051-.233-8.611z" fill="url(#I)"/><path d="m149.876 224.909c1.164-4.654 2.56-10.938 3.724-15.825h.233c-.233.931-.466 1.861-.466 2.792-2.094 10.939-.698 20.48 3.026 28.393 6.749 14.429 21.411 16.756 34.211 34.211 7.912 10.938.698 67.491 16.291 72.611 3.49 1.164 12.8-8.844 18.152-10.007 0 0 19.317 5.585 32.117 5.585 6.981 0 13.032-.931 17.92-2.327.232 0 .698 0 .931-.233 1.396-.233 2.56-.698 3.723-1.164 7.215-2.327 10.938-5.12 10.938-5.12s7.913 13.964 15.128 14.43c6.981.465 9.309-1.862 15.825-36.539 6.516-34.211 10.007-41.891 27.927-51.898 3.724-2.094 7.448-12.102 7.68-24.436.233-7.913-.698-18.386-1.163-24.669 1.862 6.982 4.422 17.454 4.887 20.014-2.095 46.313-13.265 82.851-21.411 104.495-6.284 17.222-14.196 29.556-22.574 38.633-8.844 4.887-17.92 3.49-23.739 2.56-3.025-.466-11.403-16.757-19.549-18.619-8.145-1.861-19.782-.232-27.462 1.164-13.963 2.56-16.756 13.498-27.461 17.455-15.593 5.818-35.608-15.128-43.52-24.437-1.862-3.025-3.491-6.516-5.12-10.007-13.964-31.651-20.946-79.36-22.109-111.011.232 0 .93-2.56 1.861-6.051z" fill="url(#J)"/><path d="m160.349 135.309-2.094-.931c6.05-13.498 15.127-24.203 28.392-33.047l1.397 1.862c-13.266 8.843-21.877 19.083-27.695 32.116z"/><path d="m188.044 103.193-1.397-1.862c4.655-3.026 8.378-5.586 11.869-7.68l1.164 2.094c-3.491 2.095-7.215 4.422-11.636 7.448zm156.392 14.429c-3.491-5.353-7.68-9.775-12.567-13.731l1.396-1.862c5.12 4.189 9.31 8.844 13.033 14.196zm-84.945 284.16c-13.964 0-27.462-2.56-34.676-5.353-14.895-5.818-35.608-18.153-50.502-43.985-1.862-3.259-3.491-6.517-5.12-10.008-13.731-30.952-20.946-78.196-22.109-111.476h2.327c1.164 33.047 8.378 79.825 21.876 110.545 1.629 3.491 3.258 6.75 4.888 9.775 14.429 25.367 34.676 37.469 49.338 43.055 13.963 5.585 50.036 8.843 67.025-2.328 6.517-4.189 14.895-10.24 23.273-19.316 9.309-10.24 16.524-22.807 22.342-38.4 12.567-33.746 19.782-68.887 21.178-104.029h2.327c-1.629 35.607-8.843 70.749-21.411 104.96-5.818 15.593-13.265 28.393-22.807 39.098-8.378 9.309-16.989 15.36-23.738 19.782-8.378 5.818-21.411 7.68-34.211 7.68z"/><path d="m148.015 226.538s-.233-.233-.233-.465c-.233-.466-.931-1.397-1.629-2.56-3.026-5.353-3.491-7.215-3.491-7.913 0-.233-4.189-28.393-1.164-63.069 2.327-26.764 13.964-42.589 16.291-45.847.466-3.259 3.491-17.222 14.662-27.229 14.429-12.8 46.778-26.066 64.465-30.72 17.92-4.655 58.88-1.63 67.491 1.629 6.749 2.56 40.495 22.341 42.589 29.556.931 3.258.466 6.516-.232 8.844-.233 1.163-.466 2.094-.931 2.792 5.585 4.655 24.669 22.575 26.763 50.269 2.328 31.186 1.862 62.371-.698 70.982-1.396 4.422-6.516 9.775-9.309 12.568l-1.164 1.163-3.025-3.491 1.164-1.163c4.421-3.957 7.447-7.913 8.145-10.473 2.095-6.982 2.793-35.375.466-69.353-2.095-29.556-26.066-47.709-26.299-47.942l-1.629-1.163.931-1.862s.698-1.396 1.164-3.491c.465-1.629.698-4.189.233-6.516-1.164-3.026-27.462-21.411-39.797-26.299-6.982-2.792-46.778-6.05-64.465-1.396-16.989 4.422-48.873 17.455-62.604 29.789-11.171 10.007-13.265 24.669-13.265 24.902v.698l-.466.466c-.233.232-13.265 16.058-15.825 43.752-3.026 34.211 1.163 61.673 1.163 61.906 0 .465.466 2.094 3.026 6.283.698 1.164 1.163 2.095 1.629 2.56l.233.233z"/><path d="m311.855 112.735c-1.862 0-3.957-.233-5.819-.931-13.498-3.957-69.352-16.989-94.72-16.989-4.189 0-8.145.232-11.869.93l-.465-2.327c3.956-.698 8.145-.931 12.334-.931 25.6 0 81.92 13.033 95.419 17.222 12.101 3.491 24.436-6.982 24.901-7.447l1.629 1.629c-.698.465-10.24 8.844-21.41 8.844zm-151.506 22.574-2.094-.698c.232-.698.465-1.396.93-2.095l2.095.931c-.465.466-.698 1.164-.931 1.862zm-5.585 74.007-2.328-.465c1.397-5.586.931-23.273.466-33.978 0-3.491-.233-6.284-.233-7.913 0-8.378 2.327-23.738 5.353-32.349l2.094.698c-3.025 8.146-5.12 23.273-5.12 31.418 0 1.629 0 4.422.233 7.913.466 11.636.931 28.858-.465 34.676z"/><path d="m152.56 208.66 2.262.542-5.246 21.958-2.257-.54zm202.116 2.053-.232-.466c-2.328-8.611-2.095-33.047-1.862-46.312v-5.586-3.258c.233-9.309.465-21.178-8.611-37.469l2.094-1.164c9.31 16.989 9.077 29.557 8.844 38.633v9.076c-.233 12.102-.465 37.469 1.862 45.615l.233.465z"/><path d="m359.564 230.727c0-.232-2.793-12.102-4.888-19.782l2.328-.698c2.094 7.68 4.887 19.782 4.887 20.015zm-103.797 67.491c-2.094 0-5.585-.233-8.843-1.163-3.491-.931-6.284-2.56-8.146-4.655-2.327-2.793-3.491-6.051-3.025-10.24.232-1.862.698-3.956 1.629-6.051.465-1.164.931-2.56 1.862-3.956.232-.466.931-.698 1.629-.466.465.233.698.931.465 1.629-.698 1.397-1.163 2.56-1.629 3.724-.698 2.095-1.164 3.956-1.396 5.585-.466 3.491.465 6.284 2.327 8.379 1.629 1.629 3.956 3.025 6.982 3.956 3.723 1.164 7.447 1.164 9.309 1.164 1.629 0 3.258-.233 4.887-.466 6.982-.931 10.938-3.258 12.102-6.749.465-2.094.233-4.422-.931-7.447-1.862-5.12-3.491-10.473-4.887-16.058-.466-1.629-.698-3.026-1.164-4.422-2.327-10.007-3.025-17.455-3.025-17.687 0-.699.465-1.164.931-1.397.698 0 1.163.466 1.396.931 0 0 .698 7.447 3.025 17.455.233 1.396.699 2.792.931 4.421 1.397 5.353 3.026 10.706 4.888 15.826 1.396 3.491 1.629 6.516.931 9.076-1.397 4.655-6.051 7.448-13.964 8.378-1.629.233-3.258.233-5.12.466-.233-.233-.698-.233-1.164-.233zm8.146 34.909c-2.793 0-5.818 0-9.077-.465-21.411-1.862-32.581-3.026-36.538-3.491l-2.56-.233c-.698 0-1.163-.698-.931-1.396 0-.698.698-1.164 1.397-.931l2.56.233c3.723.465 15.127 1.861 36.305 3.491 18.618 1.629 31.186-2.095 36.771-4.422 3.258-1.397 4.887-2.328 4.887-2.328.466-.465 1.164-.232 1.629.233.466.466.233 1.164-.232 1.629 0 0-1.862 1.164-5.353 2.56-6.051 2.56-15.593 5.12-28.858 5.12z"/><path d="m257.164 290.305h-1.629c-8.611-.232-10.706-3.723-10.706-3.956l-2.327-3.491.465-.233s1.164 2.095 2.328 3.491c0 0 2.094 3.491 10.24 3.724 8.378.233 13.265-1.164 13.73-3.724.466-2.56-.698-7.214-2.094-10.472-3.724-9.077-4.189-17.92-3.491-31.884h.465c-.698 13.964-.232 22.575 3.491 31.651 1.164 2.56 2.793 7.68 2.095 10.705-.466 2.56-4.887 4.189-12.567 4.189z"/><path d="m267.683 288.029.596.361-4.79 7.983-.598-.361zm-5.05 1.401.596.359-4.79 7.982-.598-.358zm-4.003.433.596.361-4.79 7.983-.598-.359zm-4.58-.293.598.358-4.313 7.185-.6-.359zm-4.024-.458.598.358-4.31 7.187-.598-.359zm-3.489-1.413.601.361-3.952 6.586-.598-.361zm-2.988-3.468.596.363-3.952 6.587-.598-.361zm30.729-2.148.605.349-7.789 13.508-.605-.349zm-19.209 60.819c-11.171 0-20.945-3.258-21.178-3.258s-.466-.466-.466-.699c0-.232.466-.465.699-.465.232 0 11.869 3.956 24.436 3.025 12.335-.93 18.618-1.163 27.462-6.283.233-.233.698 0 .698.233.233.232 0 .698-.233.698-9.076 5.352-15.36 5.585-27.927 6.516-.931.233-2.327.233-3.491.233zm27.927 20.945c-.232 0-.232 0-.465-.232-1.164-.931-2.095-2.095-3.258-2.793l-1.164-.931c-4.422-3.956-24.436-4.189-31.651-3.026-.233 0-.698-.232-.698-.465s.233-.698.465-.698c7.215-1.164 27.928-1.164 32.582 3.258l1.164.931c.931.931 2.094 1.862 3.025 2.793.233.232.233.465 0 .931.233 0 .233.232 0 .232z"/><path d="m277.644 358.495c-.233 0-.233 0 0 0-14.197-9.077-21.877-5.12-22.109-4.888h-.466v-.465c.233-.233 8.146-4.422 22.575 4.887.232 0 .232.233 0 .466z"/><path d="m278.807 359.658c-.232 0-.232 0 0 0-15.825-9.076-30.952-6.516-31.185-6.516s-.233 0-.233-.233 0-.233.233-.233 15.593-2.792 31.418 6.517c.233 0 .233.232 0 .465 0-.233-.233 0-.233 0zm-19.316-16.756c-8.844 0-18.153-2.095-18.153-2.095-.233 0-.233-.232-.233-.465s.233-.233.466-.233 17.222 3.956 26.531 1.164c9.542-2.793 15.825-4.888 16.058-4.888s.233 0 .465.233c0 .233 0 .233-.232.466 0 0-6.517 2.094-16.058 4.887-2.56.465-5.586.931-8.844.931zm-49.804-9.309c-.232 0-.232 0-.465-.233s-.233-.698 0-.931c2.094-2.094 5.585-4.422 10.938-4.422 2.095 0 9.542.698 17.455 1.397 9.076.931 19.549 1.861 22.341 1.861 10.939-.232 31.884-5.352 35.608-6.283 4.421-1.164 5.818.465 9.774 6.283.233.233 0 .699-.233.699-.232.232-.698 0-.698-.233-3.956-6.051-4.887-6.982-8.378-5.818-3.724 1.163-24.902 6.051-35.84 6.516-2.793 0-12.8-.931-22.342-1.862-7.912-.698-15.36-1.396-17.454-1.396-5.12 0-8.146 2.094-10.008 3.956-.465.466-.465.466-.698.466z"/><path d="m262.051 331.498c-10.706 0-33.28-2.094-40.727-3.258-7.448-1.164-8.146-2.327-8.379-2.56 0-.233 0-.233.233-.465h.466s.931 1.163 7.912 2.094c7.913 1.164 32.815 3.491 42.357 3.258 9.774-.232 30.254-5.585 32.116-6.283 2.095-.931 4.887-2.328 4.887-2.328.233 0 .233 0 .466.233 0 .233 0 .233-.233.466 0 0-3.025 1.396-4.887 2.327s-22.575 6.051-32.349 6.516zm-105.891-139.403c-.233 0-.233-.233-.233-.233s-.465-10.938.466-32.117c1.163-21.178 17.454-46.545 17.687-46.778 0-.232.233-.232.465 0 .233.233.233.233 0 .466-.232.232-16.523 25.6-17.687 46.545-1.163 21.178-.698 31.884-.465 31.884 0 .233 0 .233-.233.233z"/><path d="m152.902 173.476c-.233-.232-.233-.465-.233-.465l10.473-11.171c0-.233.233-.233.465 0 .233 0 .233.233 0 .465l-10.705 11.171c.233 0 .233 0 0 0zm104.262 117.295c-7.215 0-12.102-3.956-12.335-4.189l.698-.931s6.517 5.12 15.128 3.491c3.723-.698 6.516-1.397 7.68-3.491 1.396-2.095.93-6.051-1.164-13.498-3.956-13.731-2.793-36.771-2.793-37.004h1.164c0 .233-1.397 23.04 2.56 36.771 2.327 7.913 2.56 11.869.931 14.429-1.397 2.327-4.189 3.258-8.378 3.956-1.164.233-2.328.466-3.491.466zm-97.746-43.753c-7.214-10.705-8.145-25.6-8.145-25.833h.465c0 .233.931 14.895 8.146 25.368z"/><path d="m249.716 399.222c-5.12 0-9.774-.233-13.032-1.164-11.637-3.025-43.52-20.945-51.899-33.513-8.843-13.498-18.385-40.261-22.807-54.69-4.654-15.826-12.334-83.084-12.567-83.782 0-.233 0-.233.233-.233.232 0 .232 0 .232.233 0 .698 7.913 67.956 12.568 83.782 5.12 17.454 14.894 42.589 22.574 54.69 8.378 12.568 40.029 30.255 51.666 33.28 11.171 3.026 37.701-.465 46.545-1.396 11.869-1.396 21.411-11.636 28.858-20.014 3.026-3.259 5.586-6.051 7.913-7.913 5.818-4.655 17.687-36.073 24.204-52.829 1.629-4.189 2.792-7.448 3.723-9.309 3.026-7.215 6.284-34.444 8.611-52.597.698-6.283 1.397-11.403 1.862-13.731 1.396-8.611.698-15.825.465-15.825 0-.233 0-.233.233-.233s.233 0 .233.233c0 0 .931 7.447-.698 16.058-.466 2.327-.931 7.215-1.862 13.731-2.327 18.153-5.586 45.382-8.611 52.829-.698 1.862-2.095 5.12-3.724 9.309-6.516 16.989-18.385 48.407-24.436 53.062-2.327 1.862-4.887 4.655-7.913 7.913-7.68 8.378-17.222 18.618-29.323 20.014-5.586.233-20.713 2.095-33.048 2.095z"/><path d="m262.982 395.498c-16.757 0-30.022-2.327-30.022-2.327-.233 0-.465-.466-.465-.698 0-.233.465-.466.698-.466.232 0 23.505 4.189 47.942 1.397 26.065-3.026 35.607-25.6 35.607-25.833.233-.233.465-.466.698-.233s.465.466.233.698c0 .233-9.775 23.506-36.538 26.531-6.284.466-12.335.931-18.153.931zm-88.204-60.276s-.233 0-.233-.233c-10.24-24.902-20.014-49.804-20.247-50.036 0-.233 0-.233.233-.466.233 0 .233 0 .465.233 0 .233 9.775 25.135 20.248 50.036-.233.233-.233.466-.466.466zm161.746-14.429c-.233-.233-.233-.233-.233-.466 8.611-14.894 21.876-63.534 22.109-64 0-.232.233-.232.465-.232.233 0 .233.232.233.465-.233.465-13.498 49.105-22.109 64-.233.233-.465.233-.465.233z"/><g fill="#1e1e32"><path d="m153.135 213.015s2.327-15.593 10.705-24.437c0 0-5.585 1.397-12.102 10.24"/><path d="m153.6 203.938s2.327-15.593 10.705-24.436c0 0-5.585 1.396-12.101 10.24"/><path d="m152.436 195.095s2.328-15.593 10.706-24.437c0 0-5.586 1.397-12.102 10.24"/><path d="m152.902 199.982s2.327-15.593 10.705-24.437c0 0-5.585 1.397-12.102 10.24"/><path d="m152.436 189.509s2.328-15.593 10.706-24.436c0 0-5.586 1.396-12.102 10.24"/><path d="m149.178 187.647s2.327-15.592 10.706-24.436c0 0-5.586 1.396-12.102 10.24m6.051 35.142s2.327-15.593 10.705-24.437c0 0-5.585 1.397-12.102 10.24"/></g><path d="m357.004 213.015s-2.328-15.593-10.706-24.437c0 0 5.586 1.397 12.102 10.24" fill="#323246"/><path d="m356.538 203.938s-2.327-15.593-10.705-24.436c0 0 5.585 1.396 12.102 10.24" fill="#323246"/><path d="m357.004 195.095s-2.328-15.593-10.706-24.437c0 0 5.586 1.397 12.102 10.24" fill="#323246"/><path d="m357.004 199.982s-2.328-15.593-10.706-24.437c0 0 5.586 1.397 12.102 10.24" fill="#323246"/><path d="m357.004 189.276s-2.328-15.592-10.706-24.436c0 0 5.586 1.396 12.102 10.24" fill="#323246"/><path d="m358.865 186.716s-2.327-15.592-10.705-24.436c0 0 5.585 1.396 12.102 10.24m-3.957 36.073s-2.327-15.593-10.705-24.437c0 0 5.585 1.397 12.102 10.24" fill="#323246"/><path d="m327.215 204.895s12.567-.931 16.989 13.032c4.887 15.128-15.826 17.688-15.826 17.688s-4.887-11.171-20.945-14.662c-17.92-3.724-27.928 2.792-29.091 3.956-1.164 1.164-3.724 2.56-5.818 6.516 0 0-1.397-7.447.465-9.774 15.826-20.946 54.226-16.756 54.226-16.756z" fill="url(#K)" opacity=".3"/><path d="m177.571 196.284s-9.309 1.163-13.964 14.894c-4.887 15.127 18.386 24.437 18.386 24.437s4.887-11.171 20.945-14.662c17.92-3.724 27.927 2.792 29.091 3.956s2.327 2.56 5.12 4.422c0 0 8.378-12.8 6.982-23.273-1.396-10.705-66.56-9.774-66.56-9.774z" fill="url(#L)"/><path d="m235.287 193.025c13.964 6.517 4.655 23.506 4.655 23.506-52.597-30.487-76.567-15.826-77.498-15.36.232-.698 4.654-11.404 16.523-14.429 16.524-4.655 42.822-.233 56.32 6.283z" fill="url(#M)"/><path d="m163.142 201.869-1.629-1.629zm77.033 16.058-.931-.698c-51.666-29.789-75.171-15.825-76.335-15.36l-3.025 1.862 1.163-3.258c0-.233 4.655-11.869 17.222-15.128 16.291-4.421 43.287-.232 57.018 6.517 3.957 1.862 6.517 4.654 7.68 8.145 2.56 7.68-2.327 16.524-2.56 16.757zm-58.88-22.109h.465c16.524.233 35.84 6.517 57.484 18.851 1.163-2.56 3.491-8.611 1.861-13.964-.93-3.025-3.025-5.352-6.283-6.749-13.498-6.283-39.564-10.472-55.389-6.283-7.68 2.094-12.102 7.447-14.197 10.938 2.793-1.164 8.379-2.793 16.059-2.793z"/><path d="m199.447 200.007s-2.56-6.516-10.24-7.912l.233-1.164c8.145 1.629 10.938 8.378 10.938 8.611z"/><path d="m195.025 199.076s-3.49-5.818-11.17-6.749l.232-1.163c8.146.931 11.869 6.981 12.102 7.214zm-6.283-1.163s-5.12-4.422-11.171-4.655v-1.163c6.284.232 11.636 4.654 11.869 4.887zm-8.378-.466s-3.724-3.491-8.611-2.327l-.233-1.164c5.353-1.163 9.542 2.56 9.775 2.56zm61.905 20.48-.931-.698s3.724-5.12 4.189-12.567h1.164c-.466 7.913-4.422 13.033-4.422 13.265zm-3.491-2.094-1.163-.466c0-.232 4.654-12.334.93-24.436l1.164-.233c3.956 12.567-.931 25.135-.931 25.135z"/><path d="m235.52 214.669-1.164-.465s4.189-11.869 1.629-23.273l1.164-.233c2.56 11.637-1.629 23.738-1.629 23.971zm-3.025-2.094-1.164-.466s3.025-6.516 1.862-15.825l1.163-.233c1.164 9.774-1.861 16.291-1.861 16.524zm-2.793-2.095-.931-.465s2.793-5.819 1.396-14.197l1.164-.233c1.396 8.844-1.629 14.662-1.629 14.895zm-3.026-1.629-.931-.466s1.862-3.258.931-9.541l1.164-.233c.931 6.516-.931 10.007-1.164 10.24zm-3.258-1.629-1.163-.233s1.396-4.887.465-8.378l1.164-.233c1.163 3.491-.466 8.611-.466 8.844zm-3.025-1.397-1.164-.232s1.164-3.957-.931-6.982l.931-.698c2.327 3.258 1.164 7.68 1.164 7.912zm18.618 11.404c-.233-.233-33.746-17.222-51.666-17.222h-.698c-17.687.466-21.876 3.491-21.876 3.491l-.466-.465c.233-.233 4.19-3.026 22.342-3.491 9.309-.233 23.273 4.422 33.28 8.611 10.706 4.422 19.317 8.843 19.549 8.843z"/><path d="m163.375 211.644-.466-.233c3.026-9.076 8.146-12.335 11.869-13.731 4.189-1.396 7.447-.465 7.68-.465l-.233.465s-3.258-.698-7.214.465c-5.353 1.862-9.309 6.517-11.636 13.499z"/><path d="m186.88 228.865s2.095 10.24 16.291 11.637c14.429 1.396 19.316.233 24.204-6.749 4.654-6.982-1.164-11.637-5.819-13.266-4.887-1.629-29.323-4.887-34.676 8.378z" fill="url(#O)"/><path d="m217.6 217.927s19.084 3.491 18.618 11.404c-.233 3.491-5.353 8.844-5.353 8.844s-9.309 11.17-27.229 19.549c0 0 .931-3.026 7.448-9.077 3.956-3.723 18.152-9.774 18.618-18.152.233-7.448-12.102-12.568-12.102-12.568z" fill="url(#P)" opacity=".5"/><path d="m215.738 208.618s-10.705-5.585-32.814 5.353c-10.939 5.353-2.328 20.945-2.328 20.945s2.793-11.869 18.386-14.196c17.687-2.793 28.858 3.491 30.022 4.655 3.956 4.654 3.258 9.541 1.163 12.8 0 0 6.749-1.63 7.215-12.8 0-11.171-21.644-16.757-21.644-16.757z" fill="url(#Q)" opacity=".4"/><path d="m236.218 231.193c1.629-3.491.698-8.611.698-8.611s-7.214-13.964-31.185-14.895c-26.531-.931-25.833 26.066-25.833 26.066 23.273-24.669 48.64-10.706 53.062-7.448.233 0 2.327 2.56 3.258 4.888z" fill="url(#R)" opacity=".8"/><path d="m208.058 240.036c-2.793 0-5.353-1.163-7.214-3.258-1.862-2.094-2.793-4.654-2.793-7.447.233-5.586 4.654-9.775 10.24-9.775h.465c2.793 0 5.353 1.164 7.215 3.259 1.862 2.094 2.793 4.654 2.793 7.447-.233 5.585-4.655 9.774-10.24 9.774z" fill="url(#T)"/><path d="m208.291 220.72h.233c2.327 0 4.654 1.164 6.283 2.793 1.629 1.862 2.56 4.189 2.328 6.516-.233 4.887-4.19 8.844-9.077 8.844h-.233c-2.327 0-4.654-1.164-6.283-2.793-1.629-1.862-2.56-4.189-2.327-6.516.232-5.12 4.189-8.844 9.076-8.844m0-2.327c-6.051 0-11.171 4.887-11.404 10.938-.232 6.284 4.655 11.636 10.938 11.869h.466c6.051 0 11.171-4.887 11.404-10.938.232-6.284-4.655-11.637-10.939-11.869z"/><path d="m181.062 235.615c-.233 0-.466 0-.698-.233-.931-.466-1.164-1.397-.699-2.327.233-.466 7.448-13.731 26.764-14.895 24.436-1.629 30.022 11.171 30.255 11.636.465.931 0 1.862-.931 2.328-.931.465-1.862 0-2.328-.931-.232-.466-5.12-10.938-26.763-9.542-17.455 1.164-23.971 13.033-23.971 13.033-.233.698-.931.931-1.629.931z"/><path d="m213.178 229.796c0 2.571-2.084 4.655-4.654 4.655-2.571 0-4.655-2.084-4.655-4.655 0-2.57 2.084-4.654 4.655-4.654 2.57 0 4.654 2.084 4.654 4.654z"/><path d="m213.411 227.004c0 1.285-1.042 2.327-2.327 2.327-1.286 0-2.328-1.042-2.328-2.327 0-1.286 1.042-2.328 2.328-2.328 1.285 0 2.327 1.042 2.327 2.328z" fill="#fff"/><path d="m236.218 230.495c-.233 0-.233-.233-.233-.466 1.397-4.654 0-8.844-.698-9.309 0 0-5.352-6.284-14.662-10.007-8.61-3.491-22.807-5.353-40.727 5.12h-.465v-.466c18.152-10.472 32.582-8.611 41.425-5.12 9.542 3.724 14.895 10.008 14.895 10.008 1.163.93 2.327 5.352.698 10.007 0 0 0 .233-.233.233z"/><path d="m178.735 232.589h-.466c-.465-.233-.698-.698-.465-1.164 6.051-11.636 18.851-15.127 22.574-15.825 18.153-3.491 33.513 9.542 34.211 10.007.466.233.466.931 0 1.164-.233.465-.931.465-1.164 0-.232-.233-15.36-13.033-32.581-9.775-3.491.699-15.593 3.957-21.411 14.895-.233.465-.466.698-.698.698zm56.859-.675.466.519-10.696 9.682-.466-.512z"/><path d="m238.767 216.398.837.805-9.006 9.417-.843-.806zm-1.82-1.741.854.792-8.069 8.704-.854-.792zm-2.749-1.04.866.777-7.773 8.658-.866-.775zm-4.061 1.769.505.482-5.632 5.888-.503-.484zm-2.216-1.38.512.477-5.092 5.436-.512-.477zm-2.366-1.511.342.317-5.516 5.993-.342-.315zm-2.644-1.333.326.33-5.788 5.725-.326-.325zm-3.272-1.49.309.35-7.652 6.804-.309-.349zm-5.195-1.394.48.508-7.946 7.517-.479-.507zm-4.184-.684.475.512-9.738 9.011-.472-.512zm-5.374-.128.307.349-11.939 10.394-.307-.349z"/><path d="m229.702 239.804-.698-.931s7.214-5.12 6.749-9.309c-.466-4.189-7.215-5.819-7.448-6.051l.233-1.164c.233 0 7.68 2.095 8.146 6.982.698 5.12-6.749 10.24-6.982 10.473z"/><path d="m209.92 242.829h-.465c-14.895-.465-19.084-4.654-19.084-4.654-.466-.466-.466-1.164 0-1.63.465-.465 1.164-.465 1.629 0 0 0 3.724 3.724 17.455 3.957 6.981.233 13.963-3.724 16.523-6.749 1.862-2.328 2.56-4.422 2.095-6.284-1.164-3.491-7.448-5.585-9.775-6.051-.698-.233-.931-.698-.931-1.396.233-.698.698-.931 1.397-.931.465 0 9.541 2.094 11.403 7.68.931 2.56 0 5.585-2.327 8.611-3.025 3.491-10.705 7.447-17.92 7.447z"/><path d="m208.291 245.389c-5.353 0-9.076-1.396-9.309-1.396l.465-1.164c.233 0 13.266 4.422 24.437-3.491 3.956-2.793 6.051-5.818 6.516-8.843.465-3.724-1.629-6.517-1.629-6.517l.931-.698c0 .233 2.56 3.258 1.862 7.447-.466 3.491-2.793 6.749-6.982 9.775-5.586 3.956-11.404 4.887-16.291 4.887z"/><path d="m223.418 238.407c-.465 0-.698-.232-.931-.465-.465-.466-.232-1.164.233-1.629 2.327-1.629 3.724-3.957 3.724-6.051 0-1.862-.931-3.724-3.026-5.12-6.982-4.887-19.549-4.189-19.549-4.189-.698 0-1.164-.466-1.164-1.164s.466-1.164 1.164-1.164c.466 0 13.498-.93 21.178 4.422 2.56 1.862 3.957 4.422 3.957 6.982 0 3.026-1.862 6.051-4.655 7.913-.465.465-.698.465-.931.465z"/><path d="m322.327 228.865s-2.094 10.24-16.291 11.637c-14.429 1.396-19.316.233-24.203-6.749-4.655-6.982 1.163-11.637 5.818-13.266 4.887-1.629 29.324-4.887 34.676 8.378z" fill="url(#U)"/><path d="m291.607 217.927s-19.083 3.491-18.618 11.404c.233 3.491 5.353 8.844 5.353 8.844s9.309 11.17 27.229 19.549c0 0-.931-3.026-7.447-9.077-3.957-3.723-18.153-9.774-18.619-18.152-.465-7.448 12.102-12.568 12.102-12.568z" fill="url(#V)" opacity=".5"/><path d="m293.236 208.618s10.706-5.585 32.815 5.353c10.938 5.353 2.327 20.945 2.327 20.945s-2.793-11.869-18.385-14.196c-17.688-2.793-28.858 3.491-30.022 4.655-3.956 4.654-3.258 9.541-1.164 12.8 0 0-7.68-3.491-7.214-12.8.931-11.171 21.643-16.757 21.643-16.757z" fill="url(#W)" opacity=".4"/><path d="m272.756 231.193c-1.629-3.491-.698-8.611-.698-8.611s7.215-13.964 31.186-14.895c26.531-.931 25.832 26.066 25.832 26.066-23.272-24.669-48.64-10.706-53.061-7.448 0 0-2.095 2.56-3.259 4.888z" fill="url(#X)" opacity=".8"/><path d="m300.684 240.036c-5.586 0-10.008-4.421-10.24-9.774 0-2.793.931-5.353 2.792-7.447 1.862-2.095 4.422-3.259 7.215-3.259h.465c5.586 0 10.008 4.422 10.24 9.775 0 2.793-.931 5.353-2.792 7.447-1.862 2.095-4.422 3.258-7.215 3.258z" fill="url(#Y)"/><path d="m300.684 220.72c4.887 0 8.843 3.956 9.076 8.844 0 2.327-.698 4.654-2.327 6.516s-3.957 2.793-6.284 2.793h-.233c-4.887 0-8.843-3.957-9.076-8.844s3.724-9.309 8.844-9.309m0-2.327h-.466c-6.283.232-11.171 5.585-10.938 11.869.233 6.051 5.353 10.938 11.404 10.938h.465c6.284-.233 11.171-5.585 10.938-11.869-.232-6.284-5.352-10.938-11.403-10.938z"/><path d="m327.913 235.615c-.698 0-1.164-.233-1.629-.931-.233-.466-6.517-11.869-23.971-13.033-21.877-1.396-26.764 9.309-26.764 9.542-.465.931-1.396 1.396-2.327.931-.931-.466-1.397-1.397-.931-2.328.233-.465 5.818-13.265 30.254-11.636 19.55 1.164 26.531 14.429 26.764 14.895.466.93 0 1.861-.698 2.327-.233.233-.466.233-.698.233z"/><path d="m305.338 229.796c0 2.571-2.084 4.655-4.654 4.655-2.571 0-4.655-2.084-4.655-4.655 0-2.57 2.084-4.654 4.655-4.654 2.57 0 4.654 2.084 4.654 4.654z"/><path d="m305.571 227.004c0 1.285-1.042 2.327-2.327 2.327-1.286 0-2.328-1.042-2.328-2.327 0-1.286 1.042-2.328 2.328-2.328 1.285 0 2.327 1.042 2.327 2.328z" fill="#fff"/><path d="m272.756 232.356c-.232 0-.465-.232-.465-.465-2.327-5.12-.233-10.007 1.396-12.102.233-.233 20.946-25.134 56.088-4.887.232.233.465.465.232.698-.232.233-.465.465-.698.233-17.92-10.24-31.884-8.378-40.262-5.12-9.309 3.723-14.196 9.774-14.196 9.774-1.396 1.862-3.258 6.284-1.164 10.938-.232.466-.465.699-.931.931.233 0 .233 0 0 0z"/><path d="m330.24 231.891c-.233 0-.465 0-.465-.233-5.12-8.145-13.266-13.033-23.739-14.429-20.945-2.56-30.487 9.309-30.72 9.309-.232.233-.465.233-.931 0-.232-.233-.232-.465 0-.931 0-.232 10.008-12.334 31.651-9.774 10.939 1.396 19.317 6.516 24.669 14.894.233.233 0 .698-.232.698 0 .233 0 .466-.233.466z"/><path d="m289.787 210.168.359.298-17.324 20.706-.359-.298z"/><path d="m279.738 239.804h-.233c-.232-.233-8.145-5.353-7.68-10.24.466-4.888 8.379-6.982 8.611-6.982.233 0 .699 0 .699.465 0 .233 0 .698-.466.698 0 0-7.447 1.862-7.913 6.051-.465 4.189 7.215 9.077 7.215 9.077.233.232.233.465.233.698-.233.233-.233.233-.466.233z"/><path d="m299.055 242.829c-7.215 0-14.895-3.956-17.92-7.447-2.56-3.026-3.259-6.051-2.328-8.611 1.862-5.586 10.938-7.447 11.404-7.68.698-.233 1.164.233 1.396.931.233.698-.232 1.163-.931 1.396-2.327.466-8.378 2.56-9.774 6.051-.698 1.862 0 3.956 2.094 6.284 2.328 2.792 9.309 6.749 16.524 6.749 13.731-.233 17.455-3.957 17.455-3.957.465-.465 1.163-.465 1.629 0 .465.466.465 1.164 0 1.63-.233.232-4.189 4.421-19.084 4.654z"/><path d="m300.684 245.389c-4.655 0-10.706-.931-16.291-4.887-4.189-2.793-6.517-6.051-6.982-9.775-.698-4.422 1.862-7.447 1.862-7.447l.931.698s-2.095 2.793-1.629 6.749c.465 3.258 2.56 6.284 6.516 8.844 11.171 7.913 24.436 3.491 24.436 3.491l.466 1.163c-.233 0-3.957 1.164-9.309 1.164z"/><path d="m285.789 238.407c-.233 0-.465 0-.698-.232-3.026-2.095-4.655-5.12-4.655-7.913s1.397-5.12 3.957-6.982c7.447-5.353 20.48-4.655 21.178-4.422.698 0 1.164.698 1.164 1.164 0 .698-.466 1.163-1.164 1.163-.233 0-12.8-.698-19.549 4.19-1.862 1.396-3.026 3.258-3.026 5.12 0 2.327 1.397 4.421 3.724 6.05.465.466.698 1.164.233 1.63-.466.232-.931.232-1.164.232zm-4.499-25.753.354.302-9.383 10.962-.354-.303zm4.667-2.025.535.451-14.141 16.694-.535-.449z"/><path d="m294.314 209.672.544.436-20.061 25.081-.547-.438zm4.033.419.545.438-9.16 11.45-.545-.435zm4.973-.705.547.433-9.16 11.45-.544-.435zm5.288-.512.545.438-9.163 11.45-.544-.438zm-.112 5.776.545.436-4.212 5.269-.547-.438zm3.242.862.547.437-4.217 5.269-.545-.435z"/><path d="m351.651 157.651h-1.164c.466-8.611 0-16.524-1.396-23.273-3.491-16.989-18.618-29.789-18.851-30.022l.698-.931c.233.233 15.826 13.033 19.317 30.488 1.396 6.982 1.861 14.894 1.396 23.738z"/><path d="m310.458 114.131c-4.654 0-9.309-.931-13.731-2.793-15.36-6.982-93.323-16.989-94.022-16.989l.233-1.164c3.258.466 78.895 10.24 94.487 17.222 15.593 6.982 33.28-.931 37.47-6.051 3.956-4.887 7.912-18.851 5.585-22.574-2.327-3.724-27.927-22.109-37.004-25.367-8.843-3.026-37.003-5.586-37.469-5.586v-1.164c1.164 0 28.626 2.328 37.702 5.586 8.844 3.025 34.676 21.411 37.469 25.833 2.793 4.189-1.629 19.083-5.585 23.971-3.724 4.189-13.964 9.076-25.135 9.076z"/><path d="m314.647 110.873c-4.422 0-9.309-1.164-13.963-3.491-13.033-6.051-88.204-14.662-89.135-14.662l.233-1.164c3.025.233 76.334 8.611 89.367 14.895 12.567 5.818 24.669 3.724 31.651-5.818 4.189-5.818 7.913-12.568 3.258-18.851-5.585-7.215-40.262-33.746-76.567-30.72v-1.164c36.771-3.258 71.913 23.971 77.498 30.953 5.353 6.749 1.396 13.964-3.258 20.247-4.655 6.517-11.404 9.775-19.084 9.775zm56.088 49.338c0-.233-2.793-12.567-11.87-26.066-10.938-16.29-21.178-25.367-21.41-25.367l1.629-1.862s10.472 9.309 21.643 25.833c9.309 13.731 12.102 26.298 12.102 26.764z"/><path d="m373.062 157.418h-1.164s.233-8.145-12.334-30.022c-10.473-18.152-25.6-26.298-25.833-26.298l.465-.931c.233 0 15.593 8.146 26.299 26.764 13.032 22.109 12.8 30.022 12.567 30.487zm-3.026 10.24c-6.051-15.593-16.523-26.065-16.523-26.065l.931-.931s10.705 10.705 16.756 26.531zm-2.327-38.4c-4.189-16.291-29.324-33.28-29.556-33.513l.698-.93c1.164.698 25.833 17.454 30.022 33.978zm3.258 50.735c-6.516-16.757-17.222-24.437-17.222-24.669l.699-.931s11.171 8.145 17.687 25.134zm0 23.04c-2.094-26.531-17.687-40.495-17.92-40.728l.698-.93c.233.232 16.291 14.429 18.153 41.425z"/><path d="m370.036 204.895c-7.447-20.48-17.221-26.997-17.221-26.997l.698-.931c.465.233 10.24 6.749 17.687 27.695zm-34.211-107.055-1.163-.465c2.094-5.353 1.862-10.706-.931-15.593-6.982-12.102-29.091-21.644-60.742-26.298-38.4-5.819-69.818 16.756-70.051 16.989l-.698-.931c.233-.233 32.349-23.04 70.982-17.222 31.883 4.655 54.458 14.662 61.44 26.996 3.258 5.12 3.491 10.706 1.163 16.524z"/><path d="m328.844 105.52-.931-.698c3.723-6.517 4.654-12.102 2.327-17.687-4.422-10.473-20.48-19.55-48.175-26.764-48.64-12.567-79.127 22.574-79.592 22.807l-.931-.698c.233-.465 31.418-36.073 80.756-23.273 27.927 7.215 44.451 16.524 48.873 27.462 2.56 5.818 1.629 12.102-2.327 18.851z"/><path d="m310.924 112.735v-2.328c5.12 0 15.36-6.749 16.989-13.731 1.629-6.981-1.862-20.247-42.589-32.349-40.262-11.869-83.317 21.178-83.782 21.411l-1.397-1.862c.466-.232 44.451-34.211 85.877-21.876 42.589 12.567 46.08 27.462 44.218 35.142-1.629 7.68-12.8 15.593-19.316 15.593z"/><path d="m316.509 109.011c-10.007 0-23.04-3.956-40.727-9.542l-3.724-1.164c-31.883-9.774-71.214-3.025-71.68-3.025l-.465-2.327c.465 0 40.262-6.982 72.611 3.025l3.723 1.164c29.557 9.076 45.848 14.196 55.855 2.793l1.862 1.629c-4.422 5.352-10.008 7.447-17.455 7.447zm-155.462.698-2.094-.931c.232-.465 5.585-12.8 14.196-22.342 12.8-14.429 27.927-18.152 28.626-18.152l.465 2.327c-.233 0-14.895 3.491-27.229 17.454-8.611 9.31-13.964 21.411-13.964 21.644z"/><path d="m165.702 111.105h-1.164c0-.232 0-8.378 9.309-21.643 9.309-13.266 26.531-15.36 26.764-15.36l.233 1.163c-.233 0-16.989 2.095-26.066 14.895-9.076 12.8-9.076 20.945-9.076 20.945z"/><path d="m166.865 112.036-1.163-.232c0-.233 3.491-24.204 25.6-31.186l.465 1.164c-21.643 6.982-24.902 30.022-24.902 30.254z"/><path d="m144.291 143.455-1.164-.466c11.171-33.978 49.338-44.916 49.571-44.916l.233 1.163c-.233.233-37.702 10.939-48.64 44.219z"/><path d="m144.291 145.084-1.164-.466c8.844-21.643 34.211-34.676 34.444-34.909l.465.931c-.232.465-24.901 13.265-33.745 34.444z"/><path d="m143.36 158.349-1.164-.465c7.448-20.713 20.713-31.186 20.713-31.186l.698.931s-13.032 10.24-20.247 30.72zm-.931 11.869-1.164-.465c4.655-10.24 13.266-19.084 13.266-19.084l.931.698s-8.378 8.844-13.033 18.851zm.931 5.353-.931-.698c6.051-10.008 11.171-12.8 11.404-12.8l.465.931c.233.232-4.887 2.792-10.938 12.567zm.465 35.374-1.163-.232c3.025-13.731 11.403-24.669 11.636-24.669l.931.698c0 .233-8.378 10.705-11.404 24.203zm-1.396-8.378-1.164-.465c3.957-9.542 10.939-20.015 11.171-20.015l.931.698s-6.982 10.24-10.938 19.782zm99.247 14.394.826.815-11.62 11.753-.826-.819zm.3 2.847.498.488-11.753 11.946-.496-.488zm-.652 3.612.484.498-14.049 13.591-.489-.5zm-.689 4.491.494.489-10.729 10.671-.489-.496zm2.565 206.918c-.233 0-.465-.233-.465-.465-2.793-7.215-2.328-23.739-1.397-26.531.931-3.026 16.524-6.749 19.549-7.448.233 0 .698.233.698.466s-.232.698-.465.698c-8.844 1.862-18.385 4.887-18.851 6.516-.698 2.56-1.164 18.851 1.396 25.833.233.466 0 .698-.465.931z"/><path d="m236.451 408.531c-.233 0-.466-.233-.466-.466 0-.232.233-.698.466-.698 17.687-2.327 20.945-3.258 28.858-5.585 2.095-.698 4.189-1.397 7.215-2.095.232 0 .698 0 .698.466 0 .232 0 .698-.466.698-2.792.931-5.12 1.629-7.214 2.094-7.68 2.328-11.171 3.259-29.091 5.586z"/><path d="m225.978 407.6c-.233 0-.465-.233-.465-.465 0-.233.232-.699.465-.699 22.109-1.163 56.32-9.541 56.553-9.541s.698 0 .698.465c0 .233 0 .698-.465.698-.233.233-34.444 8.611-56.786 9.542z"/><path d="m247.389 402.945c-12.8 0-20.014-3.258-34.211-10.24-19.782-9.774-34.909-34.21-34.909-34.443-.233-.233 0-.698.233-.698.233-.233.698 0 .698.232.233.233 15.127 24.669 34.444 34.211 19.781 9.775 26.065 12.102 53.527 8.378 28.625-3.956 41.193-14.196 53.062-30.487.232-.233.465-.233.698-.233.233.233.233.466.233.699-12.102 16.756-24.902 26.996-53.993 31.185-7.913.931-14.429 1.396-19.782 1.396zm-33.28-158.021-.233-1.164c18.619-3.956 20.248-14.895 20.248-15.127l1.163.232c0 .466-1.629 12.102-21.178 16.059z"/><path d="m335.36 202.102c16.058 14.196 14.895 26.996 14.895 26.996s-8.844-16.058-31.884-19.083c-23.04-3.259-50.269 6.05-50.269 6.05s-5.12-14.894 8.378-21.41c12.335-6.284 42.822-6.982 58.88 7.447z" fill="url(#Z)"/><path d="m350.953 232.822-1.862-3.258c0-.233-8.844-15.36-30.953-18.619-22.574-3.025-49.571 6.051-49.803 6.051l-1.164.466-.466-1.164c0-.233-5.352-15.825 8.844-22.807 13.266-6.516 43.986-6.749 60.276 7.68 16.291 14.429 15.36 27.462 15.36 27.927zm-42.822-24.669c3.491 0 6.982.232 10.24.698 16.756 2.327 26.065 10.938 30.254 16.058-.93-4.654-4.189-13.033-14.196-21.876-14.894-13.266-44.916-13.498-57.716-7.215-10.473 5.12-8.844 15.593-7.913 18.851 4.655-1.629 21.876-6.516 39.331-6.516z"/><path d="m322.095 211.178-.699-.931c.233-.232 4.888-2.792 14.895-.465l-.233 1.163c-9.542-2.327-13.963.233-13.963.233zm17.92 3.026c-5.586-2.095-9.542-.931-9.542-.931l-.233-1.164c.233 0 4.422-1.164 10.24.931zm3.49 3.723c-4.421-2.327-7.912-1.629-7.912-1.629l-.233-1.163c.233 0 3.956-.699 8.611 1.861zm-74.24-2.56c0-.232-1.396-6.283.233-10.938l1.164.466c-1.397 4.421-.233 10.24-.233 10.24zm2.328-1.396c0-.233-1.629-7.215 2.094-16.524 0-.232.233-.698.931-.698.233 0 .466 0 .466.466.931-1.862 2.094-4.19 3.258-6.284l.931.698c-2.56 3.956-4.655 9.542-4.655 9.542l-1.163-.233c-2.328 7.447-1.164 12.567-.931 12.8zm3.258 0s-.466-11.636 6.982-23.506l.931.699c-7.215 11.636-6.749 22.807-6.749 23.04zm4.189-1.164h-1.164s.699-10.472 7.215-23.505l.931.465c-6.284 12.568-6.982 22.808-6.982 23.04zm3.491-1.163h-1.164s.931-11.171 7.68-23.739l.931.466c-6.516 12.334-7.447 23.273-7.447 23.273zm3.956-.699h-1.163c0-.232.232-5.585 4.654-16.058l1.164.466c-4.189 10.24-4.655 15.592-4.655 15.592z"/><path d="m267.404 215.833c0-.233-2.56-7.68.232-17.455l1.164.233c-2.56 9.542-.233 16.756-.233 16.756zm-1.862 1.629c0-.233-2.327-5.353-1.397-12.335l1.164.233c-.698 6.749 1.396 11.636 1.396 11.869zm35.84-7.68-.466-.931c.466-.233 9.542-5.353 23.04-4.422v1.164c-13.265-1.164-22.341 3.956-22.574 4.189zm45.614 21.411s-1.163-6.051-14.894-14.197c-9.775-5.818-25.6-5.818-37.469-4.887-12.8.931-23.273 3.491-23.506 3.491l-.232-.465s10.705-2.328 23.505-3.491c21.411-1.629 32.349 1.861 37.702 5.12 13.963 8.378 15.127 14.196 15.127 14.661z"/></svg>