<svg xmlns="http://www.w3.org/2000/svg" width="100.001" height="100.001" viewBox="0, 0, 220, 220"><path fill="none" d="M0 0h220v220H0z"/><defs><linearGradient id="a" gradientUnits="userSpaceOnUse" x1="109.975" y1="165.3" x2="109.975" y2="219.8"><stop offset="0" stop-color="#28283C"/><stop offset="1" stop-color="#0A0A1E"/></linearGradient><linearGradient id="b" gradientUnits="userSpaceOnUse" x1="65.85" y1="169.27" x2="100.939" y2="169.27"><stop offset="0" stop-color="#DCAF91"/><stop offset="1" stop-color="#BE9173"/></linearGradient><linearGradient id="c" gradientUnits="userSpaceOnUse" x1="122.543" y1="186.8" x2="122.543" y2="172.119"><stop offset="0" stop-color="#F0C3A5"/><stop offset="1" stop-color="#DCAF91"/></linearGradient><linearGradient id="d" gradientUnits="userSpaceOnUse" x1="63.31" y1="97.926" x2="63.31" y2="114.099"><stop offset="0" stop-color="#FFE6C8"/><stop offset="1" stop-color="#E6B99B"/></linearGradient><linearGradient id="e" gradientUnits="userSpaceOnUse" x1="63.905" y1="119.996" x2="63.905" y2="100.16"><stop offset="0" stop-color="#EBD2B4"/><stop offset="1" stop-color="#96694B"/></linearGradient><linearGradient id="f" gradientUnits="userSpaceOnUse" x1="59.34" y1="98.267" x2="59.34" y2="121.251"><stop offset="0" stop-color="#FFE6C8"/><stop offset="1" stop-color="#E6B99B"/></linearGradient><linearGradient id="g" gradientUnits="userSpaceOnUse" x1="63.211" y1="126.181" x2="63.211" y2="99.968"><stop offset="0" stop-color="#F0C3A5"/><stop offset="1" stop-color="#DCAF91"/></linearGradient><linearGradient id="h" gradientUnits="userSpaceOnUse" x1="155.07" y1="126.181" x2="155.07" y2="99.968"><stop offset="0" stop-color="#F0C3A5"/><stop offset="1" stop-color="#DCAF91"/></linearGradient><linearGradient id="i" gradientUnits="userSpaceOnUse" x1="154.375" y1="119.996" x2="154.375" y2="100.16"><stop offset="0" stop-color="#EBD2B4"/><stop offset="1" stop-color="#96694B"/></linearGradient><linearGradient id="j" gradientUnits="userSpaceOnUse" x1="154.97" y1="97.926" x2="154.97" y2="114.099"><stop offset="0" stop-color="#FFE6C8"/><stop offset="1" stop-color="#E6B99B"/></linearGradient><linearGradient id="k" gradientUnits="userSpaceOnUse" x1="158.94" y1="98.267" x2="158.94" y2="121.251"><stop offset="0" stop-color="#FFE6C8"/><stop offset="1" stop-color="#E6B99B"/></linearGradient><linearGradient id="l" gradientUnits="userSpaceOnUse" x1="151.32" y1="38.504" x2="151.32" y2="72.871"><stop offset="0" stop-color="#505064"/><stop offset="1" stop-color="#323246"/></linearGradient><linearGradient id="m" gradientUnits="userSpaceOnUse" x1="151.763" y1="20.856" x2="151.763" y2="67.08"><stop offset="0" stop-color="#505064"/><stop offset="1" stop-color="#323246"/></linearGradient><linearGradient id="n" gradientUnits="userSpaceOnUse" x1="109.539" y1="41.13" x2="109.539" y2="150.574"><stop offset="0" stop-color="#FFE6C8"/><stop offset="1" stop-color="#E6B99B"/></linearGradient><linearGradient id="o" gradientUnits="userSpaceOnUse" x1="145.345" y1="35.25" x2="61.64" y2="67.549"><stop offset="0" stop-color="#3C3C50"/><stop offset="1" stop-color="#1E1E32"/></linearGradient><linearGradient id="p" gradientUnits="userSpaceOnUse" x1="144.001" y1="31.866" x2="59.126" y2="64.616"><stop offset="0" stop-color="#3C3C50"/><stop offset="1" stop-color="#1E1E32"/></linearGradient><linearGradient id="q" gradientUnits="userSpaceOnUse" x1="105.765" y1="147.58" x2="105.765" y2="171.068"><stop offset="0" stop-color="#F0C3A5"/><stop offset="1" stop-color="#DCAF91"/></linearGradient><linearGradient id="r" gradientUnits="userSpaceOnUse" x1="110.045" y1="147.925" x2="110.045" y2="92.448"><stop offset="0" stop-color="#DCAF91"/><stop offset="1" stop-color="#A04646"/></linearGradient><linearGradient id="s" gradientUnits="userSpaceOnUse" x1="129.692" y1="130.904" x2="117.665" y2="120.493"><stop offset="0" stop-color="#F0C3A5"/><stop offset="1" stop-color="#D2A587"/></linearGradient><linearGradient id="t" gradientUnits="userSpaceOnUse" x1="109.415" y1="137.8" x2="109.415" y2="152.709"><stop offset="0" stop-color="#DCAF91"/><stop offset="1" stop-color="#A04646"/></linearGradient><linearGradient id="u" gradientUnits="userSpaceOnUse" x1="119.045" y1="146.729" x2="119.045" y2="147.082"><stop offset="0" stop-color="#DCAF91"/><stop offset="1" stop-color="#BE9173"/></linearGradient><linearGradient id="v" gradientUnits="userSpaceOnUse" x1="110.058" y1="108.711" x2="110.058" y2="127.652"><stop offset="0" stop-color="#F0C3A5"/><stop offset="1" stop-color="#D2A587"/></linearGradient><linearGradient id="w" gradientUnits="userSpaceOnUse" x1="109.23" y1="132.878" x2="109.23" y2="128.236"><stop offset="0" stop-color="#F0C3A5"/><stop offset="1" stop-color="#D2A587"/></linearGradient><linearGradient id="x" gradientUnits="userSpaceOnUse" x1="91.985" y1="133.686" x2="100.319" y2="125.352"><stop offset="0" stop-color="#F0C3A5"/><stop offset="1" stop-color="#D2A587"/></linearGradient><linearGradient id="y" gradientUnits="userSpaceOnUse" x1="73.16" y1="43.655" x2="73.16" y2="87.232"><stop offset="0" stop-color="#F0C3A5"/><stop offset="1" stop-color="#D2A587"/></linearGradient><linearGradient id="z" gradientUnits="userSpaceOnUse" x1="145.841" y1="47.515" x2="65.111" y2="78.665"><stop offset="0" stop-color="#3C3C50"/><stop offset="1" stop-color="#1E1E32"/></linearGradient><linearGradient id="A" gradientUnits="userSpaceOnUse" x1="70.588" y1="95.59" x2="63.708" y2="98.245"><stop offset="0" stop-color="#3C3C50"/><stop offset="1" stop-color="#1E1E32"/></linearGradient><linearGradient id="B" gradientUnits="userSpaceOnUse" x1="109.374" y1="66.466" x2="109.374" y2="159.488"><stop offset="0" stop-color="#F0C3A5"/><stop offset="1" stop-color="#DCAF91"/></linearGradient><linearGradient id="C" gradientUnits="userSpaceOnUse" x1="448.22" y1="95.385" x2="463.773" y2="95.385" gradientTransform="matrix(-1 0 0 1 594.702 0)"><stop offset="0" stop-color="#EBD2B4"/><stop offset="1" stop-color="#96694B"/></linearGradient><linearGradient id="D" gradientUnits="userSpaceOnUse" x1="71.959" y1="93.601" x2="89.277" y2="93.601"><stop offset="0" stop-color="#EBD2B4"/><stop offset="1" stop-color="#96694B"/></linearGradient><linearGradient id="E" gradientUnits="userSpaceOnUse" x1="87.057" y1="79.55" x2="87.057" y2="93.82"><stop offset="0" stop-color="#505064"/><stop offset="1" stop-color="#323246"/></linearGradient><linearGradient id="F" gradientUnits="userSpaceOnUse" x1="63.55" y1="114.257" x2="63.55" y2="123.031" gradientTransform="rotate(5.13 293.525 403.677)"><stop offset="0" stop-color="#E6E6E6"/><stop offset="1" stop-color="#FAFAFA"/></linearGradient><linearGradient id="G" gradientUnits="userSpaceOnUse" x1="61.946" y1="130.569" x2="72.343" y2="114.341" gradientTransform="rotate(5.13 293.525 403.677)"><stop offset="0" stop-color="#DCAF91"/><stop offset="1" stop-color="#BE9173"/></linearGradient><linearGradient id="H" gradientUnits="userSpaceOnUse" x1="67.118" y1="103.446" x2="79.878" y2="103.446" gradientTransform="rotate(2 286.277 400.844)"><stop offset="0" stop-color="#EBD2B4"/><stop offset="1" stop-color="#96694B"/></linearGradient><linearGradient id="I" gradientUnits="userSpaceOnUse" x1="51.826" y1="115.051" x2="76.043" y2="115.051" gradientTransform="rotate(5.13 293.525 403.677)"><stop offset="0" stop-color="#DCAF91"/><stop offset="1" stop-color="#BE9173"/></linearGradient><radialGradient id="J" gradientUnits="userSpaceOnUse" cx="89.552" cy="99.566" r="4.4"><stop offset="0" stop-color="#505064"/><stop offset="1" stop-color="#141428"/></radialGradient><linearGradient id="K" gradientUnits="userSpaceOnUse" x1="501.643" y1="75.953" x2="501.643" y2="84.728" gradientTransform="rotate(175 311.69 1.6)"><stop offset="0" stop-color="#E6E6E6"/><stop offset="1" stop-color="#FAFAFA"/></linearGradient><linearGradient id="L" gradientUnits="userSpaceOnUse" x1="500.04" y1="92.265" x2="510.437" y2="76.037" gradientTransform="rotate(175 311.69 1.6)"><stop offset="0" stop-color="#DCAF91"/><stop offset="1" stop-color="#BE9173"/></linearGradient><linearGradient id="M" gradientUnits="userSpaceOnUse" x1="506.612" y1="88.099" x2="519.387" y2="88.099" gradientTransform="rotate(178 322.36 .755)"><stop offset="0" stop-color="#EBD2B4"/><stop offset="1" stop-color="#96694B"/></linearGradient><linearGradient id="N" gradientUnits="userSpaceOnUse" x1="489.919" y1="76.748" x2="514.136" y2="76.748" gradientTransform="rotate(175 311.69 1.6)"><stop offset="0" stop-color="#DCAF91"/><stop offset="1" stop-color="#BE9173"/></linearGradient><radialGradient id="O" gradientUnits="userSpaceOnUse" cx="129.187" cy="99.566" r="4.4"><stop offset="0" stop-color="#505064"/><stop offset="1" stop-color="#141428"/></radialGradient><linearGradient id="P" gradientUnits="userSpaceOnUse" x1="118.903" y1="85.108" x2="149.826" y2="100.266"><stop offset="0" stop-color="#505064"/><stop offset="1" stop-color="#1E1E32"/></linearGradient></defs><path d="M69.6 165.8c5-2.5 9.5-6.5 9.5-6.5h.2c-.2 1-.5 2.2-.7 3.5-.9 5.4 8.6 21.4 25.6 24.5 1.9.4 3.8.5 5.9.5 20.7 0 30.4-17.4 31-23 .2-2.1.1-3.5-.1-5.4.7.6 4.8 4.1 9.4 6.4 5 2.5 38 18.5 44 23.2 6 4.7 13.5 10.5 14.8 14 1.3 3.5 2.5 17 2.5 17H8.3s1.2-13.5 2.5-17 8.8-9.2 14.8-14c6-4.8 39-20.7 44-23.2z" fill="url(#a)"/><path d="M117.6 151.3l.7 20.3s-12.2 3.2-13.8 4.5c-1.2 1-.6 8.5-.4 11.2-17-3.1-26.5-19.1-25.6-24.5.2-1.3.4-2.4.7-3.5.6-2.8 1.2-4.5 1.2-4.5l37.2-3.5z" fill="url(#b)"/><path d="M141 159.4c.2 1.9.4 3.3.1 5.4-.6 5.6-10.3 23-31 23-2 0-4-.2-5.9-.5-.3-2.8-.9-10.2.4-11.2 1.5-1.2 13.8-4.5 13.8-4.5l-.7-20.3 22.5-2.1c.1 5.2.5 8 .8 10.2z" fill="url(#c)"/><path d="M110.1 188.3c-2 0-4-.2-5.9-.5-16.9-3.1-27-19.2-26.1-25 .2-1.2.4-2.4.7-3.5.6-2.8 1.1-4.5 1.2-4.6l.1-.3 60.5-5.8v.5c.2 4.9.5 7.7.8 9.8l.1.5c.2 1.9.4 3.4.1 5.5-.6 4.9-9.8 23.4-31.5 23.4zm-29.3-33c-.2.6-.6 2.1-1.1 4.2-.2 1.1-.5 2.3-.7 3.4-.8 4.8 8 20.8 25.2 23.9 1.8.3 3.8.5 5.8.5 21 0 30-17.8 30.5-22.6.2-2 .1-3.4-.1-5.3l-.1-.4c-.3-2-.6-4.7-.8-9.3l-58.7 5.6z"/><path d="M211.6 221H8.3c-.3 0-.5-.1-.7-.3-.2-.2-.3-.5-.3-.8.1-.6 1.3-13.7 2.6-17.2s7.7-8.6 13.9-13.5l1.2-.9c5.3-4.2 31.3-17 41.1-21.8 1.4-.7 2.5-1.2 3.1-1.5 4.8-2.4 9.2-6.3 9.3-6.4.4-.4 1-.3 1.4.1.4.4.3 1-.1 1.4-.2.2-4.7 4.1-9.7 6.6-.6.3-1.7.8-3.1 1.5-9.7 4.8-35.6 17.5-40.7 21.6l-1.2.9c-5.4 4.3-12.2 9.6-13.3 12.6-1 2.8-2 12.4-2.3 15.7h201c-.3-3.3-1.3-12.9-2.3-15.7-1.1-3-7.8-8.3-13.3-12.6l-1.2-.9c-5.2-4.1-31-16.8-40.7-21.6-1.4-.7-2.5-1.2-3.1-1.5-4.8-2.4-9.1-6.1-9.6-6.6-.4-.4-.5-1-.1-1.4.4-.4 1-.5 1.4-.1.5.4 4.6 4 9.2 6.3.6.3 1.7.8 3.1 1.5 9.8 4.8 35.8 17.6 41.1 21.8l1.2.9c6.2 4.9 12.6 10 13.9 13.5 1.3 3.6 2.5 16.7 2.6 17.2 0 .3-.1.6-.3.8-.2.2-.5.4-.8.4z"/><path d="M141 159.6c-.1 0-.1 0-.2-.1l-.1-.1c-.1-.1-.1-.2 0-.3.1-.1.2-.1.3 0l.1.1c.1.1.1.2 0 .4h-.1z"/><path d="M66 115.9c-.4-1.2-3.2-9-4.4-13.5-.2-.9-.6-1.6-1-2.2-.1-1.2-.1-2.1-.1-2.6 2.1 1.4 2.8 4.8 2.8 4.8l2.7 13.5z" fill="url(#d)"/><path d="M61.6 102.4c1.2 4.5 4 12.2 4.4 13.5v.1l1.1 5.7c-4-.9-3.5-8.7-4.4-11.3-1.4-4-1.9-7.6-2.1-10.1.4.5.8 1.2 1 2.1z" fill="url(#e)"/><path d="M60.6 97.7c0 .5 0 1.4.1 2.6-1-1.5-2.2-2-2.6-2.1.1-.7.4-1 1.1-1 .5 0 1 .2 1.4.5z" fill="url(#f)"/><path d="M62.4 118.8c-1.3-8.9-4.9-17.8-4.4-20.7.4.1 1.7.6 2.6 2.1.2 2.4.7 6.1 2.1 10.1.9 2.6.4 10.5 4.4 11.3l1.3 6.5c-3.3 2-5.2-3.8-6-9.3z" fill="url(#g)"/><path d="M67.1 129c-.4 0-.7-.1-1.1-.2-2.5-1.2-3.7-6.7-4.1-9.9-.6-4.3-1.8-8.7-2.8-12.3-1-3.9-1.9-7-1.6-8.6.2-1.3 1.1-1.4 1.6-1.4.6.1 1.2.3 1.7.6 2.3 1.5 3 5 3.1 5.1l2.6 13.4-1 .2-2.6-13.4s-.7-3.3-2.6-4.5c-.4-.2-.8-.4-1.3-.4-.2 0-.4 0-.5.6-.2 1.4.6 4.5 1.6 8.1 1 3.6 2.2 8 2.8 12.4.7 5 2.1 8.4 3.6 9.2.4.2.9.2 1.4 0l-2.3-11.8 1-.2 2.4 12.5-.3.2c-.5.3-1.1.4-1.6.4z"/><path d="M64.7 112.8c-.1 0-.2-.1-.2-.2s-1.8-6.4-3.1-10.1c-1.3-3.6-3.6-4.2-3.6-4.2-.1 0-.2-.2-.2-.3 0-.1.2-.2.3-.2.1 0 2.5.7 3.9 4.5 1.4 3.7 3.1 10.1 3.1 10.1.1.2 0 .4-.2.4.1 0 0 0 0 0z"/><path d="M63.7 116.2c-.1 0-.1-.1-.1-.1-.1-1.3-.6-4.7-1-5.7-2.4-7-2.3-9.8-2.3-9.9 0-.1.1-.1.1-.1.1 0 .1.1.1.1s-.1 2.9 2.2 9.8c.4 1.1.9 4.4 1 5.8.1 0 .1.1 0 .1z"/><path d="M155.6 110.3c-.9 2.6-.4 10.5-4.4 11.3l-1.3 6.5c3.3 2 5.2-3.8 6-9.3 1.3-8.9 4.8-17.8 4.4-20.7-.5.1-1.7.6-2.6 2.1-.2 2.5-.7 6.1-2.1 10.1z" fill="url(#h)"/><path d="M155.6 110.3c1.4-4 1.9-7.6 2.1-10.1-.4.6-.7 1.3-1 2.2-1.2 4.5-4 12.2-4.4 13.5v.1l-1.1 5.7c3.9-.9 3.4-8.8 4.4-11.4z" fill="url(#i)"/><path d="M157.7 97.7c-2.1 1.4-2.8 4.8-2.8 4.8l-2.6 13.4c.5-1.2 3.2-9 4.4-13.5.2-.9.6-1.6 1-2.2v-2.5z" fill="url(#j)"/><path d="M157.7 97.7c0 .5 0 1.4-.1 2.6 1-1.5 2.2-2 2.6-2.1-.1-.7-.4-1-1.1-1-.5 0-1 .2-1.4.5z" fill="url(#k)"/><path d="M151.1 129c-.5 0-1-.2-1.6-.5l-.3-.2 2.4-12.5 1 .2-2.3 11.8c.5.2.9.2 1.4 0 1.5-.7 2.9-4.1 3.6-9.2.6-4.4 1.8-8.8 2.8-12.4 1-3.6 1.8-6.8 1.6-8.1-.1-.6-.3-.6-.5-.5-.4 0-.9.2-1.3.4-1.9 1.2-2.6 4.5-2.6 4.5l-2.6 13.4-1-.2 2.6-13.4c0-.2.8-3.7 3.1-5.1.5-.3 1.1-.5 1.7-.6.5 0 1.4.1 1.6 1.4.2 1.6-.6 4.7-1.6 8.6-1 3.5-2.1 8-2.8 12.3-.5 3.2-1.6 8.7-4.1 9.9-.3.2-.7.2-1.1.2z"/><path d="M152.7 116.1l-1-.3 1 .2zM153.6 112.8c-.1 0-.1 0 0 0-.2 0-.3-.2-.2-.3 0-.1 1.8-6.4 3.1-10.1 1.4-3.8 3.8-4.5 3.9-4.5.1 0 .3 0 .3.2 0 .1 0 .3-.2.3 0 0-2.3.7-3.6 4.2-1.4 3.7-3.1 10-3.1 10.1 0 0-.1.1-.2.1z"/><path d="M154.6 116.2c-.1 0-.1-.1-.1-.1.1-1.4.6-4.7 1-5.8 2.4-6.9 2.2-9.8 2.2-9.8 0-.1 0-.1.1-.1s.1 0 .1.1.2 3-2.3 9.9c-.4 1.1-.9 4.4-1 5.7.1 0 .1.1 0 .1z"/><path d="M159.1 61.8c1 14 .8 26.8-.2 30.1-.5 1.7-2.7 3.9-3.8 4.9v-2.5c.1-17.5.4-32.6-6.8-43.2-1.5-2.2-3.3-4.2-5.5-6 2.6-2.5 4.3-5 5.2-6.3-.2 1-.6 1.7-.6 1.7s10.7 8 11.7 21.3z" fill="url(#l)"/><path d="M152.9 91.3c0-.1 0-.2-.1-.2-1.2-4.3-.8-18.9-.8-22.2 0-4.1.7-9.7-3.7-17.8 7.1 10.6 6.8 25.7 6.8 43.2v2.5c0 1-.1 2.1-.1 3.1-.2-1.1-1.3-5.6-2.1-8.6z" fill="url(#m)"/><path d="M102.5 119.6c-2.3 3.4-6.1 9-10.3 14.7.4-.4 5.9-5.9 10.7-8.1.8.9 2 1.5 3.2 1.8-.1.9-.4 2.5-.8 3.9 0 0 3.7 3.2 7.5.2 0 0-.3-2.2-.4-3.8 3.6-.5 5.2-1.8 5.6-3.3 4.9 3.7 9.7 5.5 10 5.6-6.5-5.4-11.2-13.7-12.5-16-.2-.7-.3-1.3-.5-1.9-.8-1.8-1.3-3-1.3-3 .1 10.8 2.4 11.2 2 14-.2 1.5-4 1.6-5.8 1.6-5.2 0-6-4-6-4s-1.2 2.5-2.1.7c.2-.6.4-1.4.7-2.4zm23.1 21.8c-1-.1-2.8-.3-4.9-.7-2.5-.6-4.1-1.5-6-1.5-1.8-.1-3 .4-4.8.4-1.8 0-3.8-.8-4.6-.8-.8 0-2.9.8-6.2 1.7-3.2.9-5.9 1.2-5.9 1.2v.2c.2 0 .4 0 .6.1v.1s3 .7 4.8 2.3c1.5 1.3 2 2.4 4.4 3 4.9 1.1 10.5.7 14.9-.1-2.1.5-4.7.9-7.7 1-5.5 0-13.8-2.4-13.8-2.4-2.3.5-6.6 5.2-8.1 4.7-6.7-2.2-3.3-26.6-6.8-31.3-5.5-7.5-12.1-9-14.9-15.2-1.6-3.4-1.7-7.3-.9-12h.1s6.6-10.6 6.1-19.1c-.5-8.5-1.1-16.7 8.4-28 1.7-1.2 3.4-2.3 5.1-3.2 1.5-.3 3.3-.4 5.2-.4 11 0 35.2 5.7 40.8 7.3 5.5 1.6 10.9-3.1 11.2-3.3l.1-.1c2.2 1.8 4 3.8 5.5 6 4.4 8 3.7 13.6 3.7 17.8 0 3.3-.5 17.9.8 22.2 0 .1 0 .1.1.2.3 2.8 1 7.3.9 10.7-.2 5.3-1.6 9.8-3.3 10.7-7.7 4.3-9.2 7.5-12 22.1-2.9 14.9-4.2 16.1-7.2 16-3-.2-6.4-6.6-6.4-6.6s-1.7 1.2-4.7 2.2c2.6-1.2 3.4-3.8 6.2-5.1-.1-.1-.3-.1-.7-.1z" fill="url(#n)"/><path d="M68.4 58.8c-3.9 8.9-4.5 20.5-4.8 36.5v1.1c-.6-1-1.3-2.3-1.4-3.1 0 0-1.8-11.9-.5-26.8 1.1-12.4 7-19.3 7-19.3s.9-6.8 6-11.3c6-5.3 19.7-11 27.3-13 7.7-2 25-.7 28.3.7 3.3 1.3 17 9.7 17.7 12 .3 1.1.2 2.3-.1 3.3-.8 1.3-2.6 3.9-5.2 6.3-3.8-3.1-8.9-5.6-15.4-7.3-20.7-5.3-30.6-3-41.9 3.8-1.6 1-3.3 2.1-5.1 3.2-5.6 3.8-9.4 8.3-11.9 13.9z" fill="url(#o)"/><path d="M142.8 45.1c-.3.2-5.6 5-11.2 3.3-5.7-1.7-29.8-7.3-40.8-7.3-1.9 0-3.7.2-5.2.4 11.2-6.8 21.1-9.1 41.9-3.8 6.6 1.7 11.6 4.1 15.4 7.3 0 .1-.1.2-.1.1z" fill="url(#p)"/><path d="M126 162.6c2.4.4 6.3 1 10.2-1.1-3.3 3.7-6.8 6.3-10.1 8.4-7.4 4.8-22.9 3.5-29.3 1-5.7-2.2-15-7.4-21.4-18.7 3.4 3.9 12 12.9 18.7 10.5 4.5-1.7 5.8-6.4 11.8-7.5 3.3-.6 8.2-1.3 11.8-.5 3.4.7 6.9 7.6 8.3 7.9z" fill="url(#q)"/><path d="M126.2 141.4c-2.8 1.3-3.6 3.9-6.2 5.1-.6.2-1.3.4-2 .6-4.4.8-10 1.2-14.9.1-2.4-.5-3-1.7-4.4-3-1.9-1.7-4.8-2.3-4.8-2.3v-.1c2 .2 6.8.8 15.6 1.5 8 .7 13.3-.8 16.1-1.9h.6z" fill="url(#r)"/><path d="M128.2 130.6c-.3-.1-5.2-1.9-10-5.6.3-1.1.1-2.3-.4-3.5-.9-2.3-1.6-4.7-2.1-6.8 1.2 2.3 5.9 10.5 12.5 15.9z" fill="url(#s)"/><path d="M120.7 140.7c2 .4 3.9.6 4.9.7-2.8 1.1-8.1 2.6-16.1 1.9-8.8-.7-13.7-1.3-15.6-1.5-.2 0-.5-.1-.6-.1v-.2s2.7-.2 5.9-1.2c3.2-.9 5.3-1.7 6.2-1.7.8 0 2.8.8 4.6.8 1.8 0 3-.5 4.8-.4 1.8.2 3.4 1.1 5.9 1.7z" fill="url(#t)"/><path d="M120.1 146.5c-.5.2-1 .4-1.6.5-.1 0-.3 0-.4.1.7-.2 1.3-.4 2-.6z" fill="url(#u)"/><path d="M106.2 128c-1.2-.4-2.4-.9-3.2-1.8-.9-.9-1.3-2.2-1.1-4 1 1.7 2.1-.7 2.1-.7s.8 4 6 4c1.8 0 5.6-.1 5.8-1.6.4-2.8-1.8-3.2-2-14 0 0 .5 1.3 1.3 3 .1.6.3 1.2.5 1.9.5 2.1 1.2 4.5 2.1 6.8.4 1.2.7 2.4.4 3.5-.4 1.5-2 2.8-5.6 3.3-.6.1-1.3.1-2.1.2-1.1-.1-2.7-.2-4.2-.6z" fill="url(#v)"/><path d="M112.5 128.3c.1 1.7.4 3.8.4 3.8-3.8 2.9-7.5-.2-7.5-.2.4-1.4.6-3 .8-3.9 1.5.4 3.1.5 4.2.5.8-.1 1.5-.1 2.1-.2z" fill="url(#w)"/><path d="M101.9 122.1c-.2 1.8.3 3.1 1.1 4-4.9 2.2-10.4 7.8-10.7 8.1 4.2-5.6 8-11.2 10.3-14.7-.4 1.1-.6 1.9-.7 2.6z" fill="url(#x)"/><path d="M66.1 90.7c.7-3.2.1-15.2.1-18.2 0-3.5 1-10.1 2.3-13.7 2.5-5.6 6.2-10.1 12.1-14-9.5 11.3-8.9 19.5-8.4 28s-6.1 19.1-6.1 19.1H66c-.1-.4 0-.8.1-1.2z" fill="url(#y)"/><path d="M68.4 58.8c-1.3 3.6-2.3 10.2-2.3 13.7 0 3 .6 15-.2 18.2-.5 2.1-1.1 4.8-1.6 6.8-.1-.2-.4-.6-.7-1.1v-1.1c.3-16 .9-27.6 4.8-36.5z" fill="url(#z)"/><path d="M63.7 96.4c.3.5.6.9.7 1.1-.4 1.5-.6 2.6-.6 2.6-.1-1.3-.1-2.6-.1-3.7z" fill="url(#A)"/><path d="M64.4 97.5c.5-2 1.1-4.7 1.6-6.8h.1c-.1.4-.2.8-.2 1.2-.9 4.7-.3 8.8 1.3 12.2 2.9 6.2 9.2 7.2 14.7 14.7 3.4 4.7.3 29 7 31.2 1.5.5 5.5-3.8 7.8-4.3 0 0 8.3 2.4 13.8 2.4 3 0 5.6-.4 7.7-1 .1 0 .3 0 .4-.1.6-.1 1.1-.3 1.6-.5 3.1-1 4.7-2.2 4.7-2.2s3.4 6 6.5 6.2c3 .2 4-.8 6.8-15.7 2.8-14.7 4.3-18 12-22.3 1.6-.9 3.2-5.2 3.3-10.5.1-3.4-.3-7.9-.5-10.6.8 3 1.9 7.5 2.1 8.6-.9 19.9-5.7 35.6-9.2 44.9-2.7 7.4-6.1 12.7-9.7 16.6-3.8 2.1-7.7 1.5-10.2 1.1-1.3-.2-4.9-7.2-8.4-8-3.5-.8-8.5-.1-11.8.5-6 1.1-7.2 5.8-11.8 7.5-6.7 2.5-15.3-6.5-18.7-10.5-.8-1.3-1.5-2.8-2.2-4.3-6-13.6-9-34.1-9.5-47.7.1 0 .4-1.1.8-2.6z" fill="url(#B)"/><path d="M68.9 59l-.9-.4c2.6-5.8 6.5-10.4 12.2-14.2l.6.8C75.1 49 71.4 53.4 68.9 59z"/><path d="M80.8 45.2l-.6-.8c2-1.3 3.6-2.4 5.1-3.3l.5.9c-1.5.9-3.1 1.9-5 3.2zM148 51.4c-1.5-2.3-3.3-4.2-5.4-5.9l.6-.8c2.2 1.8 4 3.8 5.6 6.1l-.8.6zM111.5 173.5c-6 0-11.8-1.1-14.9-2.3-6.4-2.5-15.3-7.8-21.7-18.9-.8-1.4-1.5-2.8-2.2-4.3-5.9-13.3-9-33.6-9.5-47.9h1c.5 14.2 3.6 34.3 9.4 47.5.7 1.5 1.4 2.9 2.1 4.2 6.2 10.9 14.9 16.1 21.2 18.5 6 2.4 21.5 3.8 28.8-1 2.8-1.8 6.4-4.4 10-8.3 4-4.4 7.1-9.8 9.6-16.5 5.4-14.5 8.5-29.6 9.1-44.7h1c-.7 15.3-3.8 30.4-9.2 45.1-2.5 6.7-5.7 12.2-9.8 16.8-3.6 4-7.3 6.6-10.2 8.5-3.6 2.5-9.2 3.3-14.7 3.3z"/><path d="M63.6 98.2s-.1-.1-.1-.2c-.1-.2-.4-.6-.7-1.1-1.3-2.3-1.5-3.1-1.5-3.4 0-.1-1.8-12.2-.5-27.1 1-11.5 6-18.3 7-19.7.2-1.4 1.5-7.4 6.3-11.7 6.2-5.5 20.1-11.2 27.7-13.2 7.7-2 25.3-.7 29 .7 2.9 1.1 17.4 9.6 18.3 12.7.4 1.4.2 2.8-.1 3.8-.1.5-.2.9-.4 1.2 2.4 2 10.6 9.7 11.5 21.6 1 13.4.8 26.8-.3 30.5-.6 1.9-2.8 4.2-4 5.4l-.5.5-1.3-1.5.5-.5c1.9-1.7 3.2-3.4 3.5-4.5.9-3 1.2-15.2.2-29.8-.9-12.7-11.2-20.5-11.3-20.6l-.7-.5.4-.8s.3-.6.5-1.5c.2-.7.3-1.8.1-2.8-.5-1.3-11.8-9.2-17.1-11.3-3-1.2-20.1-2.6-27.7-.6-7.3 1.9-21 7.5-26.9 12.8-4.8 4.3-5.7 10.6-5.7 10.7v.3l-.2.2c-.1.1-5.7 6.9-6.8 18.8-1.3 14.7.5 26.5.5 26.6 0 .2.2.9 1.3 2.7.3.5.5.9.7 1.1l.1.1-1.8 1.1z"/><path d="M134 49.3c-.8 0-1.7-.1-2.5-.4-5.8-1.7-29.8-7.3-40.7-7.3-1.8 0-3.5.1-5.1.4l-.2-1c1.7-.3 3.5-.4 5.3-.4 11 0 35.2 5.6 41 7.4 5.2 1.5 10.5-3 10.7-3.2l.7.7c-.3.2-4.4 3.8-9.2 3.8zM68.9 59l-.9-.3c.1-.3.2-.6.4-.9l.9.4c-.2.2-.3.5-.4.8zM66.5 90.8l-1-.2c.6-2.4.4-10 .2-14.6 0-1.5-.1-2.7-.1-3.4 0-3.6 1-10.2 2.3-13.9l.9.3c-1.3 3.5-2.2 10-2.2 13.5 0 .7 0 1.9.1 3.4.2 5 .4 12.4-.2 14.9z"/><path d="M65.553 90.518l.972.233-2.254 9.435-.97-.232zM152.4 91.4l-.1-.2c-1-3.7-.9-14.2-.8-19.9v-2.4-1.4c.1-4 .2-9.1-3.7-16.1l.9-.5c4 7.3 3.9 12.7 3.8 16.6v3.9c-.1 5.2-.2 16.1.8 19.6l.1.2-1 .2z"/><path d="M154.5 100c0-.1-1.2-5.2-2.1-8.5l1-.3c.9 3.3 2.1 8.5 2.1 8.6l-1 .2zM109.9 129c-.9 0-2.4-.1-3.8-.5-1.5-.4-2.7-1.1-3.5-2-1-1.2-1.5-2.6-1.3-4.4.1-.8.3-1.7.7-2.6.2-.5.4-1.1.8-1.7.1-.2.4-.3.7-.2.2.1.3.4.2.7-.3.6-.5 1.1-.7 1.6-.3.9-.5 1.7-.6 2.4-.2 1.5.2 2.7 1 3.6.7.7 1.7 1.3 3 1.7 1.6.5 3.2.5 4 .5.7 0 1.4-.1 2.1-.2 3-.4 4.7-1.4 5.2-2.9.2-.9.1-1.9-.4-3.2-.8-2.2-1.5-4.5-2.1-6.9-.2-.7-.3-1.3-.5-1.9-1-4.3-1.3-7.5-1.3-7.6 0-.3.2-.5.4-.6.3 0 .5.2.6.4 0 0 .3 3.2 1.3 7.5.1.6.3 1.2.4 1.9.6 2.3 1.3 4.6 2.1 6.8.6 1.5.7 2.8.4 3.9-.6 2-2.6 3.2-6 3.6-.7.1-1.4.1-2.2.2-.1-.1-.3-.1-.5-.1zM113.4 144c-1.2 0-2.5 0-3.9-.2-9.2-.8-14-1.3-15.7-1.5l-1.1-.1c-.3 0-.5-.3-.4-.6 0-.3.3-.5.6-.4l1.1.1c1.6.2 6.5.8 15.6 1.5 8 .7 13.4-.9 15.8-1.9 1.4-.6 2.1-1 2.1-1 .2-.2.5-.1.7.1.2.2.1.5-.1.7 0 0-.8.5-2.3 1.1-2.6 1.1-6.7 2.2-12.4 2.2z"/><path d="M110.5 125.6h-.7c-3.7-.1-4.6-1.6-4.6-1.7l-1-1.5.2-.1s.5.9 1 1.5c0 0 .9 1.5 4.4 1.6 3.6.1 5.7-.5 5.9-1.6.2-1.1-.3-3.1-.9-4.5-1.6-3.9-1.8-7.7-1.5-13.7h.2c-.3 6-.1 9.7 1.5 13.6.5 1.1 1.2 3.3.9 4.6-.2 1.1-2.1 1.8-5.4 1.8z"/><path d="M115.02 124.622l.256.155-2.058 3.43-.257-.155zM112.85 125.224l.256.154-2.058 3.43-.257-.154zM111.13 125.41l.256.155-2.058 3.43-.257-.154zM109.162 125.284l.257.154-1.853 3.087-.258-.154zM107.433 125.087l.257.154-1.852 3.088-.257-.154zM105.934 124.48l.258.155-1.698 2.83-.257-.155zM104.65 122.99l.256.156-1.698 2.83-.257-.155zM117.854 122.067l.26.15-3.347 5.804-.26-.15zM109.6 148.2c-4.8 0-9-1.4-9.1-1.4-.1 0-.2-.2-.2-.3 0-.1.2-.2.3-.2.1 0 5.1 1.7 10.5 1.3 5.3-.4 8-.5 11.8-2.7.1-.1.3 0 .3.1.1.1 0 .3-.1.3-3.9 2.3-6.6 2.4-12 2.8-.4.1-1 .1-1.5.1zM121.6 157.2c-.1 0-.1 0-.2-.1-.5-.4-.9-.9-1.4-1.2l-.5-.4c-1.9-1.7-10.5-1.8-13.6-1.3-.1 0-.3-.1-.3-.2s.1-.3.2-.3c3.1-.5 12-.5 14 1.4l.5.4c.4.4.9.8 1.3 1.2.1.1.1.2 0 .4.1 0 .1.1 0 .1z"/><path d="M119.3 154.9c-.1 0-.1 0 0 0-6.1-3.9-9.4-2.2-9.5-2.1h-.2v-.2c.1-.1 3.5-1.9 9.7 2.1.1 0 .1.1 0 .2z"/><path d="M119.8 155.4c-.1 0-.1 0 0 0-6.8-3.9-13.3-2.8-13.4-2.8-.1 0-.1 0-.1-.1s0-.1.1-.1 6.7-1.2 13.5 2.8c.1 0 .1.1 0 .2 0-.1-.1 0-.1 0zM111.5 148.2c-3.8 0-7.8-.9-7.8-.9-.1 0-.1-.1-.1-.2s.1-.1.2-.1 7.4 1.7 11.4.5c4.1-1.2 6.8-2.1 6.9-2.1.1 0 .1 0 .2.1 0 .1 0 .1-.1.2 0 0-2.8.9-6.9 2.1-1.1.2-2.4.4-3.8.4zM90.1 144.2c-.1 0-.1 0-.2-.1s-.1-.3 0-.4c.9-.9 2.4-1.9 4.7-1.9.9 0 4.1.3 7.5.6 3.9.4 8.4.8 9.6.8 4.7-.1 13.7-2.3 15.3-2.7 1.9-.5 2.5.2 4.2 2.7.1.1 0 .3-.1.3-.1.1-.3 0-.3-.1-1.7-2.6-2.1-3-3.6-2.5-1.6.5-10.7 2.6-15.4 2.8-1.2 0-5.5-.4-9.6-.8-3.4-.3-6.6-.6-7.5-.6-2.2 0-3.5.9-4.3 1.7-.2.2-.2.2-.3.2z"/><path d="M112.6 143.3c-4.6 0-14.3-.9-17.5-1.4-3.2-.5-3.5-1-3.6-1.1 0-.1 0-.1.1-.2h.2s.4.5 3.4.9c3.4.5 14.1 1.5 18.2 1.4 4.2-.1 13-2.4 13.8-2.7.9-.4 2.1-1 2.1-1 .1 0 .1 0 .2.1 0 .1 0 .1-.1.2 0 0-1.3.6-2.1 1s-9.7 2.6-13.9 2.8h-.8zM67.1 83.4c-.1 0-.1-.1-.1-.1s-.2-4.7.2-13.8c.5-9.1 7.5-20 7.6-20.1 0-.1.1-.1.2 0s.1.1 0 .2-7.1 11-7.6 20c-.5 9.1-.3 13.7-.2 13.7 0 .1 0 .1-.1.1z"/><path d="M65.7 75.4c-.1-.1-.1-.2-.1-.2l4.5-4.8c0-.1.1-.1.2 0 .1 0 .1.1 0 .2l-4.6 4.8c.1 0 .1 0 0 0zM110.5 125.8c-3.1 0-5.2-1.7-5.3-1.8l.3-.4s2.8 2.2 6.5 1.5c1.6-.3 2.8-.6 3.3-1.5.6-.9.4-2.6-.5-5.8-1.7-5.9-1.2-15.8-1.2-15.9h.5c0 .1-.6 9.9 1.1 15.8 1 3.4 1.1 5.1.4 6.2-.6 1-1.8 1.4-3.6 1.7-.5.1-1 .2-1.5.2zM68.5 107c-3.1-4.6-3.5-11-3.5-11.1h.2c0 .1.4 6.4 3.5 10.9l-.2.2z"/><path d="M107.3 172.4c-2.2 0-4.2-.1-5.6-.5-5-1.3-18.7-9-22.3-14.4-3.8-5.8-7.9-17.3-9.8-23.5-2-6.8-5.3-35.7-5.4-36 0-.1 0-.1.1-.1s.1 0 .1.1c0 .3 3.4 29.2 5.4 36 2.2 7.5 6.4 18.3 9.7 23.5 3.6 5.4 17.2 13 22.2 14.3 4.8 1.3 16.2-.2 20-.6 5.1-.6 9.2-5 12.4-8.6 1.3-1.4 2.4-2.6 3.4-3.4 2.5-2 7.6-15.5 10.4-22.7.7-1.8 1.2-3.2 1.6-4 1.3-3.1 2.7-14.8 3.7-22.6.3-2.7.6-4.9.8-5.9.6-3.7.3-6.8.2-6.8 0-.1 0-.1.1-.1s.1 0 .1.1c0 0 .4 3.2-.3 6.9-.2 1-.4 3.1-.8 5.9-1 7.8-2.4 19.5-3.7 22.7-.3.8-.9 2.2-1.6 4-2.8 7.3-7.9 20.8-10.5 22.8-1 .8-2.1 2-3.4 3.4-3.3 3.6-7.4 8-12.6 8.6-2.4.1-8.9.9-14.2.9z"/><path d="M113 170.8c-7.2 0-12.9-1-12.9-1-.1 0-.2-.2-.2-.3 0-.1.2-.2.3-.2.1 0 10.1 1.8 20.6.6 11.2-1.3 15.3-11 15.3-11.1.1-.1.2-.2.3-.1.1.1.2.2.1.3 0 .1-4.2 10.1-15.7 11.4-2.7.2-5.3.4-7.8.4zM75.1 144.9s-.1 0-.1-.1c-4.4-10.7-8.6-21.4-8.7-21.5 0-.1 0-.1.1-.2.1 0 .1 0 .2.1 0 .1 4.2 10.8 8.7 21.5-.1.1-.1.2-.2.2zM144.6 138.7c-.1-.1-.1-.1-.1-.2 3.7-6.4 9.4-27.3 9.5-27.5 0-.1.1-.1.2-.1s.1.1.1.2c-.1.2-5.8 21.1-9.5 27.5-.1.1-.2.1-.2.1z"/><path d="M65.8 91.1s1-6.7 4.6-10.5c0 0-2.4.6-5.2 4.4" fill="#1E1E32"/><path d="M66 87.2s1-6.7 4.6-10.5c0 0-2.4.6-5.2 4.4" fill="#1E1E32"/><path d="M65.5 83.4s1-6.7 4.6-10.5c0 0-2.4.6-5.2 4.4" fill="#1E1E32"/><path d="M65.7 85.5s1-6.7 4.6-10.5c0 0-2.4.6-5.2 4.4" fill="#1E1E32"/><path d="M65.5 81s1-6.7 4.6-10.5c0 0-2.4.6-5.2 4.4" fill="#1E1E32"/><path d="M64.1 80.2s1-6.7 4.6-10.5c0 0-2.4.6-5.2 4.4M66.1 89.2s1-6.7 4.6-10.5c0 0-2.4.6-5.2 4.4" fill="#1E1E32"/><path d="M153.4 91.1s-1-6.7-4.6-10.5c0 0 2.4.6 5.2 4.4" fill="#323246"/><path d="M153.2 87.2s-1-6.7-4.6-10.5c0 0 2.4.6 5.2 4.4" fill="#323246"/><path d="M153.4 83.4s-1-6.7-4.6-10.5c0 0 2.4.6 5.2 4.4" fill="#323246"/><path d="M153.4 85.5s-1-6.7-4.6-10.5c0 0 2.4.6 5.2 4.4" fill="#323246"/><path d="M153.4 80.9s-1-6.7-4.6-10.5c0 0 2.4.6 5.2 4.4" fill="#323246"/><path d="M154.2 79.8s-1-6.7-4.6-10.5c0 0 2.4.6 5.2 4.4M153.1 89.2s-1-6.7-4.6-10.5c0 0 2.4.6 5.2 4.4" fill="#323246"/><path d="M140.6 88.9s5.4-.4 7.3 5.6c2.1 6.5-6.8 7.6-6.8 7.6s-2.1-4.8-9-6.3c-7.7-1.6-12 1.2-12.5 1.7s-1.6 1.1-2.5 2.8c0 0-.6-3.2.2-4.2 6.8-9 23.3-7.2 23.3-7.2z" fill="url(#C)" opacity=".3"/><g><path d="M76.3 85.2s-4 .5-6 6.4c-2.1 6.5 7.9 10.5 7.9 10.5s2.1-4.8 9-6.3c7.7-1.6 12 1.2 12.5 1.7s1 1.1 2.2 1.9c0 0 3.6-5.5 3-10-.6-4.6-28.6-4.2-28.6-4.2z" fill="url(#D)"/><path d="M101.1 83.8c6 2.8 2 10.1 2 10.1-22.6-13.1-32.9-6.8-33.3-6.6.1-.3 2-4.9 7.1-6.2 7.1-2 18.4-.1 24.2 2.7z" fill="url(#E)"/><path d="M70.1 87.6l-.7-.7zM103.2 94.5l-.4-.3C80.6 81.4 70.5 87.4 70 87.6l-1.3.8.5-1.4c0-.1 2-5.1 7.4-6.5 7-1.9 18.6-.1 24.5 2.8 1.7.8 2.8 2 3.3 3.5 1.1 3.3-1 7.1-1.1 7.2l-.1.5zM77.9 85h.2c7.1.1 15.4 2.8 24.7 8.1.5-1.1 1.5-3.7.8-6-.4-1.3-1.3-2.3-2.7-2.9-5.8-2.7-17-4.5-23.8-2.7-3.3.9-5.2 3.2-6.1 4.7 1.2-.5 3.6-1.2 6.9-1.2z"/><path d="M85.7 86.8s-1.1-2.8-4.4-3.4l.1-.5c3.5.7 4.7 3.6 4.7 3.7l-.4.2z"/><path d="M83.8 86.4s-1.5-2.5-4.8-2.9l.1-.5c3.5.4 5.1 3 5.2 3.1l-.5.3zM81.1 85.9s-2.2-1.9-4.8-2v-.5c2.7.1 5 2 5.1 2.1l-.3.4zM77.5 85.7s-1.6-1.5-3.7-1l-.1-.5c2.3-.5 4.1 1.1 4.2 1.1l-.4.4zM104.1 94.5l-.4-.3s1.6-2.2 1.8-5.4h.5c-.2 3.4-1.9 5.6-1.9 5.7zM102.6 93.6l-.5-.2c0-.1 2-5.3.4-10.5l.5-.1c1.7 5.4-.4 10.8-.4 10.8z"/><path d="M101.2 93.1l-.5-.2s1.8-5.1.7-10l.5-.1c1.1 5-.7 10.2-.7 10.3zM99.9 92.2l-.5-.2s1.3-2.8.8-6.8l.5-.1c.5 4.2-.8 7-.8 7.1zM98.7 91.3l-.4-.2s1.2-2.5.6-6.1l.5-.1c.6 3.8-.7 6.3-.7 6.4zM97.4 90.6l-.4-.2s.8-1.4.4-4.1l.5-.1c.4 2.8-.4 4.3-.5 4.4zM96 89.9l-.5-.1s.6-2.1.2-3.6l.5-.1c.5 1.5-.2 3.7-.2 3.8zM94.7 89.3l-.5-.1s.5-1.7-.4-3l.4-.3c1 1.4.5 3.3.5 3.4zM102.7 94.2c-.1-.1-14.5-7.4-22.2-7.4h-.3c-7.6.2-9.4 1.5-9.4 1.5l-.2-.2c.1-.1 1.8-1.3 9.6-1.5 4-.1 10 1.9 14.3 3.7 4.6 1.9 8.3 3.8 8.4 3.8l-.2.1z"/><path d="M70.2 91.8l-.2-.1c1.3-3.9 3.5-5.3 5.1-5.9 1.8-.6 3.2-.2 3.3-.2l-.1.2s-1.4-.3-3.1.2c-2.3.8-4 2.8-5 5.8z"/></g><g><path d="M80.3 99.2s.9 4.4 7 5c6.2.6 8.3.1 10.4-2.9 2-3-.5-5-2.5-5.7-2.1-.7-12.6-2.1-14.9 3.6z" fill="url(#F)"/><path d="M93.5 94.5s8.2 1.5 8 4.9c-.1 1.5-2.3 3.8-2.3 3.8s-4 4.8-11.7 8.4c0 0 .4-1.3 3.2-3.9 1.7-1.6 7.8-4.2 8-7.8.1-3.2-5.2-5.4-5.2-5.4z" fill="url(#G)" opacity=".5"/><path d="M92.7 90.5s-4.6-2.4-14.1 2.3c-4.7 2.3-1 9-1 9s1.2-5.1 7.9-6.1c7.6-1.2 12.4 1.5 12.9 2 1.7 2 1.4 4.1.5 5.5 0 0 2.9-.7 3.1-5.5 0-4.8-9.3-7.2-9.3-7.2z" fill="url(#H)" opacity=".4"/><path d="M101.5 100.2c.7-1.5.3-3.7.3-3.7s-3.1-6-13.4-6.4c-11.4-.4-11.1 11.2-11.1 11.2 10-10.6 20.9-4.6 22.8-3.2.1 0 1 1.1 1.4 2.1z" fill="url(#I)" opacity=".8"/><path d="M89.4 104c-1.2 0-2.3-.5-3.1-1.4-.8-.9-1.2-2-1.2-3.2.1-2.4 2-4.2 4.4-4.2h.2c1.2 0 2.3.5 3.1 1.4.8.9 1.2 2 1.2 3.2-.1 2.4-2 4.2-4.4 4.2h-.2z" fill="url(#J)"/><path d="M89.5 95.7h.1c1 0 2 .5 2.7 1.2.7.8 1.1 1.8 1 2.8-.1 2.1-1.8 3.8-3.9 3.8h-.1c-1 0-2-.5-2.7-1.2-.7-.8-1.1-1.8-1-2.8.1-2.2 1.8-3.8 3.9-3.8m0-1c-2.6 0-4.8 2.1-4.9 4.7-.1 2.7 2 5 4.7 5.1h.2c2.6 0 4.8-2.1 4.9-4.7.1-2.7-2-5-4.7-5.1h-.2z"/><path d="M77.8 102.1c-.1 0-.2 0-.3-.1-.4-.2-.5-.6-.3-1 .1-.2 3.2-5.9 11.5-6.4 10.5-.7 12.9 4.8 13 5 .2.4 0 .8-.4 1-.4.2-.8 0-1-.4-.1-.2-2.2-4.7-11.5-4.1-7.5.5-10.3 5.6-10.3 5.6-.1.3-.4.4-.7.4z"/><path d="M91.6 99.6a2 2 0 1 1-4 0 2 2 0 0 1 4 0z"/><path d="M91.7 98.4a1 1 0 1 1-2 0 1 1 0 0 1 2 0z" fill="#FFF"/><path d="M101.5 99.9c-.1 0-.1-.1-.1-.2.6-2 0-3.8-.3-4 0 0-2.3-2.7-6.3-4.3-3.7-1.5-9.8-2.3-17.5 2.2h-.2v-.2c7.8-4.5 14-3.7 17.8-2.2 4.1 1.6 6.4 4.3 6.4 4.3.5.4 1 2.3.3 4.3 0 0 0 .1-.1.1z"/><path d="M76.8 100.8h-.2c-.2-.1-.3-.3-.2-.5 2.6-5 8.1-6.5 9.7-6.8 7.8-1.5 14.4 4.1 14.7 4.3.2.1.2.4 0 .5-.1.2-.4.2-.5 0-.1-.1-6.6-5.6-14-4.2-1.5.3-6.7 1.7-9.2 6.4-.1.2-.2.3-.3.3zM101.232 100.51l.2.223-4.596 4.16-.2-.22z"/><path d="M102.595 93.843l.36.346-3.87 4.046-.362-.346zM101.813 93.095l.367.34-3.467 3.74-.367-.34zM100.632 92.648l.372.334-3.34 3.72-.372-.333zM98.887 93.408l.217.207-2.42 2.53-.216-.208zM97.935 92.815l.22.205-2.188 2.336-.22-.205zM96.918 92.166l.147.136-2.37 2.575-.147-.135zM95.782 91.593l.14.142-2.487 2.46-.14-.14zM94.376 90.953l.133.15-3.288 2.924-.133-.15zM92.144 90.354l.206.218-3.414 3.23-.206-.218zM90.346 90.06l.204.22-4.184 3.872-.203-.22zM88.037 90.005l.132.15-5.13 4.466-.132-.15z"/><path d="M98.7 103.9l-.3-.4s3.1-2.2 2.9-4c-.2-1.8-3.1-2.5-3.2-2.6l.1-.5c.1 0 3.3.9 3.5 3 .3 2.2-2.9 4.4-3 4.5z"/><path d="M90.2 105.2H90c-6.4-.2-8.2-2-8.2-2-.2-.2-.2-.5 0-.7.2-.2.5-.2.7 0 0 0 1.6 1.6 7.5 1.7 3 .1 6-1.6 7.1-2.9.8-1 1.1-1.9.9-2.7-.5-1.5-3.2-2.4-4.2-2.6-.3-.1-.4-.3-.4-.6.1-.3.3-.4.6-.4.2 0 4.1.9 4.9 3.3.4 1.1 0 2.4-1 3.7-1.3 1.5-4.6 3.2-7.7 3.2z"/><path d="M89.5 106.3c-2.3 0-3.9-.6-4-.6l.2-.5c.1 0 5.7 1.9 10.5-1.5 1.7-1.2 2.6-2.5 2.8-3.8.2-1.6-.7-2.8-.7-2.8l.4-.3c0 .1 1.1 1.4.8 3.2-.2 1.5-1.2 2.9-3 4.2-2.4 1.7-4.9 2.1-7 2.1z"/><path d="M96 103.3c-.2 0-.3-.1-.4-.2-.2-.2-.1-.5.1-.7 1-.7 1.6-1.7 1.6-2.6 0-.8-.4-1.6-1.3-2.2-3-2.1-8.4-1.8-8.4-1.8-.3 0-.5-.2-.5-.5s.2-.5.5-.5c.2 0 5.8-.4 9.1 1.9 1.1.8 1.7 1.9 1.7 3 0 1.3-.8 2.6-2 3.4-.2.2-.3.2-.4.2z"/></g><g><path d="M138.5 99.2s-.9 4.4-7 5c-6.2.6-8.3.1-10.4-2.9-2-3 .5-5 2.5-5.7 2.1-.7 12.6-2.1 14.9 3.6z" fill="url(#K)"/><path d="M125.3 94.5s-8.2 1.5-8 4.9c.1 1.5 2.3 3.8 2.3 3.8s4 4.8 11.7 8.4c0 0-.4-1.3-3.2-3.9-1.7-1.6-7.8-4.2-8-7.8-.2-3.2 5.2-5.4 5.2-5.4z" fill="url(#L)" opacity=".5"/><path d="M126 90.5s4.6-2.4 14.1 2.3c4.7 2.3 1 9 1 9s-1.2-5.1-7.9-6.1c-7.6-1.2-12.4 1.5-12.9 2-1.7 2-1.4 4.1-.5 5.5 0 0-3.3-1.5-3.1-5.5.4-4.8 9.3-7.2 9.3-7.2z" fill="url(#M)" opacity=".4"/><path d="M117.2 100.2c-.7-1.5-.3-3.7-.3-3.7s3.1-6 13.4-6.4c11.4-.4 11.1 11.2 11.1 11.2-10-10.6-20.9-4.6-22.8-3.2 0 0-.9 1.1-1.4 2.1z" fill="url(#N)" opacity=".8"/><path d="M129.2 104c-2.4 0-4.3-1.9-4.4-4.2 0-1.2.4-2.3 1.2-3.2.8-.9 1.9-1.4 3.1-1.4h.2c2.4 0 4.3 1.9 4.4 4.2 0 1.2-.4 2.3-1.2 3.2-.8.9-1.9 1.4-3.1 1.4h-.2z" fill="url(#O)"/><path d="M129.2 95.7c2.1 0 3.8 1.7 3.9 3.8 0 1-.3 2-1 2.8-.7.8-1.7 1.2-2.7 1.2h-.1c-2.1 0-3.8-1.7-3.9-3.8-.1-2.1 1.6-4 3.8-4m0-1h-.2c-2.7.1-4.8 2.4-4.7 5.1.1 2.6 2.3 4.7 4.9 4.7h.2c2.7-.1 4.8-2.4 4.7-5.1-.1-2.7-2.3-4.7-4.9-4.7z"/><path d="M140.9 102.1c-.3 0-.5-.1-.7-.4-.1-.2-2.8-5.1-10.3-5.6-9.4-.6-11.5 4-11.5 4.1-.2.4-.6.6-1 .4-.4-.2-.6-.6-.4-1 .1-.2 2.5-5.7 13-5 8.4.5 11.4 6.2 11.5 6.4.2.4 0 .8-.3 1-.1.1-.2.1-.3.1z"/><path d="M131.2 99.6a2 2 0 1 1-4 0 2 2 0 0 1 4 0z"/><path d="M131.3 98.4a1 1 0 1 1-2 0 1 1 0 0 1 2 0z" fill="#FFF"/><path d="M117.2 100.7c-.1 0-.2-.1-.2-.2-1-2.2-.1-4.3.6-5.2.1-.1 9-10.8 24.1-2.1.1.1.2.2.1.3-.1.1-.2.2-.3.1-7.7-4.4-13.7-3.6-17.3-2.2-4 1.6-6.1 4.2-6.1 4.2-.6.8-1.4 2.7-.5 4.7-.1.2-.2.3-.4.4.1 0 .1 0 0 0z"/><path d="M141.9 100.5c-.1 0-.2 0-.2-.1-2.2-3.5-5.7-5.6-10.2-6.2-9-1.1-13.1 4-13.2 4-.1.1-.2.1-.4 0-.1-.1-.1-.2 0-.4 0-.1 4.3-5.3 13.6-4.2 4.7.6 8.3 2.8 10.6 6.4.1.1 0 .3-.1.3 0 .1 0 .2-.1.2z"/><path d="M124.518 91.166l.154.128-7.444 8.897-.154-.128z"/><path d="M120.2 103.9h-.1c-.1-.1-3.5-2.3-3.3-4.4.2-2.1 3.6-3 3.7-3 .1 0 .3 0 .3.2 0 .1 0 .3-.2.3 0 0-3.2.8-3.4 2.6-.2 1.8 3.1 3.9 3.1 3.9.1.1.1.2.1.3-.1.1-.1.1-.2.1z"/><path d="M128.5 105.2c-3.1 0-6.4-1.7-7.7-3.2-1.1-1.3-1.4-2.6-1-3.7.8-2.4 4.7-3.2 4.9-3.3.3-.1.5.1.6.4.1.3-.1.5-.4.6-1 .2-3.6 1.1-4.2 2.6-.3.8 0 1.7.9 2.7 1 1.2 4 2.9 7.1 2.9 5.9-.1 7.5-1.7 7.5-1.7.2-.2.5-.2.7 0 .2.2.2.5 0 .7-.1.1-1.8 1.9-8.2 2h-.2z"/><path d="M129.2 106.3c-2 0-4.6-.4-7-2.1-1.8-1.2-2.8-2.6-3-4.2-.3-1.9.8-3.2.8-3.2l.4.3s-.9 1.2-.7 2.9c.2 1.4 1.1 2.7 2.8 3.8 4.8 3.4 10.5 1.5 10.5 1.5l.2.5c-.1 0-1.7.5-4 .5z"/><path d="M122.8 103.3c-.1 0-.2 0-.3-.1-1.3-.9-2-2.2-2-3.4 0-1.2.6-2.2 1.7-3 3.2-2.3 8.8-2 9.1-1.9.3 0 .5.3.5.5 0 .3-.2.5-.5.5-.1 0-5.5-.3-8.4 1.8-.8.6-1.3 1.4-1.3 2.2 0 1 .6 1.9 1.6 2.6.2.2.3.5.1.7-.2.1-.4.1-.5.1zM120.867 92.234l.152.13-4.032 4.71-.152-.13zM122.872 91.364l.23.194-6.076 7.173-.23-.193z"/><path d="M126.463 90.953l.234.187-8.62 10.777-.235-.188zM128.196 91.133l.234.188-3.936 4.92-.234-.187zM130.333 90.83l.235.186-3.936 4.92-.234-.187zM132.605 90.61l.234.188-3.937 4.92-.234-.188zM132.557 93.092l.234.187-1.81 2.264-.235-.188zM133.95 93.462l.235.188-1.812 2.264-.234-.187z"/></g><path d="M151.1 68.6h-.5c.2-3.7 0-7.1-.6-10-1.5-7.3-8-12.8-8.1-12.9l.3-.4c.1.1 6.8 5.6 8.3 13.1.6 3 .8 6.4.6 10.2z"/><path d="M133.4 49.9c-2 0-4-.4-5.9-1.2-6.6-3-40.1-7.3-40.4-7.3l.1-.5c1.4.2 33.9 4.4 40.6 7.4 6.7 3 14.3-.4 16.1-2.6 1.7-2.1 3.4-8.1 2.4-9.7-1-1.6-12-9.5-15.9-10.9-3.8-1.3-15.9-2.4-16.1-2.4v-.5c.5 0 12.3 1 16.2 2.4 3.8 1.3 14.9 9.2 16.1 11.1 1.2 1.8-.7 8.2-2.4 10.3-1.6 1.8-6 3.9-10.8 3.9z"/><path d="M135.2 48.5c-1.9 0-4-.5-6-1.5-5.6-2.6-37.9-6.3-38.3-6.3l.1-.5c1.3.1 32.8 3.7 38.4 6.4 5.4 2.5 10.6 1.6 13.6-2.5 1.8-2.5 3.4-5.4 1.4-8.1-2.4-3.1-17.3-14.5-32.9-13.2v-.5c15.8-1.4 30.9 10.3 33.3 13.3 2.3 2.9.6 6-1.4 8.7-2 2.8-4.9 4.2-8.2 4.2zM159.3 69.7c0-.1-1.2-5.4-5.1-11.2-4.7-7-9.1-10.9-9.2-10.9l.7-.8s4.5 4 9.3 11.1c4 5.9 5.2 11.3 5.2 11.5l-.9.3z"/><path d="M160.3 68.5h-.5s.1-3.5-5.3-12.9c-4.5-7.8-11-11.3-11.1-11.3l.2-.4c.1 0 6.7 3.5 11.3 11.5 5.6 9.5 5.5 12.9 5.4 13.1zM159 72.9c-2.6-6.7-7.1-11.2-7.1-11.2l.4-.4s4.6 4.6 7.2 11.4l-.5.2zM158 56.4c-1.8-7-12.6-14.3-12.7-14.4l.3-.4c.5.3 11.1 7.5 12.9 14.6l-.5.2zM159.4 78.2c-2.8-7.2-7.4-10.5-7.4-10.6l.3-.4s4.8 3.5 7.6 10.8l-.5.2zM159.4 88.1c-.9-11.4-7.6-17.4-7.7-17.5l.3-.4c.1.1 7 6.2 7.8 17.8l-.4.1z"/><path d="M159 88.9c-3.2-8.8-7.4-11.6-7.4-11.6l.3-.4c.2.1 4.4 2.9 7.6 11.9l-.5.1zM144.3 42.9l-.5-.2c.9-2.3.8-4.6-.4-6.7-3-5.2-12.5-9.3-26.1-11.3-16.5-2.5-30 7.2-30.1 7.3l-.3-.4c.1-.1 13.9-9.9 30.5-7.4 13.7 2 23.4 6.3 26.4 11.6 1.4 2.2 1.5 4.6.5 7.1z"/><path d="M141.3 46.2l-.4-.3c1.6-2.8 2-5.2 1-7.6-1.9-4.5-8.8-8.4-20.7-11.5-20.9-5.4-34 9.7-34.2 9.8l-.4-.3c.1-.2 13.5-15.5 34.7-10 12 3.1 19.1 7.1 21 11.8 1.1 2.5.7 5.2-1 8.1z"/><path d="M133.6 49.3v-1c2.2 0 6.6-2.9 7.3-5.9.7-3-.8-8.7-18.3-13.9-17.3-5.1-35.8 9.1-36 9.2l-.6-.8c.2-.1 19.1-14.7 36.9-9.4 18.3 5.4 19.8 11.8 19 15.1-.7 3.3-5.5 6.7-8.3 6.7z"/><path d="M136 47.7c-4.3 0-9.9-1.7-17.5-4.1l-1.6-.5c-13.7-4.2-30.6-1.3-30.8-1.3l-.2-1c.2 0 17.3-3 31.2 1.3l1.6.5c12.7 3.9 19.7 6.1 24 1.2l.8.7c-1.9 2.3-4.3 3.2-7.5 3.2zM69.2 48l-.9-.4c.1-.2 2.4-5.5 6.1-9.6 5.5-6.2 12-7.8 12.3-7.8l.2 1c-.1 0-6.4 1.5-11.7 7.5-3.7 4-6 9.2-6 9.3z"/><path d="M71.2 48.6h-.5c0-.1 0-3.6 4-9.3 4-5.7 11.4-6.6 11.5-6.6l.1.5c-.1 0-7.3.9-11.2 6.4-3.9 5.5-3.9 9-3.9 9z"/><path d="M71.7 49l-.5-.1c0-.1 1.5-10.4 11-13.4l.2.5c-9.3 3-10.7 12.9-10.7 13z"/><path d="M62 62.5l-.5-.2C66.3 47.7 82.7 43 82.8 43l.1.5c-.1.1-16.2 4.7-20.9 19z"/><path d="M62 63.2l-.5-.2c3.8-9.3 14.7-14.9 14.8-15l.2.4c-.1.2-10.7 5.7-14.5 14.8z"/><path d="M61.6 68.9l-.5-.2c3.2-8.9 8.9-13.4 8.9-13.4l.3.4s-5.6 4.4-8.7 13.2zM61.2 74l-.5-.2c2-4.4 5.7-8.2 5.7-8.2l.4.3s-3.6 3.8-5.6 8.1zM61.6 76.3l-.4-.3c2.6-4.3 4.8-5.5 4.9-5.5l.2.4c.1.1-2.1 1.2-4.7 5.4zM61.8 91.5l-.5-.1c1.3-5.9 4.9-10.6 5-10.6l.4.3c0 .1-3.6 4.6-4.9 10.4zM61.2 87.9l-.5-.2c1.7-4.1 4.7-8.6 4.8-8.6l.4.3s-3 4.4-4.7 8.5zM103.845 94.085l.355.35-4.993 5.05-.355-.352zM103.974 95.308l.214.21-5.05 5.133-.213-.21zM103.694 96.86l.208.214-6.037 5.84-.21-.215zM103.398 98.79l.212.21-4.61 4.585-.21-.213zM104.5 187.7c-.1 0-.2-.1-.2-.2-1.2-3.1-1-10.2-.6-11.4.4-1.3 7.1-2.9 8.4-3.2.1 0 .3.1.3.2s-.1.3-.2.3c-3.8.8-7.9 2.1-8.1 2.8-.3 1.1-.5 8.1.6 11.1.1.2 0 .3-.2.4z"/><path d="M101.6 176.4c-.1 0-.2-.1-.2-.2s.1-.3.2-.3c7.6-1 9-1.4 12.4-2.4.9-.3 1.8-.6 3.1-.9.1 0 .3 0 .3.2 0 .1 0 .3-.2.3-1.2.4-2.2.7-3.1.9-3.3 1-4.8 1.4-12.5 2.4z"/><path d="M97.1 176c-.1 0-.2-.1-.2-.2s.1-.3.2-.3c9.5-.5 24.2-4.1 24.3-4.1.1 0 .3 0 .3.2 0 .1 0 .3-.2.3-.1.1-14.8 3.7-24.4 4.1z"/><path d="M106.3 174c-5.5 0-8.6-1.4-14.7-4.4-8.5-4.2-15-14.7-15-14.8-.1-.1 0-.3.1-.3.1-.1.3 0 .3.1.1.1 6.5 10.6 14.8 14.7 8.5 4.2 11.2 5.2 23 3.6 12.3-1.7 17.7-6.1 22.8-13.1.1-.1.2-.1.3-.1.1.1.1.2.1.3-5.2 7.2-10.7 11.6-23.2 13.4-3.4.4-6.2.6-8.5.6zM92 106.1l-.1-.5c8-1.7 8.7-6.4 8.7-6.5l.5.1c0 .2-.7 5.2-9.1 6.9z"/><g><path d="M144.1 87.7c6.9 6.1 6.4 11.6 6.4 11.6s-3.8-6.9-13.7-8.2c-9.9-1.4-21.6 2.6-21.6 2.6s-2.2-6.4 3.6-9.2c5.3-2.7 18.4-3 25.3 3.2z" fill="url(#P)"/><path d="M150.8 100.9l-.8-1.4c0-.1-3.8-6.6-13.3-8-9.7-1.3-21.3 2.6-21.4 2.6l-.5.2-.2-.5c0-.1-2.3-6.8 3.8-9.8 5.7-2.8 18.9-2.9 25.9 3.3 7 6.2 6.6 11.8 6.6 12l-.1 1.6zm-18.4-10.6c1.5 0 3 .1 4.4.3 7.2 1 11.2 4.7 13 6.9-.4-2-1.8-5.6-6.1-9.4-6.4-5.7-19.3-5.8-24.8-3.1-4.5 2.2-3.8 6.7-3.4 8.1 2-.7 9.4-2.8 16.9-2.8z"/><path d="M138.4 91.6l-.3-.4c.1-.1 2.1-1.2 6.4-.2l-.1.5c-4.1-1-6 .1-6 .1zM146.1 92.9c-2.4-.9-4.1-.4-4.1-.4l-.1-.5c.1 0 1.9-.5 4.4.4l-.2.5zM147.6 94.5c-1.9-1-3.4-.7-3.4-.7l-.1-.5c.1 0 1.7-.3 3.7.8l-.2.4zM115.7 93.4c0-.1-.6-2.7.1-4.7l.5.2c-.6 1.9-.1 4.4-.1 4.4l-.5.1zM116.7 92.8c0-.1-.7-3.1.9-7.1 0-.1.1-.3.4-.3.1 0 .2 0 .2.2.4-.8.9-1.8 1.4-2.7l.4.3c-1.1 1.7-2 4.1-2 4.1l-.5-.1c-1 3.2-.5 5.4-.4 5.5l-.4.1zM118.1 92.8s-.2-5 3-10.1l.4.3c-3.1 5-2.9 9.8-2.9 9.9l-.5-.1zM119.9 92.3h-.5s.3-4.5 3.1-10.1l.4.2c-2.7 5.4-3 9.8-3 9.9zM121.4 91.8h-.5s.4-4.8 3.3-10.2l.4.2c-2.8 5.3-3.2 10-3.2 10zM123.1 91.5h-.5c0-.1.1-2.4 2-6.9l.5.2c-1.8 4.4-2 6.7-2 6.7z"/><path d="M114.9 93.6c0-.1-1.1-3.3.1-7.5l.5.1c-1.1 4.1-.1 7.2-.1 7.2l-.5.2zM114.1 94.3c0-.1-1-2.3-.6-5.3l.5.1c-.3 2.9.6 5 .6 5.1l-.5.1zM129.5 91l-.2-.4c.2-.1 4.1-2.3 9.9-1.9v.5c-5.7-.5-9.6 1.7-9.7 1.8zM149.1 100.2s-.5-2.6-6.4-6.1c-4.2-2.5-11-2.5-16.1-2.1-5.5.4-10 1.5-10.1 1.5l-.1-.2s4.6-1 10.1-1.5c9.2-.7 13.9.8 16.2 2.2 6 3.6 6.5 6.1 6.5 6.3l-.1-.1z"/></g></svg>