<svg xmlns="http://www.w3.org/2000/svg" width="100" height="100" viewBox="0, 0, 100, 100"><path fill="none" d="M0 0h100v100H0z"/><path d="M64.677 64.96c.083 2.577.283 3.95.42 4.998.34.297 2.357 2.012 4.574 3.123 2.438 1.22 18.516 9.016 21.44 11.33 2.923 2.314 6.577 5.115 7.186 6.82.61 1.706 1.218 8.283 1.218 8.283H.487s.61-6.577 1.218-8.282c.61-1.705 4.263-4.506 7.187-6.82 2.923-2.314 19-10.11 21.437-11.33 2.434-1.216 4.626-3.165 4.626-3.165l18.906.028-.143-3.94 10.956-1.043z"/><path d="M65.096 69.958c.34.297 2.358 2.012 4.575 3.123 2.438 1.22 18.516 9.016 21.44 11.33 2.923 2.314 6.577 5.115 7.186 6.82.61 1.706 1.218 8.283 1.218 8.283H.487s.61-6.577 1.218-8.282c.61-1.705 4.263-4.506 7.187-6.82 2.923-2.314 19-10.11 21.437-11.33 2.434-1.216 4.626-3.165 4.626-3.165" stroke="#000" stroke-width=".974" stroke-linecap="round" stroke-linejoin="round" fill="none"/><path d="M25.213 39.624c.51.117.268.03.724.253h.002l.197.162c.23.185.12.072.32.346.453.522.715 1.17.865 1.84l1.27 6.533.01.033.537 2.767c-1.95-.427-1.71-4.252-2.164-5.52a18.445 18.445 0 0 1-1.01-4.9l-.016-.022.018.022a18.45 18.45 0 0 0 1.01 4.902c.452 1.267.213 5.09 2.162 5.52l.62 3.167c-1.624.972-2.54-1.854-2.924-4.548-.288-2.594-1.238-5.055-1.763-7.595-.235-.882-.17-.486-.244-1.182-.18-.864-.134-.428-.14-1.31.054-.335.215-.5.52-.472zm-.123.686c.224.133.415.305.603.483l-.09-.115c-.17-.128-.327-.267-.513-.368zm-.398-.213l.004.002-.004-.004z"/><path d="M28.594 48.76l-1.27-6.533s-.337-1.686-1.385-2.35a1.7 1.7 0 0 0-.728-.252c-.307-.03-.468.136-.52.472-.22 1.41 1.52 5.745 2.143 10.086.384 2.694 1.3 5.52 2.923 4.545l-.62-3.166-.536-2.768" stroke="#000" stroke-width=".487" fill="none"/><path d="M70.592 48.76l1.272-6.533s.336-1.686 1.383-2.35c.21-.13.454-.223.726-.252.307-.03.468.136.522.472.218 1.41-1.52 5.745-2.144 10.086-.383 2.694-1.3 5.52-2.92 4.545l.62-3.166.534-2.768"/><path d="M70.592 48.76l1.272-6.533s.336-1.686 1.383-2.35c.21-.13.454-.223.726-.252.307-.03.468.136.522.472.218 1.41-1.52 5.745-2.144 10.086-.383 2.694-1.3 5.52-2.92 4.545l.62-3.166.534-2.768" stroke="#000" stroke-width=".487" fill="none"/><g><path d="M51.745 2.913c2.7.217 5.592-.017 8.22.824 1.63.648 8.284 4.706 8.61 5.846.156.546.088 1.136-.03 1.594-.12.497-.296.842-.296.842s5.22 3.9 5.684 10.39c.487 6.82.38 13.053-.108 14.675-.253.838-1.334 1.925-1.832 2.393l-.253.228h-.095c.104.417.2.837.295 1.256.006.005.006.01 0 .01-.423 9.706-2.78 17.345-4.462 21.876-1.335 3.6-2.986 6.163-4.726 8.093-1.627 1.818-3.327 3.07-4.905 4.088-3.586 2.324-11.148 1.706-14.256.488-2.78-1.092-7.297-3.61-10.444-9.126L33 66.126c-.536-.987-.282-.488-.762-1.5l-.15-.314-.67-1.697c-2.59-6.865-3.555-14.242-3.95-21.53l.308-1.275c-.21-.33-.095-.145-.34-.555-.278-.478-.62-1.12-.678-1.496 0 0-.882-5.795-.244-13.074.527-6.05 3.41-9.423 3.41-9.423s.435-3.303 2.924-5.52c2.923-2.597 9.58-5.36 13.316-6.334 2.907-.53 1.058-.265 5.58-.498zM71.16 40.46l.01.367c0-.232.004-.11-.01-.368zm-42.733-.594l.006.063-.006-.065z"/><path d="M27.47 41.086c.223 6.597 1.67 16.605 4.618 23.226.326.736.682 1.432 1.057 2.08 3.147 5.515 7.664 8.034 10.446 9.126 3.11 1.218 10.67 1.836 14.258-.488 1.578-1.018 3.278-2.27 4.905-4.087 1.74-1.93 3.39-4.493 4.726-8.093 1.68-4.53 4.04-12.17 4.462-21.876" stroke="#000" stroke-width=".487" fill="none"/><path d="M71.742 39.708l.253-.23c.498-.467 1.58-1.554 1.833-2.392.487-1.622.594-7.853.107-14.674-.463-6.49-5.686-10.393-5.686-10.393s.173-.347.295-.844c.117-.458.185-1.048.03-1.594-.327-1.14-6.982-5.198-8.61-5.846-1.622-.653-10.065-1.3-13.802-.327-3.737.974-10.393 3.736-13.316 6.333-2.49 2.217-2.923 5.52-2.923 5.52s-2.884 3.372-3.41 9.423c-.64 7.28.243 13.072.243 13.072.06.374.4 1.017.677 1.495.146.253.278.458.34.555.02.04.035.058.035.058" stroke="#000" stroke-width=".974" fill="none"/></g></svg>